<mxfile host="Electron" modified="2025-02-18T19:17:10.419Z" agent="Mozilla/5.0 (Windows NT 10.0; Win64; x64) AppleWebKit/537.36 (KHTML, like Gecko) draw.io/24.4.13 Chrome/124.0.6367.207 Electron/30.0.6 Safari/537.36" etag="jIPmPWNAcmGMU5jpESTt" version="24.4.13" type="device">
  <diagram name="PÃ¡gina-1" id="a-0tEecpnDXtVymP7n5V">
    <mxGraphModel dx="1022" dy="1761" grid="1" gridSize="10" guides="1" tooltips="1" connect="1" arrows="1" fold="1" page="1" pageScale="1" pageWidth="827" pageHeight="1169" math="0" shadow="0">
      <root>
        <mxCell id="0" />
        <mxCell id="1" parent="0" />
        <mxCell id="_scKJNY9XlPBV2yreblt-51" value="" style="verticalLabelPosition=bottom;verticalAlign=top;html=1;shape=process;whiteSpace=wrap;rounded=1;size=0.14;arcSize=6;fillColor=#fff2cc;strokeColor=#d6b656;strokeWidth=4;" vertex="1" parent="1">
          <mxGeometry x="10" y="400" width="980" height="600" as="geometry" />
        </mxCell>
        <mxCell id="_scKJNY9XlPBV2yreblt-2" value="inicio" style="shape=rect;html=1;rounded=1;whiteSpace=wrap;align=center;strokeWidth=2;" vertex="1" parent="1">
          <mxGeometry x="314.38" y="-40" width="100" height="30" as="geometry" />
        </mxCell>
        <mxCell id="_scKJNY9XlPBV2yreblt-3" value="" style="shape=image;verticalLabelPosition=bottom;labelBackgroundColor=default;verticalAlign=top;aspect=fixed;imageAspect=0;image=data:image/png,iVBORw0KGgoAAAANSUhEUgAAAUAAAAE9CAYAAAB6LLu1AAAAAXNSR0IArs4c6QAAAARnQU1BAACxjwv8YQUAAAAJcEhZcwAAEnQAABJ0Ad5mH3gAAP+lSURBVHhe7P13eF3Hde8Pf05v6B0gGsHeu0SalERJlGWq9xI7tm+c/Oxc58bxjRM7TnIdF+X1vXZc4sRxbMuRLNvqVGcRKfZeAIIgSAAkCtF7PTi9vH9w1vbwGBSLRZlkzvd5zgOcffaePbNmzXfWrFkzY4rH43GSSCKJJP4bwpx4IYkkkkjivwuSBJhEEkn8t4VpZMw74RA4LcUDQCwWIxQKYbVasVgsmEwm455IJEI4HMZmsxGLxYhGowDY7XYAotEoFosFs9lMLBYjEAhgt9sxm69P3o3FYsTjcWw2G5FIhEgkQjwex+l0YjabiUaj+Hw+HA6Hcb/D4cBkMhEOh/H5fDidTiwWCwBWqzXhDUkkkcSlYNQ7nnjpHJyXAFM9buLxOOIiNJvN55AfqgEL6cm9sVjMILlYLGY8F4/HiUQiv0Oi1xOk/OFw2Ci7zWY7RwbRaNToAES2QpQWiwWLxWLI0mw2Tyj3JJJI4uLwexGgWDRWq9UgOr0x6w1YIM/4fD6Gh4fx+XxEo1HC4TCBQOC6JkAUqYnF7Ha7SUtLw+VykZKSgtvtxmazGbI0mUyGpQhgs9mwWq0GUcZiMcPyTiKJJC4dl02AaSkeg8wsFgt+vx+0RhqLxUA14lAodM73wcFBTp48yZEjR2hpacHn8zE2NkZ3dzcOh+O6bdBmsxmr1YrNZiM1NZWsrCwKCgqoqKhgxowZlJaWkpaWRigUAjXENZlMWCwWotEo4+PjpKSkGB2ODIltNlviq5JIIomLwO9FgGLhmUymcyxAgHA4DMrfF4vF6Orqorq6mo0bN3Lq1Cl6enoYHx/HZDKRlZVFTk4O2dnZhk/weoSUa3x8nO7ubvr7+/F6vTidTlJSUigtLWXFihXcc889TJ48GYBgMIjNZjNIMBQKYTKZsFqtmM3m695ivpog+n4hJOvj2sHvRYCJiMVihm8rGo0SjUYJBoMcP36cw4cPc/jwYaqrq8nLy2PSpEnk5eVht9sNAszMzMRkMl3XChSPxwkGg/T39zM4OMjo6ChjY2O0trbS19eH3W5n6dKlLF++nKVLl5Kfn2+Qnc1mw+fzGVa3TJAkceVxseRHkgCvKXxgBCi+rUgkgtPpBGBgYICTJ0/y8ssvU1NTw9jYGLm5udx///2sWrWKadOmEVezojKMuxRFu9YgflF9kiMSiTAwMMChQ4fYtm0b27Zto6uri3nz5vHkk0+yZs0aMjMzjaFzXE2koKzr673DuFpwqXqZrJNrA78XAUpDNJvNBINB/H4/sViMjIwMfD4fu3bt4ic/+QkHDx5kxYoVPPbYY9x0002kpKQYvj6xZv67zGZKQ5IQoWg0isPhIBqN0t/fT01NDS+88ALV1dU4HA4+85nPcPvtt1NcXMzIyAiZmZlGWJGEGF1Jn+mlNPzruf6k87oYXIocLuXeJD54XIgALX/31a/+U+JFALvNZlgfJjXrK0M1n8/H1q1bef311zl48CAPP/ww9913H0uXLmXSpEnnxLLps8bi37relSIWi2FSkxsWi8WYFfZ4POTk5DB58mRSUlLo7Ozk6NGjWK1W8vLyyMnJMWIIQ6HQORbg1SCzK5eFK5bwFcGl1MWl3JvEB49g6Oxcxflw3tkImQGOayEZFouFWCzGiRMn2LRpE/X19cyfP58HH3yQm2++maKiIlATJJFI5HcabzQavehe9lqGyA7VAYgcbTYbubm5LFu2jLVr13LbbbcxMjLCjh072LlzpzHRJJAJkKtLZvEP+CNpJpHEh4/zWoBWy1lujKlg53A4TDweZ2BggFdeeYWtW7eSn5/P3/3d3zF79mzS09OxWCzGioZ4PG4EROu9oFiROjleTx/U8FcmiUQOEhAdj8cJh8NkZWUxdepU+vr6OHLkCO3t7SxbtozU1FRcLtc5oS962lcCgUCAQCAwYaB6PB5X3+PKAoyfpa54HL/fRzAYIhqLYrNalSV39neTYdX9ltwikQh+fwCv14vZYsZqsSDcnvhOgVyXayatQ0j8XyB5/m3ef3s9FosRDAYZHx83fNrj4+NGLGaivk6EiX5PzIe8y+fz4fP5ztF5/X79GZSR4PP5CIVCxNWoKxGJ70LJVsohv3u9XiPkSq/XxOcT5YRq9/o9got5VqDXA+epo8vB+WQ3ES5kAZ6XAImftfgkVs1ms+H1eqmqquL73/8+U6ZM4f777+eWW24hJSXF8POZzWbsdvvvkJ/JZDJ+v55h0oa+EsQsstF/t9lsOBwOiouLaWxs5OTJkwwMDDBr1ixycnKIx+MEAgHMKhTm94GuMHFljepKuW7dOt555x3q6+uZNm0aDofDaADS8ZnNJuLEicaiRCJhRoaHefaXz/Lee+/R3d3F3DlzMZvPBnaHQsGz5MbZqIF4PE6cOMePH+f555/nG9/4BsXFk6iYXEEwFCQcjgBnyUE6j3A4TDgcxmKxGMHiZ/NhJhQKEQgEsNlsxmhDyiIdD9oKG7OKWohEIrS1tfHOO+/wve99j71793L69Gn+9V//lcbGRkwmE4WFhecEn0vUQ1yNhPSGH4lEjN8iyucrefD7/fT39/PTn/6U//qv/6KgoIC0tDTc7rMrrAKBwDkWv8ipq6uLH/3oRxw4cAC/38+0adPOIee4ciVJXuRTV1fHv//7v3P06FFCoRA+n4//+3//L4cOHcLv91NWVmaM4MLhMKFQ6Jy8S1sVvRgcHCSq/NeCqArTkhA4VBiX/qyUSdKNqaW04XAYqwryl/pM7Gx1xDU9lbQlfalz0dHE+3WEtLxOhPOykc1mIxQK4ff7DeJqbGxk+/btDAwMMH/+fG688UZcLtc5BTGrYOCJCne9k5/ApJG9KIcOueZwOJg6dSo33XQTZWVlbN26laamJkZHR4mpVSCxWMxoAB80RFl6enpobGykqamJYDBoNGa98RuKH49jNpkwm8/Gd+YX5JOdnQ0mZfuZwGw2EY1FicdiYIpjMp+1B1NTUykvL2PRwgWkpaURjUWxWixYLL+1jkRHTKqjkDzKbyEVdC8EZdZiJcNq0gktZEuILxQKEQwGaWpq4te//jWhUIjs7Gzy8vJYunQpFRUVpKenY7Va8fv9hJS/2qyWdOrpSUOLKLLWf4sp/69Ybt3d3TQ0NDA4OGjIVAhH8i0NOxaL4ff7OX36NE1NTfT39/+O7qCsOSm/lHl4eNgIQ+vv78fj8VBYWMikSZOM+NuxsTGCwSAW1TnrnYfIR+rZ4XAYa/rjyppNlIPUg/yuyyuq7QMgfCCkJXWrpx1VCwFkwQWqzuOqs9Dvk/KbTCZimrvpcnBeRrKq1QjSq8ViMerq6ti7dy9lZWUsXLiQ8vLyCVk3iYuDyWTC7XbzkY98hBtuuIGWlhZOnDhBd3c3qE5IGseVgqQvVpUo4sDAAF1dXYyNjTE0NER3dzcD/f1nicFsxu5wMGP6dBYuWMCUKVPOKqhKZ2zMS0dHB93d3QwNDeP3+4jFY2RlZbFg/nzuf+ABiidNIq6GePE4jI6O0tnZSVdXFyMjI0QiEcNiQCM6kYXNZiMYDDI8PExfXx+9vb0MDg4ajUWeEd2NxWL09fVx/Phxdu7cSUlJCUuWLGHRokXce++9LFq0iIKCAqxWK4ODg/T19TE4OMjw8DDd3d10dXUxNDR0Tl3ENAtE3tPf309nZyfDw8MEg0EjH5KnqIqdHRoaoq+vj/7+fkZGRgxijSoLVggmrixYIcK4iqoIhUL09fVx5swZenp6GB0dxev14vP5AMjJyTHKV1JSgslkIhAIMDY2xsDAAB0dHXR0dDA0NERcI/NgMGiUW/8MDAwwNjZGLBYz0ujv72doaMh4fzweZ2xsjK6uLlpbW+ns7GRkZMQgSnlOlsj29PTQ2dlJf38/kUiEkZERurq6aGtrY2xsjIiy4EUn+/v7aW9vp7u7m9HRUaOT+n1w3iGw1XKWuWUoGwwGWb9+Pdu2beOJJ57g5ptvpqCgwKiQ3zcj/91g0oYvWVlZjI2N8cYbb+B2uykuLmbmzJnnNADpMT9IiOLv3r2blpYWbDYbN998MyMjI9TV1XHs2DHGx8fp6OigqbmJsdFR3B4PLpeLSCRMc3ML4z4fNpuVrMzMsyTT20ttbS0HDhygra2N0dERYrE4qSmpDA4N0XDqFB3t7RQWFpKdnUUsFmdwaIhj1cfYt28fNTU1RKNRnE4nHo8Hm1o7HVMWcTQaNSzjnp4eDh48yOHDh2lpaSGudt5xuVw4HI5zXBA2m41du3bx9ttvc/LkSaZOncrUqVPJycmhvr6e4eFh7HY7ubm51NXV0d7eTldXF52dnRw/ftywzEtLS404WJShINZeMBhk+/btHDp0yCCF/fv3093dza233mpESAwPD7Nz505qampobW3F7/eTm5uL0+mkr6+P7du3YzKZKCsrY/78+ecQoMiitbWVvXv3cvjwYUZGRujr66OxsZHMzEzmzp1LcXExlZWVhjUn1m17ezv79+9n8+bN9PT0YDabycrKwuPxYLfbGR8fp66ujh07dtDe3k4oFKK/v5/m5mZ8Ph+ZmZnU1NTQ0tJCW1sbp06d4vTp0wBkZ2dTXV3N4cOHqays5OTJk0QiEdxuNw6Hg6amJurr6+ns7MTr9bJ//37q6uoYGxujrKyMvr4+jh07qwepqam43W7DH97S0sLRo0c5dOgQJ0+exOv14nA4yMvLM+pCoHPRhYbA5yXAmGZqxmIxTp06xfbt2+ns7OSTn/wkFRUVuN1uo3KSBHjpiKsJEbPZzPj4OJ2dnbS0tDBp0iRWrFhBNMHc/6BhUkOW/fv3097ejsvlYvXq1TQ1NfHee++xfv16IiqQu76ujldffYVwOExGRjrp6em8+uo6jh+vIRKJsHjRYmqOH+f1N97gtXXryMzKor6+np07d7B37x6mTZ/G6OgY+/bt5fU33mDO3DkUF5dw5swZ/n/f/jZHq44SDofxer1s3bqVhoYGnE4n+fn5hk9yfHwcq9WK1+vlyJEjfPOb36SnpweTycTw8DDr1q2jv7+f7Oxs8vPzCQaDhpU2OjpKTU0NNTU1NDc3M23aNMrKyggGg/zbv/0bXq+XvLw8CgoKeOmll3jnnXc4fPgw8XjcaHxVVVVMmjSJtLQ0bDYb4+Pj2O12otEoLS0t/OQnP2H9+vV0d3eTnZ3NsWPHqKqqwmQycffddxsE8eyzz3Ly5EkcDgejo6OsW7fOIH2AnTt3YjKZKC8vZ8mSJUb7iil/Wk1NDa+//jovv/wyTqcTv9+vZL2TnJwc5s6di8fj4Yc//CFDQ0Pk5OQwZcoUNm3axPPPP8+hQ4eYN28ex48fp7KykubmZiZPnszo6Cg7d+7kBz/4ASZlMdbV1fHKK69QW1uLw+Fg9uzZ7Nmzhw0bNhiRC7LhR3t7Oz/72c8YGBjAZDLR3d3N9u3b8fl8FBUVEYlEeOmll9i8eTN9fX0MDw9TXV3N9u3bOXDgAKdPn6a1tZVTp07x9ttvk5qaSk5ODk1NTfz85z83Osfe3l62b99OU1OT4VtNnDQUXIgAzzsElkZnUuPwtrY2+vv7sdvtlJaW4vGcXSmi905JXDzimlMXICsri2XLluH1eunr6zPM+ystW6lfk/LLmM1m/H4/vb29tLa24nA4KC0tpWhSEZ1dnRw/XkNLc/NZC6y7i7a2Vnp7e4jFohw4sJ+qqkpMZpg5YzqzZ89i8uTJ5Obm4rDbCYWC9Pb2cuzYUYaGBunu7mLzls3s27ePeDzOwoULWbx4MRkZGTQ2NvLOO+8wNDQESh/FEm5paWH79u3U19eTmprKrFmzmD59OhaLhWPHjrFz504iKgwrrvmnCgsLjeFgSUkJRUVFmEwmjh07RltbG+Pj44ZlKT64iooKY0XT4cOHqa+vN4aNYvmNj49z5swZNm/ezPj4OGVlZcyYMYOcnBzDRw4YDX7r1q04nU7y8vJwu90MDAywbds2Tpw4AQm+cikDSmdCoRD79++nsrKSeDzOrFlnZZyenk5M234uEAhQX19PS0sLw8PDmM1mPB4PBQUFTJs2jYULF2Kz2Th58iRbtmzB5/Nx6tQp9u7dS11dHSUlJcyaNYu0tDSam5tpbm5mcHAQi8XCyMgILS0t9PX1MWvWLGbMmEF+fj4ul4uioiIqKiqYMmUKBQUFnDhxgsrKStrb2w3/Zmtrq1FvaWlp9PT0UFNTg81mo7S0lNzcXI4cOUJjY6Oxh2heXh5Tp05l9uzZlJSU0NbWRlVVFd3d3YTUTPfl4LwEKMHMIvy+vj5DGVNTU3E4HEny+z0hDRPA7XZTVlaG3W7H7/czPj5uNASpgysBIQjUcM6iHOQul4vs7GxWrFjBvffey7333su8uXMJh0P09vURi50dilpVlEA4EubgwQP4fOPcf//9rLljDZ/+9Kf427/9G770pb9m2vRpOJ0OzOazjTMSidDU1Mi6detwOOzcfPPNPPHEEzz22GP88R//MXl5ebz77rsMDg4anUFqaipWq5X6+nr27dvHnDlzWLNmDXfffTf33HMPjz32GOFwmM2bN+Pz+YzyRCIRPB4Pc+bMYc6cOcRiMebOncv8+fMpKCjArHx0JpMJu92O2+0mOzubmTNn8vDDD/Poo48yb948o3MaV5t8pKSkYDKZ8Hq9hp9w2bJlPP7449xxxx3cddddzJgxA7PZTCAQoLe3lzNnztDb28vcuXMpKysjPz+fOXPm0NraSltbGyZllYte6DogFuChQ4cYHR3ljjvu4P777+euu+7iIx/5COXl5bjdbqOzkHJF1R6Uy5cv5+Mf/zhPPvkkpaWlFBcXYzKZaGtrw2KxUF9fz8mTJ6moqGDNmjU88MAD3HnnnUybNo3MzExjZ6J4PI7b7WbGjBl84hOfYNWqVcyZM4eFCxfyqU99iltvvZUZM2YwZ84c7HY7w8PDdHV1MTo6SjQaZdKkSaxdu5aHHnqIm266ialTp1JSUsIdd9zBAw88wKpVq0hNTTX8uVOnTuXxxx/ngQceYMmSJcyfP5+MjAxiH8AE4XkJEM2UDIVCjI6O4vP5MCnHvU6OSVw6Ysoxb7fbjWGu2+0mNTWVaDRqNHzx+VwpmNUsnVgzJjWbGlZhC+np6aSkpGC32XB73DidTuz2s1uiWW3S0M7OaI+NjeFw2Jk+fTp2ux2Hw0FqagppaWlYrVacTidpaamY1UzhyMgIra1nKMgvICsrC5Rc0tLSSElJMZzyQ0NDDA8PGwQg34uKioyGKZaq0+k0JhiCwSBhFZdqUiE2Yi0Eg0HDxWDSJkpi2ia/Qu4ul8swCGS4Z1GuoUgkgt/vZ2xsDK/XS1FRkWFlZmZmGqQdUaEfsVgMr9fLtm3b2Lp1K8eOHWN0dJQFCxYwbdo0g7SkLnTE1ahBJomysrKw2WykpaWRnZ1NWloakUiE0dFRxtXWah6PB4faVKOyspLnn3+e73znO3zjG98wQm3cbjcRNQkhRCnbsqWnp5Obm4vH4zHyNjo6islkIi0t7RwZ9PT08O677/K9732P//f//h/btm0jGAziUMtiPR4PKSkpOJ1Oo2wxFZYzOjoK2sgzqma2e3t76e/v5+233+bb3/42X/3qV3nppZeMrfVEby8X5yVA6XHiygk/NjZGPB4nPT3d6F3QYq2SuDQk9vSomU2UTKXximVyJRFVs/06CUhjQ+UnEAwSjZwl46gKLYlEosRiUaLRs0qcmZmByWSmvb2dYDBIMBhgZGREDVPOlkd6dbPZRHp6OuVl5QwND9Hb24vX6wVgZGSEkZERwsp/IxMbcTXhlpGRQVZWFj09PXi9XiP/J0+exO/3k5+fj8fjwao2mHC5XEa+zWazYbkJ0VksFiNYHdUobTab4ZPTrSnxK8ZUkDOAx+MhPT2deDzO4OAgQ0NDxNSss8wcp6amYlPLS91uN8uXL+emm27i1ltv5eGHH+axxx5j4cKFmLVQH1Q7FD0xKTdFaWkpqamp9PT0EFOhM319fbS2thJVvkSHw0EoFDI616GhIV5++WVOnTrFtGnTjJnvrKwsQiomUIbR+/btM2ZhZebW6/WqOg2SmppKZmYmHo/HyFNnZydbtmxh27ZtFBYWcs899xgWoMlkwul0Gjpm1kKA5H+Rs0U7QsPtdhONRjly5AhbtmwhHo9zzz338JGPfITs7GyjcxNZXQ7OS4BhLdhQekLJoP7CJPldHkSh9Y4mriZFpGHK71daxmLxRbWlijHVs0clLCMSIRAIKFI+SwBndeTsM7FYjNmzZ+N0Oti2bSsHDx5g27btbNiwkS1bttDT00MgECAYDGE2m4CzPrnVq1cTCUeoqalhx44dHDhwgN27dzM8PMycOXNITU3Fo2aehQzKysqYO3cuHR0dHDlyhD179rB37162b9+O2Wxm8eLFxsokk4rJE521aMH9Ukb5X+6Ra0KIel3pHZMQcmpqKoWFhUyZMoXGxka2bt1KZWUlhw4dor29nYiK+0tNTTUmWgRifWdlZZGamgrKOpW8yF9pf1arlblz55KZmUl1dTVVVVUcOHCAyspKOjo6CAaDRpper9cgnUAgYIRYOZ1OioqKSE1NxaIFmpeUlJCbm8uhQ4c4ePAgBw8epKqqykgX1Vk6HA6DzKVOxsbGOH36NHV1dYYvz+PxEFWhUWIoiU4JyYnu63I2KVKVya/W1lZOnz5NNBqlvLzc2D0pEAj8TmjSpeK8BBgIBIwhGEBeXh42m42BgQEjXsys9rAzXWEL5XqEkIZYOXF1jIBf7bhjt9txOp2G0lwJSL0JyelEG1PDzYiKx3M4HPgDQWLROBazDZvNTjQaIx4Di8WKy+nm9tvvIDsrl+d/8yLf+94P+Nu//Qpf+tLf8IMf/JDa2pMEAyFsNjsOh4toNEZxcQmPPf44JSWl7N69m69//ev8/d//PT/4wQ8IhUJ84QtfoKSkBLvdTlz5siKRCDNnzmTNmjV4vV5+9atf8Q//8A98/etfZ/PmzRQWFrJ27VrsaqPeQCBgWGoyFBsfHzfkL0Nir9drjHKCKiBYb1hCPvKcRQ2HzWrlU2lpKQ8//DB1dXX8y7/8C//v//0/1q1bx5kzZ0BtHSexedOnT+frX/86X/3qV/nmN7/JF77wBZ577jnq6+tBW30TVx2iThA2m41FixaRkZHB9u3b+f73v88Pf/hDNm7cSDQaxev1Mj4+TkAtbxwdHSUYDOLxeJg6dSo9PT0899xz/PM//zPvvPMOHR0d2Gw2RkZGmDp1KjfeeCNms5mnn36ab3/727z44ov09fXhcDhIS0vDbrczNjbGyMgI42rpXSwWIyUlhaKiIuLxOOvXr+dHP/oR69evZ2hoiLGxMXp7e0lJScFsNhuEG1ILLXzq2Awhw3g8jsPhMO5JS0vD4/FQVVXFD3/4Q37xi1/Q0tJCOBymv7/faEOXg/Nuh+V2nl0CI5Wwc+dOnnnmGerr63n++ecpLy/HpmK0pEdFNSZhcbMaJkvBxNT97wKpTGk0TDC7HldD3DNnzvD222/z05/+lNtvv52/+7u/M5bEyXMfBCQ9NALcvHkznZ2dZGZmsnz5cjo7O2lsbGRwcJBVq1ZRWFjI6OgIGzduJD09jckVkyktLWX3rl34/H5Kiku45ZZbGBoe4vSp05w4eQKv10skEiElJYXy8nJmzpjJ4OAgJ06eoKuzi5tvuZmZM2diwsSxYzU0NjbR29tLJBIhMzOTGTNmMG/evLMrRhRBi78nFosxPDxMVVUVra2teL1eLBYLubm5zJo1iylTpuB2u41RjEn58UZGRqivr2fXrl2sXr2ayZMn4/P5ePHFF8nLy2PevHnMmDGDd999l87OTvLz83nooYcIhUJUVlayf/9+li5dysyZM8nLyyOuOieT8puKRdrX10dqaiqlpaVGUO/KlSspLy83Zmerq6sJhUI4HA48Hg+LFy+mvLycSCTCO++8g9lspqKigmXLlp3TAaBmnRsaGoxlb3l5eZjNZpqbm0lPT2fmzJlkZWXx5ptvUlxczPz585k5cyYHDx7k9OnTjI6OkpmZSUFBAb29vbS3t/Poo4/icrloa2vj8OHDhsUaiUTYsmULoVCIm2++mT/7sz9j7969tLW1kZ6eztq1a4mr1Rq9vb3GBFR2djYVFRU0NDRgtVopLi6moqKC/fv3A7B69WpycnKorKykurqalJQUbr31Vux2O7W1tezZs4d58+Yxa9YszCpUa3BwEKvVSkZGhsEzGRkZrFy5koyMjN/Ray5iO6zzEmCK22U00nA4TG1tLT/5yU/YvXs3P/jBD1iwYAGZmZlGA9bH7miNX+81Y2o4LcR4vUPIRidAs/LnxDSflNls5tixY/zgBz/g6NGjPPLII/z1X/+14YNiAof4BwkJxpWZX6/Xa/jWsrOzVeBzhM6uzrOTIe6zQ9KBgQGi0Sgetezq7BA3SCAYoL+vH1TEgAz5BgcH6e/vx2w2k5eXR1paGhaLhVAoSH//AIODg0QiEfLz843g3JgapsbVbjoxbXmez+ejt7eX8fFxLBYL+fn5pKamYlexebpl63Q6CanJPLHGUlNTicVitLS04HK5yMjIICUlhdbWVsbGxnC5XMyYMYOIioUcGBggKyuLtLQ0nOqo04ga3prVeuOenh5GRkYAKCkpYWRkhDG1UbBYjJJvr9eL2WwmMzOT7OxsnE4nwWDQ8OWlp6efM0stbS2m/H4jIyMMDw+Tnp6Ow+Ew3ut2u7Hb7XR3d5OSkkJ6ejoej8d4RsJ9ioqKjBUZpaWl9PX1UVNTw759+4zwJa/XywsvvEB5eTl33nknjzzyCK2trYZVWVRURExFM0SjURobGxkfH8ftdlNSUsLAwACRSMSYrBkYGMBsNlNQUIDL5TKOjnC73RQWFhKPx40VMllZWYZcZCVKRG3I7HA4jE6hsLAQh1qznNhOLpsA3c7fhrlEo1E6Ozv593//d9atW8ef/dmf8bGPfYypU6caPkGbdqKZSc24hVUUuqQRDAaN2bTrHUJ+JFSKKLJuncTjcbZv385f/dVfUVxczKc+9Sk+/elPn5NOYsV+UIhpx3iKfyys/IFmNbwzafGIMmSUIabkz2Kx4FO7nghxh9SOJqKcoVCIkHLM29U607AKBBcImYhc9E4CzSemP5OIuOpwhKDC4bAx284EoxTRWVT64oMTP5SQTkRzRZiV+0fyI9ekXvVyxycY/cQ0n6OMCuTeYDBIXBkPYv2h6UAwGMSk+Sgl/3oaepn0tmhWRC0kJXkWI2fz5s28+OKL3HjjjRQUFDA2NsZ7773Ho48+yn333ceCBQsYHR3F4XDgdruN96HKJC4ci4pq0DuIiBoui+zims/bpHy1IqeQmpgRw0reE1NuC7lfOEeQ2E4uRIDnXQliUZmWQqWnp9PS0sLx48cZGRlh3rx5lJaWElVO0UTlksxLZZhVY3o/xb1eIMotBCHKKRUoSmFTm5+2t7eze/du3nrrLZ588kluv/128vPzQdtD8UrITRq7NDSzmoGUupIhZ2IDFIWWepa86Yos98tv8r9NHY8guiVkYVHL1fS0wmodulzT5aDLVvIiskKRik4w+v1COFIf8l3e6XA4DLIQwjcnLEeU98aUJR9NWPwv5KTfF1ETAJInkZ1ZkYOUT56X9iPP6HLQ21VE+dRE7kJ4VjX5E9esZ9TEi3QIkr+osjgnT57MkiVLjLXCbrebT33qU6xdu5by8nKi0Sg2m+2ctqzL0qE2UZB3W7SNG6LKjaGTnEV1hlYVKiS6oMtHIHmVNMyq3nUkfr/s7bCcygkpBRZBBwIBdu/ebQRSyjBYhCuZkoyI0unXrleIUko59XInflCN2Gq1sn37djZt2kRnZyd/9md/xqJFi3A4HOcQwJWQXUxZf6KQOmGYtb0LhVTEApI8ieWIVu+Sliiz3C/Qyy/pSEMUkpDf9IagP5P4SUxb7pe6kIakk4Y8F0voqPT8nC9ds2qUOqEl5jGmLBWRT2Ja0mbk3SSQvvyu65PcL3nU25qeZz2vck3vSEUWYqFb1Rpru91uxOqVl5czZ84c5s+fb7i7rNpeniKDxDrW8xHVZnsjCdtf6Xqj51X/Xf4XPZQySDpRNapMlL2OCxHgec0Ks+oVYmpGEqCiooKVK1diNps5cOAABw4cMDIllScFE2UTAaFVwvUKvbxSsXrlJN4r1t/Bgwc5c+YMK1eupKKigrS0NKMB6Mr2QcOkbTmlK5e8T+pSV0z5PhHer6wT1bu8XxqW3ItKy6pNrsn9golkq1+LJ3S8OmHIO3TZyv3SuOQeXR5xjUBMys0jz12ojiTtRHIVJJZFJ0Ypg9STvE/yIN+FIFH5FnKW9CQdHfIOqQO72hBiyZIl3Hzzzdxwww3n+NjM2sgukrAnn1nrZOS7/j75XXhFly0aeepl1yHX9N8muu9S8L61JpmXis/OzmbGjBksXbqUgwcP8uqrr9LV1WUIIRwOE1QR9lJQQUxZG79vhq8FiKKdT+Eklmx8fJzNmzdz8OBBnE4nf/qnf0p+fr6hrLYrHGJk1vx1UseilKLI4tu1qKGKRRsGynBWroniSt71oa7+m0DeIe+2qU1i5Tn5TZ5/v8ahQ3RP5C/pyNBSGqZZkawMwXR9l3fqpKW/W8+3VfmidJK1WCzGChKRkVmRp0WRvshInhW/mp5Heb98T8yDbhmFlS9P7pHf9LKaFeFI3Qux2VRER0QtG5R3WNWw2q42OZY8kRA+JbKTa/Ks3C/PilxJ4BeByD7R2rSrlUUWbf9Bi/IzSpkuB+cdAts1xQ4EAliVmYya3WpoaKCuro6Ojg5KS0vJzMw0lsgJ0elD55iyJH+fzF7tEMUzq8Yb0wJt0YgxHA7T3d3Nvn37+Pd//3ecTicf+9jHePDBB40KlUYnwyypiysBaSTS0KThyHeBSSMTHXHNgpT75N6YtomoEIA8I7/J/RM9Jw1GrkmjkHeKfBLfL/dFVCyZ/pw+UjGpoZT8lmjVxRKscBmiS3p6Q01s2GjDVv26yFDKJdCfE+hllo/oBtr6bbmuk6X+m57/qBqampQuii9OiNys2qwgoHYmRyM4s+qwLAkbner1IPITecpfuU/XO0lb9ETu0yF1HtUWCiTek/j9QkPg8xKg03F29klXBpPq2bOzswkEAgwODlJdXY3f78dmsxnLY0R40gNIhm3aljXXI/QGLQqONjSLqHWaXV1d7Ny5k3Xr1jE2NsYdd9zB2rVrKSoqMhRYZE/CMOxKwaw5+aXOpfGIUumKnajQ8klUXv26/JaIxOvynomeTZSD/rv+bj09PV9ovim5FtG2hI9pQ7PEMqBZypKmyEjqW3+vkCkTlFGIQZehnob8Ftd8Xno+0PIi98k79OcS36E/G9cIxaaNNuR+nZj090v7lnyR4H7Q/5fyyH3yf1yTiznB/SHv1fMrHYl0CJK+fk/iM/w+BGhX09QmtUOGCFhM4ezsbMxms7GDhOyN5nKdjR8U4egkIAW7XqH3dgKp3GAwSH9/P3V1dRw+fJht27Zx/PhxY0ePBQsWEFJHYepKLQqVWLEfFKRe5Z0kKLNcI8EaYQJlm+g30QWRg0CUVz6CxDzoip6YfuJv+jvkPvMEkxpoPi+Rc2JaArkm+UrMt17fuqzQrMWJys95OhSdAAU6yerPStvS25j+mzwjH7T8yzOSfxnqTiR/gdynW2AiX7kvUT7ng5Q5US6Jz+lykfYlZD1R+onXLkSA540D9LjOBnrqCUpGAoEAFouF/v5+Dh8+zHe/+12amprIy8vj7rvv5oEHHmDKlClG5t3us7uI/HdEXPn82tvbqaqqMjaSzMzM5L777uPTn/40mZmZmM1mo/PQIcu4JObqg4TUpxCBNBq9IUnvLw0k8Tn5rltRKAXXGxPa8MmU0EHq6cQnmKUVTKT0MqQzTeAz1YlB75zkfXJNfkeRjeQjrllRcm8imcq7ExuyPD9RngUin/P9rkPeTwJhitz1Msg7I2rmVepC4gvN2hJWSUfyoJfVpFmBUh4mmMyUkZ7+nP7R5ZxoPU5UL3Kv/K8PxyWfcr/kP/F3wYXiAM9LgKke9+8khtYozMpXNDg4yP79+zl06BDHjx+ns7OTrKwsCgsLKS0tZfr06RQUFJCSkgIJVsL1BlGE8fFxxsfHjVUH9fX1nDlzhqGhIcxmM6Wlpdx4443ceuutlJeXG+QykYUsve1Ev30QEOUTBRelld8SryU+l3ifQFfMxPvkmtyj/67fr19LvC7Q05yIhEjIi3w/3+8T/TbRd8H5rstvE12/HEyUfxJmdxPv0X9D0yXTBIStIzGdxN/030moy8TrJMgokaQnepcuN/19iXlJ/D4RLpsA01LO7vh8IcRiMUZHR2loaODIkSPs37+fzs5OgsGgsbRKZrZI8BtcbxCS8vl8xkxvVO1rFovFSE9PZ8aMGdxwww3Mnz+fyZMnJyaRRBJJfIC44gQoCIVCeL1eenp6aGho4OTJk5w4cYLGxkb6+vqModz79TzXOmJauIb4ScvLy5k5cybTp09n6tSpVFRUkJGRYSyxSiKJJK4cPhQCFLM2rkIMgsGgsc2NT51yLzNi+szY9QbxR0l8l03FtaWmppKSkoLL5TpnQkn3qyWRRBIfPD4UApxojC9jd/07Cc7c6w1iAYqf05QQmyWO6kjChptJJJHElcGHQoB6nJDutJT/pfEnOj2vN0j5Ylo8oEyMoOShk+SVmthIIokkzuKKE2A8Hsfv92PRlrugrCEZEloS1ntez5BhvkzdS3Q9mvV7PU8EJZHE1YQrToAkWIARbYG0WH269Sf3XY/QrTuxdPX/0ab/k0giiSuPCxHgB2KSiY8L1cD1Ia9cv56HvjqkzOL7k2vy16SWBkonkUQSSfzh8IEQoPj6TNourTLM032C1zuE+KTMUm7d6tP9gEkkkcQfFh/IEFhmNcXqez9c72QY17YB0y1g8f/pcrqQrJJIIonfDxcaAl+QAOMJsXtmLX5torCP/84QGSX6/BKvmbU98mIJ24ZLZyLfr/RSuCR+C91iT+L6wIUI8LxDYFnwrDdcfWZXb+xJ8jsLkYP4QPWOQb8miGnnSST6Ba93S/lqQ1Le/z1xXgvQbj17SI34tExq88SwOmxF3wFCb9RJXBxkqKwPmXW5Jq2RDxcTWe1JXPu4kAV4XgKUYzHj6tBjOQdVyFCGbzJcSyrNpUFiBRO3cDJrxxSitiJPLpm78kgS4PWJyyZA2Q8wpo5OlLMDvF4vzc3NHDp0iI6OjqT1d5mQDkQnN7PZzC233MK0adPIzMwEbSIlSYJXFkkCvD5x2QSoH4weURsrRiIRent72b59Oz/+8Y+pra0lNzfX8HMlcfkYHx+nv7+ff/zHf+TBBx9kzpw5kHAQ+bWES/GpXSnduZQ86LhS+Uniw8dlE6DTfva0Khn2ymqP0dFRdu/ezQ9/+EN8Ph9PPPEEHo8nOUt5GRD3QTwe5+jRo/z0pz/lS1/6Eg888ADz5s27pq3rSyGfK0U4l5IHHVcqP0l8+LhsAnQ5zh6BKI0wHA5jNpsZHR1lx44dfP/73yc1NZVvfvObpKenJ4dol4i4tlEEwJYtW/if//N/8pWvfIWHHnqIefPmXdMNUcp3MbhSRH8pedBlfS3LPYlzcdkE6Hb+9iBks9rL32QyMTIywrZt2/j+979PQUEB//Ef/0F6enpya6dLRDzhFLG33nqLxx57jL//+783CFAsb7TzWa8V6CE9F0KSAJO4UrgQAZ5X80xqpldf1WBS4RkSvqEriihb8nNxH1PCua0C6XDiiiBDoZAxI5xEEkl8sDgvAUpD1L8LAUrvHolE8Pl8xLU9/5Kfi/ug+aj0naSl45H4SqfTaczAJ5FEEh8szkuAJm31gnwXS0UarlxLDhkuHRMNucTa1q/rdXAtIj7BMQjSgU6kOzLqiKm10/oKGUlDOuFwOEwgEDBmygXxeJxQKHTOiiU9jVAoxODgIG+//Tbf/e53qa2tZWhoyNjDUfIg9RGNRgmHw4RCoQnLoY+UEp+XcogMYmo1ld75eb1eotEokUjknHfo9waDQcPYSITIKRgM/o6s42rEof+v50cgeZb4VMm/LhO9vPIJh8PnyFbPezgcPufdiTK5GvC+LUsaYOI1ybxJW7OaxKVDGr9ZWdeiGBMRw7UMXflDoRBjY2McO3aMrVu3snPnTgYGBoxzY+R++ehkIr8JMegNUWSnk1V1dTWHDh2iqanJIJa4OremqamJnTt3snnzZgYHB3+nsUYiEaNx6/lIzI/8L+8Nq5MAE++X/OppST7lObkHjZAkPSEmKaOQlECXg9yr5yHxHv03Xdb6dfkrH10+epmiql5FhpJWoiwkz5Kf80He82HgfQkwiSQuF2blx4zH4zgcDiKRCIFAgLGxMVpbW/nGN77BPffcw6OPPsrhw4cZHh7G7/dj0o4RiKlJolAoRCAQMDoF+W63240jV4WsxFKKxWJ8+9vf5gtf+ALPP/88o6OjRsOMx+NUVlZis9m47777WLJkCfn5+UaspcViIab8r1F1BrbdbsfpdBqkFVEHksv/sVgMr9eL1+slFAoZk1ZCpCgCkvIFAgFGRkYIBoNkZGQY+ZfTAkOhkEHakUjEOFwrrlZm+f1+QqGQQSZWqxWXy4XJZCIYDDI2NkYwGDSOZxXSElKy2WznkJjFcnbpqyx/1UceIgMxdiQmOBgMYrfbjfeNjY0ZdR5XHbncJzIQfJgk935IEmASVwzSiGKxGDabDafTSTQapbKyEq/Xi8PhIBQK0dTUxNjYmNGA5Vxli9olR9ZIo6xmu92Oy+UyrAxJHxUwLqT4l3/5lzz11FM89thjZGZmGpaRy+Vi1apVPPjgg9xxxx04nU5QDV1IRdKxWCyGhSYkolurVqsVm82G3W4nJSWFlJQUHA6HQSoSSyvyEBI3mUy43W5SUlIwmUznnBgo5bHZbMTjcWOyTNJwOp24XC5sNtvvEIzZbMbhcODxeAxZ2Ww2o3OIqyMZhNQkT0KEpoRRndRBLGHoLnny+XzYbDbj1EORTzQaxW63Y7efDae7WmH5u69+9Z8SLwI4tJUHUmkAfr+fxsZGDh06REpKCmvXrk0GQv+eiMfj1NfX88orr3DLLbcwa9YsY4XNtYrEHl4aW3d3N8888wx2dW5yLBYjLS2NsrIyysrKjIYYDAbp6enh4MGDVFVV0dLSQiwWMxp+NBplaGiIEydOUFNTw8mTJ+no6MBkMpGamorNZqO/v59IJILT6SQ7OxuA4eFhTp8+zenTp+nv7ycYDGJSJ/TZbDZCoRC7d++mp6eH4eFhjhw5wvHjx+nr68Nms+FyuYyyCEFJPfn9furr66mqquLo0aO0t7cDkJKSYhC0SdsVPBKJ0NHRwfbt2/H7/bS2tnLs2DGampoIBoNYrVacTidDQ0OcOnWKU6dOMTY2xsGDB+nv7ycrKwvAeK6yspLm5mbGx8cN8rHZbIYsKysrOX78OA0NDXR1dZGSkoLH4yEejzMyMsKpU6eorKykqqqK3t5eQ5YWi4WRkREaGxs5cOAAlZWVdHR0EAqFcDqdmJRVC9DW1sbx48epqamhqamJ0dFRLBYLKSkp55RfPokQvZnot8tBMPT+ERRJArwKcD0SINokAUqHAoEADQ0N/OAHP+CWW27hhhtuIBgMcubMGcrKypg9e7ZhWbW3t7Nr1y42bdrErl27OHnyJGNjYxQWFuLxePB6vRw6dIidO3eyZ88eKisrqa2txW63U1RURFpaGi+//DKHDh0iFAoxZcoUgsEgdXV1vP322xw6dIiTJ0/S2trK8PAw6enppKenEwgE+O53v8uJEyfo6elh586dHDp0iPb2duLxOJMnTzYsQyEyk7Jaq6ur2bx5Mzt27ODo0aOcOHGCUChEeno62dnZRuM2K/fA6Ogo+/fv57vf/S4+n49Tp05x6NAhampqGBwcNMrS0NDApk2b2L59O4FAgI0bN+L1epk6dSqjo6McOHCArVu3smfPHhoaGhgcHMRkMpGXl4fFYqGrq4s9e/awfft29u/fT2VlJSdOnKCsrIy8vDxisRg1NTVs27aNbdu2Gev8LRYL2dnZOBwOamtr2bFjBxs3bmTfvn00NzcTDAYpLCzEolYzjYyMsHXrVnbt2sWhQ4eora2ls7MTh8Nh3CfEp1vDidA7ld8XSQK8BnA9EqCed7PZjN/vp7m5mX379rF161YeffRRVq5cSSwWY/fu3ZSUlLBo0SLcbjfNzc28+OKLPP3009x+++3MnTsXv9/PM888Q3l5OdnZ2XR1dfHFL34Ri8XCggULmDNnDu+++y7hcJjCwkKKi4t54YUX6O7uZurUqZSXl7Njxw5efPFFdu7cyZ133smsWbMYGhriF7/4BVlZWeTl5eH3+3n22Wc5ePAgPp+Pxx9/HLfbTW1tLZs3b2b58uVkZ2djs9kIBAKGFXjixAn+4i/+guHhYRYvXsyDDz5IS0sLmzZt4uDBg6xcudIYmsdV2FgsFqOhoYHnnnuO4eFhKioquPnmmwkEAmzatImWlhbmzJnDwMAA7733HgcPHqSsrIyVK1eyfPlyzGYzP/7xj6mqqiIjI4OHHnoIl8tFdXU1e/fuNYLp33vvPb75zW9SUVHBjTfeSF5eHm+88Qa5ubnk5+cTj8f5+te/Tn9/P4sWLeLxxx+nvr6e06dP09fXR05ODj/60Y+oqqrijjvu4M4772RkZITq6mrsdjvl5eWMjo7y9ttv8+///u/k5eVx6623Mn36dLZs2UJbWxtOp5OSkhLDv6t/BPqo4YPS/QsRYNIHmMQVg0lNZPh8PiwWC4ODgzQ3N5OVlUVUzWCWlJQQDoc5deoUx44dIxAI0NTURHt7Oy6Xi2XLlnH77bfz5JNP8rWvfY0VK1YA0NjYSF9fH0VFRSxbtoybbrqJL37xizzyyCOUlZUZEyFoM6o1NTW0traydu1aVq1axerVq1m9ejXFxcWcOHGCY8eO4fF4CIfDlJaWcsstt3DjjTcakySjo6MMDw8TCARA+Ruj0Sg9PT00NDRw5swZZsyYwerVq5kzZw733nsvkyZN4syZM9TU1DA8PExUCwXxer0MDQ0RDoeZPXs2S5cuZcGCBaxcuRKn00l3dzdtbW1GqI/L5eLGG29k6dKl5OTk0NHRQVVVFW63m+XLl7Ns2TLWrFlDcXExHR0dVFdXc+rUKTo7OxkfH2fp0qWsWrWKNWvW8L//9/9m9erVOJ1OGhoaaGhowOv1YjabCQaDRKNRWltbOXLkCIFAgMHBQZqamjh+/DiBQID58+dzzz33sHjxYlJSUjh16hQ7d+5k2rRprFixghtuuIHFixezYsUKxsfH2bhxoyG390Oi6+RKI0mASVwRiCLHVQxbLBajo6ODmpoaotEohw8fZuPGjVRXVzMyMkJDQwNHjhwhGo3S0dHB8PAwmZmZlJSUMHXqVD7ykY/wmc98hgULFmCz2RgdHcVqtVJcXMy0adOYOnUqjzzyCKtXryY/P59gMGj46iKRCH6/n87OTkKhELfddhtTpkxh8uTJzJkzh7lz5zIwMEBzc7MxYVBSUsKSJUsoLi6mrKyMnJwcUCOgsFoXL369gYEBzpw5QzgcZsaMGcydO5fMzEyWL19OeXk5gUCAxsZGxsd/uyzLpDYYlpneadOmMW3aNEpKSli4cCGFhYUGucqEhcfjYebMmRQXF2OxWOjp6aGrq4v8/HwWLFhAYWEh06dPNyytzs5OQ5ZWq5XJkycbZf6jP/ojli5ditPppLOzk+HhYWOio7W1FZfLZUw0mUwmFi5cyMyZM+nt7eXIkSO0tbUR00Jdent7OXXqFDNnzmTOnDlMnjyZ0tJSlixZgsVi4dixY8ZE0oVI7kK/f5BIEmASHzjiWriJ+HtGRkY4fvw4O3fupK2tjV/+8pf8wz/8A//8z/9MX18fzc3NHD16FKvVytjYGKOjo0RUYHBMxaHps4sej8f4q/vkQqEQfr//nHwEg0HD0nI4HLjdbuIqIDoej5OdnY3FYiEQCODz+YyZZWmINrVCJxgMElJB1+LHk4mTwcFBYmqSxuVyAeByubBarUQiEYP8bGrG2Gq14vF4cLlchFUMoEnNBufl5ZGTk4PdbjeIXohcLOdYLGbk1+PxkJWVRVzFOLpcLnJzc42wHZ/PRygUMqxiyUNchdjIR8o5ODhIUVERN9xwA8uWLcNut/P//X//H1/+8peZMmUKO3fu5Hvf+x5f+9rX+OlPf0pXV5chn5ja49LpdBqz3BaLxZiBFlwMEX4YSBJgEh84hPR8Ph8+nw+3201LSwsdHR3k5ubyV3/1V/zTP/0T3/rWt/jmN7/JZz/7WYqLi2lpaaG5uZmCggKysrLo7Oykr6+P4eFhmpqaWLduHVVVVQwPD2OxWIyYwtbWVgYGBnj33XfZsWMHZ86cMZYQWlQoSn5+Pjk5OXi9XjZu3Eh/fz/j4+M0Nzfz5ptvkpqaauzBKP4naaBBFU8XVzGNZhX/Nz4+TjweN6w2m83GsWPHOH78OLFYjCNHjtDe3k5GRgbLli0jLS3tHKtPPrFYjKNHj1JfX09/fz/79++nubkZq9XKrFmzDL+ZkLTf7zcmFux2O7W1tRw+fNiwxBobG2lvbycnJ4fZs2czZcoUTCYTra2tdHR00NTUxEsvvcTevXsZGxtj0qRJuN1uHA4HpaWl3H///SxbtoxbbrmFj33sY+Tm5nLixAm6u7u56667+D//5//wN3/zN9x4443s2LGD/v5+cnNzKS8vNyZZ2tvbGRwcZNOmTYyMjHDDDTdgvwr3tLysSRDZETo1NZWPfexjRg+cxMVDFB/Vm9fX1/Pqq6+yevVqZs6cSW5u7jn3f1BO4Q8LJm2G1Gq18swzz3D06FEmTZrEZz7zGRYvXszs2bOZMWMGxcXFNDU10djYSEFBAaWlpcYQrqenh+rqag4ePEhlZSVlZWVG0HJrayter5f6+noOHTrE1q1biUQiTJo0icLCQjZs2EBfXx/FxcUsXbrUsJpaW1tpaWkx0gyHw3z0ox/lhhtuwGq18tZbb5Gens6cOXOYPn06PT09HDlyhLq6Ou69915KSkoMK8+qnePS19eH1+uloaGByspKtmzZQigU4oYbbuCjH/2osW2cDM1HR0epra3l3XffpaSkBICGhgY2bNjA+Pg4CxcuZPXq1QwMDFBVVcX4+Dhr1qwhMzMTt9uN2WxmfHycaDRKW1sblZWV7Nu3j87OTgoLC1mzZg0VFRXGsLa/v98gywMHDpCXl0dBQQFpaWmMjo4yOjrKmTNnjLSCwSC5ublkZGRQU1NDdXU1dXV1dHR0cObMGUZHR8nPz+f222+nsLAQm81GV1cXnZ2d1NTUcOjQIc6cOUNFRQW3334706ZNMzoQs5oFTtRruZZ4/XLxe02CTJQR6d2lANJL6j1a8nNxHxlmxRNmv3SZy/DvWkM8Hsdut+NwOIjH4zQ2NuLxeLj99tuZM2cO06ZNY8qUKUydOtVwmBcUFNDe3k5+fj6rV6/mtttuo6amhg0bNrB//36CauVBVlYWM2bM4PHHH8dut3Pw4EE2btxIY2Mj4XAYt9uNyWQiMzOT7OxsY/b1pptu4t577yUrK4sDBw6wfv16GhsbeeCBB1izZg1TpkzBbrczffp0iouLcTqdxFRQdH5+PtOnTyctLc0YwooP0OFwUFZWxqc+9Sny8/M5fvw4r7/+OseOHWPKlCk88MADFBQU4FTn6kjbkckQs9lMTk4Ow8PD7Nmzh5qaGmbPns1tt91GQUEBHo/H6BgcDgc2FY9YWlrKpz/9aRYvXkxfXx8vv/wyu3fvJjMzk4ceeogZM2aQm5vLrFmzuO+++xgaGmL37t3s3r0br9eLXQVv5+fn8+STT1JUVERNTQ3r1q1j69atHDt2jO7ubqLRKG63G6/Xy9atW9m0aRO1tbV4PB4+/vGPM2nSJMrLy7nvvvu45ZZb8Pl8bNu2jU2bNhkzwjfffLMRLaLLQMcHTX4Xg/PuB3i+g9EHBgbYsmWLMd39/e9//5xlRElcOqLRKG+99RZPPPEEX/va13jggQeYOXMmaLF015KFHU/YMs1sNnPw4EHsdjtlZWXGqgxp/FarlZaWFnp6esjNzTWsCa/XS09PDz6fD6fTyaRJkwz/ldlsZmxsjO7ubvx+P3Y1I5ubm0tOTg5Wq5WOjg7Gx8ex2WzGxIHP52NoaMgY1prNZkpLS40A52AwyLFjx3A4HOTl5ZGamgpAb28vvb29zJw5k9TUVEzK32hSQ1OzOsxqbGyM8fFxw1cofjDxB8bUxIHT6aS3t5d169bxv//3/+bv/u7vuOmmm8jNzSUajVJQUEBmZiZWq9UYdYlVGFerOSxqlcrIyAjDw8OMjIzgdrvJysoiKyvLmNCJqo0SmpubCYVC2JXvNC8vD49aMRKNRunv72doaMiYrZX4xdTUVAKBAAMDAwYhulwu0tLSyMrKwuPxYLVaCYfDDAwMGH5UIc7MzEzS0tLOIbYPi+QutB/gZRPgv/3bv5Gfn8/3v/998vLykgR4mRDle/PNN3niiSf4p3/6J4MATSqMBOV0v5Yg+ZbGJ9abEI3MCMrkhcyuytBSrISIWkNsNptJT083LGIhV7/fT1xNRsS1ZWPS8PUOxKwd7xDVDpx3Op3nWOJjY2PnEIxYgsFgEJdaiSJ1I0QuZZF3xNSkjaQTjUZxakvubDYbPT09vPbaa3zpS1/iq1/9KnfddRdTp07FrNYeo9Y9OxwOAoEA4XAYj1q5YVZrc01qGZt8LNryO5GBXBNiNqlleBbVqUrZRTbBYBCbtiZY5BpX65Cj0agx9BdIRycylHeb1Cobu5p00e//MHAhArzoVqUrSBK/P/SGqDfqRDmbPuQhwQcFITDJe3p6umFt6JCyyrDO5XIZDdNkMuFwOAzSCYfDxvMxtdZWntGHpBG1ZtWs1sW61BpjVL5satmb0+k0yE2I0mQyGTPLMty0Wq0GeUv6EbViRcqJVhaL2ljA4XCc4/PTiVuezcrKYuHChYYvTt6rkwmAx+MhIyPjd94pBONyuUhJScGplqZFEzYtjsfjeDwePB6PUW65HlezwWa1ztjtdhv36SRntVpJSUkx6tKurfOVd9m1JXhSJ4lluZpw0QR4IUhDTX4u7iPWg3ykAUojuR4QV1aRLPiXspo0ayGqYtzE8ogr36FuZUlaEmaBZkHIs36/n6AKU5E0w2oTA5MiCbEOpQ4kXblHGnNQ7asnBCtpSRhJSO1GEw6HsVgs55C01GtM+Q6lnDp5inXkcDiYNm0aTz75JAsXLiQ7OxuTGlqLleV2u4370SZdzOfxwev6JHkzq1lrkZdOnmZlbco1eYf8blW7zKDOBYqpuMC4tmmDTnpSZ9K5S74k/1cbLosApVDy0Quc/FzcB20nEVFoJrD4RMbXIiLaVlBm5euzaltdid5EIhHsyiEvjTim/INiTTnVDii6bNAaqX6fTLwISUinEg6HzyE3ITyB6LLUgeQlrobYHo/HIDshRimH/nw4YcssGc4K4ZhUzJzNZjMmSWbMmGH4GyVvohN6eia1plpcBokdqFirdrsdk7bpgvwuhKW/R/6XclvUkF30FM3qlWuSLlqnLXpq0qxSGfqKy+Nqw3kJMDGzUsDE6yStv8v6SOM2KYXTh0omzTo5n8yvBUh5hOh0IhJClIauk6Pe0HRZSGMVmekNThqzpGdWQ11JU2SONkSWRqy/A0USZmW5yW+SntSbTh7ynJRDrCGpy7giUpMia5GJRVnHhYWFWK1Ww1cqZZA86rLRy6rri7xD8qz/ZlGdg0mzziQWUcqX+E5JQ75L2azKOtRlH9ciGgR6xyD6Le+6mnBeArxYiBCTn0v/6ApjusAOGdcaxJIS0hEClN+EUIQESeh04wmjDP2aSTVqXVb6u9DISO6TZ+S7pCX51NOQxhrXji2dKB86ycg79SGhvCumhsVyj1mRqPy1KIsrpHZVTsyjXYXdyHus2shB0iHBfSJllvKI1Sd5iWrHBej3yz06IYqLQJen5Due4MvW09RJUK+bqwmXlStdEQQiwOTn4j4xNVSKqOVeMsTRFdOk9eTXEuKaNSL5t6mJB2mM0pD0xitldzgc2O12o7EKUQhJCJmILAXyvDRaaXwCkxqaSVygTU1UyG96fiQdnQTEByn1pNePng+BEII8r9eryEAgExRCVGgkLvqik0miTsi958tLXLPSzBP4/dAsaRk+y3NCzGKVo5GwDI11q13qy6Jm0QOBgOHfvdpw3jCYVM/ZYFKBCH9wcJDNmzcbYTD/8i//YgR4JnHxEGWQXnTjxo386Z/+qXEu8Jw5c65Zmca1IZ8QnU4YaPokjVt/1pRw7ow0amnE+nNCUBFtLauejvwvw7hEghByMmmdk6Qvv+lEZVXhIDHNwk1MT8+7EJfcI3mQPKOG3H7tOIC4FlKDJit5PqLt3izXEvM+EUQOcRXWostHOgwhR53s9LLqeZL7E4lZ5KPXgfwuOF8eP2hcKAzmfQlQKlMKZTKZGBgYYNOmTfzkJz/B5/Nx//33Jz76B4VUFBrJSP71Sr3YCpA0PmhIPq0qOLauro7XXnuNv/7rv+b+++9n3rx5htXDNRYIjbLGpFGaFBHojTSRJASJ8pbGrUP0UtfNmBq2ne/e9yMsvbHKb6YEAhSdkvfp+U9MT34TcogrQtOJAuWLRJFqUAVlW63Wc8ha0kTTWbGu5ZqUKbHsEyExD6j0hVTNylqX+86Xrl6uRJxPPonl+DBw2QSYlnJ2X7SY2t1BCjI0NMTWrVv59a9/zZEjR4zp9asJMgso5CEkI0Ggl1oBUnEfJCQfDofDsEDS09P5kz/5Ez760Y8ya9YsLBaLIV99aJREEklcHH4vAtR7hbjqbcPhMGfOnOHgwYN0dXVhUxH4f2hElRPWpLYUkmuS75jyudlUsOzF4kqVLaocx2632/ChmEwmPvKRjzBjxgxj/7mJeuwkkkji4nDZBOh2nrWiUMMvcUab1PkHPT09BNTRhFeKJC4Fug/DoY4WjCX4KaJqCdKl4EqVTQhbrNWImgwpKioiPT3duC7vTxJgEklcOi6bAJ32sw5ls5rRkWGa+Cb0oZneUP9Q0B3DNi2OS7dg45rP4lLyeyn3Xiwkb+K3EgtVZuckv2IBWrUlSUkkkcTF4bIJ0O08u4RGfFViQcVVVPzV5pyXvKFFtfMBOFyvBPmR4MgXGZPgZBeZm1TYRBJJJHFpuGwCTPW4QSMQGU6K1SLEcLUMzUwTBLeKtarjUgntUu+/WEh+ZUbPrJ0xgfbeRIJMIokkLh6XTYBpKWe33dGtFLQGKQ30ammcOlGLdSoEqJOIWFQXi0u591IhZI16jx4qcbXINYkkrmVcNgFKHKAMLSXKXBDTYqcSraw/BHRClvgqIWqJqxLL9VLI5WLvu1To1rT+jrDaPECuX6n3J5HEfwdciADPy1xiieh+wMTfo9HoOUt8/pAQQkHbMgggEAjg9Xrx+XyGZSjluZjPlUJMWx8qVjYJa2Z1v2YSSSTxweO8FqDL8dv1mnFtUbhAGu1Ev/0hEFDbeEsMYFytYRwZGWF8fBy73W6ElyRaXX8I6LITkjOrve2EfMWXeaXJOIkkrldcyAI8LwHKLPDFkNuHYaUk+sb0IW9cbZaJWleJsp66u7vZs2cPfX19FBUVsWzZMgoKCs6ZUdWJJZ6wPvNKIvG9ideYoMxJJJHEpeGyCfB8Z4J8mBBi0InJrK2XFGIQH19MnduAOtfhwIEDfP3rX+fMmTOsWLGCz3/+8yxfvpy0tLRzJkd0eL1eTCYTKSkp51xPIokkrj1ciAAvbN79gRFVm1bK9jsSdyi+SbH+xF8mpLZ9+3aefvppWlpamDJlCmNjY3z/+99n06ZNdHR0GPfp26jHYjFjt98kkkji+sdVT4BxNYsrkxwxtWKCCYaRYg2++uqrvPzyy7S3t/P444/ziU98giVLljAwMMALL7zA9u3b6ejoMNbfom35I+ty0VaXJJFEEtcnLH/31a/+U+JFAMdVsPJAJyfxRcYTtt/Wh7FDQ0McPXqUf/u3f6OpqYnZs2fzxS9+kaVLl5Kens7o6CgHDhwgqI43LCwsNPYylHRkq3Cr1WoQ5MX4QZNIIomrD8HQWWPpfLiqCRDN5ycTMha106wcCoPa/ioWi/Hee+/xt3/7tzQ0NHDHHXfwuc99jsWLF+NyuSgrK2PhwoU0Nzdz4MABgyCzsrJwu89u/hoIBHCooxCj6iyGq2HGOIkkPkyIcXExuNrbxjVPgGjDYLQZ0ZgKIpZtuV966SVeeuklzpw5w6OPPspDDz3EokWLcLvdxnbcbrebqVOnEggEaG5u5siRI2RlZZGZmUlqaioW7fAWk8l0zgYQSSSRxO8iSYAfEmTNLAk76vb397Nnzx5eeeUVWltbWbp0KU888QSLFi0iMzPTeM6izjooKirC6XTi9XrZt2+fESOYm5uL2+02VovEVKC3WJ1JJJHE7yJJgB8SItqhKxIG09/fz6FDh/iP//gPGhsbmT17tjHsTU9PJxqNEggEcDqd52wzVV5eTnZ2Ng0NDezfv5/h4WFyc3PJz8/Hqs5k0JekJQkwif8uiF/i1nZJAryCkIkJk3Z2rpBRe3s7W7du5eWXX2bv3r3cd999fOITn2Dx4sXn+AtlQkOsRkkvPT2dxYsX09zczPHjxzl58iQVFRV4PB6DMCXs5mqv5CSS+EPham8b1zQBouIAZfPVmDrXY2RkhPXr17N+/XpaWlp46KGHuO+++1iwYAFpaWlEtKMUhQzFjyhDW6vVSlZWFhkZGYRCIRobG2lqasLtdpOdnU16ejokV2EkkcT74mpvGx8oAermsV5w3WSW0BH9dwlbkWsSzydWmZCSPCc+OLRAaCGxvr4+9u7dy6uvvkpbWxszZ87kC1/4AnPmzCEtLQ1UfmToatYCpvUPanhbWlqKx+NhaGiI3bt3Ew6H8Xg8lJSUYEo4cUufiNGhl00ggdlm7dhAQeK9nGc5nJ7fiZ652pFYz+8HPbQpEaIPiXql/y7Pyr0id0lX9Od8aclvoodyTf9/ovyZEo5eEOj3J+qffNfTSHyX/sxE+ZzoN/ldIOVMhP6+xHzK/YnlisVijI2N0dPTY7QtfXQU19qsnp4OPW9M8PuVwAdKgFG1+4sISgoggcOxWIzx8fFzhqpx5U8TqyumrDg5oMikgo/9fr+xlX1MW9JmVueUyjD22LFjfOMb3+Dw4cOsWrWKL33pS8yYMQOn0wlKqPqQV2DStveXobHP58NisVBeXs706dOpqakx1g4vWLAAl8t1TghOIBAgpk7JE0jFJyqC3+83VrDIRIx+r175iUqIRh4i22vBD6kruEmtspF6Px+k7BEVgJ5Yb4BxGHqiO0KXleilpGOz2Qw9i6mIAZSuhtVRl3o9SBqhUMjQU3kupu18pBOr5EHSlAiCuCJSva1IvlB1GUsgfD09uS7pSCcsspL2FFfErstEOum4WiElv8voR+4Vohcd0/VPPqFQiFAohMPhIBQKcerUKbZt20Z2djYpKSnnrKmPRCJGm5Wy6Tqr6/hE0MvwQeKyCdCuwktE0CaNQBKFLuQQDAZxu92GAnm9Xurr66mvr2dkZISCggLq6uro6uoyLC0RjFVtYSWClGuicNFolOeee47/+I//oK6ujk9+8pM89NBDzJgxA4/Hc0kCjKgVHkKssVgMm83G/PnzAWhqauK9996joKCAzMxM3G63oTCigGgkJcrW3NzMxo0b+T//5/8wPj6Ox3N2PbUcem2z2bBarfh8PiKKHAW64unf0TZ2vZYgsunt7WXfvn2cOnWKuro6Ghoa6Orqor6+npqaGk6cOEFqaqrR+SXql9/vx6Jm8EUmUXWinlk7JNxqtRIIBDCpo0ZFXwU6qVmtVsLhsEEkQkhSR7KzEGpNuclkoru7mxMnTuD3+w3/8Pj4uJFXybtJO99F9yHL7/Jd2pREMQwODmKxWEhNTTWIT9qASXUmUj6rFp9qUuFaQvRms5mBgQFDvvF43JgA1NuX6FRMGRuhUIjKykpOnDhhxMLKx2QysWfPHrZt28apU6dYunQpqampBINB/H6/0U6lnEK2IlfpiCTPgvP9/0HisgnQYT97OLKwtq6U0pvpxCgV4HK5jPtCoRAdHR3s3r2b5uZmpk6dSmtrKyMjIwSDQcLhMGNjY4TDYWNFhiiiRU16RKNR+vr6ePfdd3nllVc4c+YMK1eu5IknnmDhwoWkpqYSUZaDrvDvB8m3NDbU7i9FRUXYbDZGRkY4duwYQ0ND2Gw2cnJySElJMRROlFkan1l1ANXV1ezatYvx8XHmzJlDQUEBMUWuolSiFJKGNEqRs7xD/1+/di1AOolAIEB9fT2/+c1vqKyspKqqiurqampra6murubo0aPG5FN2djZutxuztj2YSYv3lHoSYkAjWalL6VTkf7G4pIHq9a7rrkCv17g2xLRYLBw+fJhXXnkFt9tNenr6Ofog+QuFQkZdSrpxZfVLPmNaeFU4HObkyZP86le/wufzkZ6eTkFBAWhhX7qeSX5jyloUQtHbaCQSYXh4mJ6eHtra2khPTyctLQ2n03lOmtK2RBej0SgnTpygr6+PSZMm4Xa7DfIDqKqqYnh4mNmzZzNnzhw8Hg/mhMPb5bvkU9LV5ajr8fn+/yBx2QTodJztcQVSMFHuaMKhSCIAqwojkYofGhpi7969tLa2UlxczOjoKMFgkPHxcXp6eujt7SUajZKVlWUooFVtfBCJROjt7eXIkSP867/+Kx0dHSxatIi/+Iu/YP78+WRkZBCPxwkEAlguIVxFL4t8l2ezs7NJTU1ldHSUnTt34vV6ycrKoqSk5Jy8oSmp1WolFApRV1dHR0cHH/3oR5kyZQo2mw2fz0dqaipOp9OwQmzKEhQ5iZKIDEXuck0a2rWEcDhMMBikqamJDRs20N3dTUtLC3V1dVRXV+Pz+QyrZvHixRQVFeFyuRgfHzc6U4sKdI+rvR1lU9uYGraNj48b5CPvI2FYiqrfYDBIMBg0SFHq0mKxGNa93oADgQCBQMAgzy1btvDzn/+cKVOmUFxcTE5ODm63G7/fb3Tm+sjFbrcb5ZD8Sr7kmUAgwPHjx3n66aexKH/0lClTjPwG1KhKdMZutxNT1qXohayIMqmDs3w+n5H+0NAQ+fn55OTk4HA4GB8fN3Q2oo5hNZlMBjl2dHQQDocpKyszCC6mLLi2tjZycnJYu3YtaWlphg5brVbDiNHzJ5a1/HU4HOfoB1c7ATrUkENXCrSlaTJ8NGkrJuS7KI+QXGlpKZMmTaKmpsYwvyORCPX19XR1dWGxWJg8ebKRhlUNDfv7+9m0aRM//vGPqa6u5qGHHuKzn/0s8+fPx+VyGb2p+OouVojSg0oFo/lMbDYbeXl5zJw5k7a2Nqqrq6mrq2Pq1KlkZWXhcrkMZRfLzqx6weLiYubMmYPP5+PUqVM0Nzfj9/uJxWJGeM3g4KBxf0zr1aUxym+ipHqvfa3ApIaSLpeLoqIi1qxZwxNPPMHkyZMZGxtjaGiIv/3bv+Xv//7vefzxx5k2bRp2u52+vj4OHTpESM36x+NxHA4H0WiUnp4eKisryczMxOv10tzczPDwMG63m1gsRltbGw0NDUbcZ2pqKna7nYgKlm9oaKC9vZ2BgQGCwSApKSnndEgWzToxm8309/fT0tJCS0sLTqeTxsZGjh07xrx585gzZw7FxcUAnDp1itOnT9PT00N6ejpOp9NIT+pN9NlqteL3++nu7qa6utrI38mTJ8nOzmbWrFnMnDkTi8XCwMAAZ86coaGhgfT09HOWa1qV9TY0NERdXR2dnZ0Eg0EyMjJAi5zw+/1MmTKF/Px8zKqTaG5upra2loGBAWw2m+GyGh0dJRQK4Xa7SUtLIy0tDYfDQTgcpr293SD2sbExUlNTQW1C7Pf7aWxsJBQKkZmZSW9vL01NTfT19eF2uw15mBImfrhKCPB99wOMaxsP6AoikALpJKKbvH6/n+PHjxt+HIvFwvr163E6nRQUFHDs2DGCwSDz58/nscceM0x16TmeeeYZXnvtNerr67nvvvtYu3YtixcvJjs727AKIpGIoRwXCyEVm1rzK/nVLbFwOMzhw4dZt24dBw4cICsri8997nOsXLmSrKwsYtrQLBaLcfLkSWNINz4+TkFBgbED9YwZM5gyZQrp6en09/eTmZmJXZ2nrJOeSQ2RJA9SJiHJqx2iDyI/yXNETUrs2bOHX/3qV6xbt44f/ehHPPHEE8RiMc6cOcPGjRvZv38/NuVbc7lczJgxgz/7sz/DarWya9cufvCDH5CTk0NOTg42m43m5maKiopISUkxrCW/309ZWRmf//zncTqd7Nq1ixdeeMEgCJvNxtjYGE8++SSLFi0iNzfXsDJjsRiBQICqqiq2bt1KfX09hYWF+Hw+Tp48SXNzM5/85Cd55JFHyM7OZtu2bWzfvh2ArKwsuru7ue+++1ixYgXZ2dlGxwYQDAY5c+YMu3fvZseOHTidTjIzMxkYGGDbtm2sWLGCJ554gltuuYWamhreeecd2tvbyczMZGRkhEWLFnHzzTczY8YM/H4/27dv54033iA3N5fe3l68Xi/Z2dl87nOfw+12c+jQIV555RU+85nPsGzZMnp7e/nNb35DMBjEbrfT2dkJwK233srjjz/O2NgYzz//PD09PfzRH/0R06ZNo7+/n/3797NlyxY8Hg+hUIju7m6WLFnCHXfcwZw5c+jr6+M//uM/6OzspLCwEL/fT39/P3a7nQULFvDggw9SXl6ORTvwS/BhEODvtR9gTJvtku9ilejXo9GoYe2dPHnSmF11OBzk5uaSm5tLcXExixYtYtq0aZSWllJaWsqsWbOYN28eZWVlBkHGVajLtm3beOutt+jo6ODGG2/kiSeeYPHixb+zUalOur8PYsoXYlK+Co/Hw8qVK7nnnntYsmQJjY2NbNq0iR07dtDR0QGaBRlQs8OSRlZWFlOmTGH69OkUFxeTn59vzKQFg0GOHTtGXV0dgUDAIGNdAYQEJS/XAvklQupFdEVI3KSsGNEfr9fLu+++y65du+jt7SU/P5+UlBRaWlp44403qK6upq+vj+7ubrZt28aRI0cYGhrCbrfT3NzM+vXr2bNnDxaLBZfLRX19Pe+++y7t7e34/X78fr9htWRlZREMBtm2bRtVVVX09vb+Tqfj9/vZsGGDMTGRk5NDMBhkeHiYYDBoDOWam5v5zW9+Q0dHB06nE4/HQ2trK++99x4HDhw4RxYm5cLYv38/7733HvX19aSnp2Oz2RgdHTVGQWazme7ubl577TVqamoIh8Pk5eUxMjLCnj17eO+994jH45w6dYrdu3dz4MABHA4HKSkphEIhY8QxPj5Oa2sru3btorOzk6GhIY4fP87mzZvp6OggMzPTsKQHBgYIBAJEo1Hq6uo4cuQIXq8Xr9dLVVUVb731Fi0tLQCkpqZiNpvZtGkTu3fvpqOjg1AoRHV1Nfv27aO+vp64MkxOnz5tLE+V9K9GvO8QWIhFhpcR5VeR3l2uibleW1vLoUOHKCoqIjU1FZPJRF5eHgUFBWRlZWG321m4cCGLFi1i6tSpLFiwgBUrVjB9+nQsaqbP5/NRWVnJN7/5TY4fP87y5cv5yle+wuzZs0lJScGsObNFaeOaA/ZiIAoppCPkKYQjymixWCgqKqK0tJTx8XF27tzJqVOnSElJobS0FKuaeRwZGaGwsJD58+dz0003sWLFCqZOnUphYSH5+flkZWUZQ5b+/n7+67/+i8bGRkpKSoy8W7TZQjRClnxdSzCpIbDoSzQaxW63c/r0aQ4cOEB9fT333nsvM2bMoLOzky9/+cukp6fzuc99js9+9rM88MADBINB3nzzTexqnbbX6+Wdd97hscce43/8j//BnXfeyfDwMM3NzUyfPp1//ud/ZvHixcawdcmSJZSWllJeXs7SpUt5/PHHuemmm3A6nezZs4eioiIqKiooLy839NlsNjM6Oso3vvEN3G43n/jEJ/jsZz/L4sWL8Xq9HD16lI997GOUlpZSX1/PD3/4Q/7kT/6ERx55xFh++c4779DX18ejjz5qtBGp1x/+8Ic0Nzfz0Y9+lC984Qvcfvvt2O12Nm3axPLly5k5cyZjY2M89dRTLF++nD/+4z9m7dq1TJ06lcOHD3PkyBEefvhhXn/9dY4fP055eTlf/vKXueuuu1i5ciXz5s1j+vTpBAIBGhsbjRVSkyZNoqqqiubmZlatWsXjjz/OXXfdxdy5c5k2bRqpqalEo1G2b9/O4OAgt9xyCyaTifXr17N161Y++clP8uSTT/LQQw9xyy238Jvf/Ibe3l5SUlIoLy/n3XffxePx8Pjjj/MXf/EXTJ8+ncHBQd555x3WrFlDSUmJ4RZI1JOJ/v8gcaEh8HkZQ0hGKhHN/yczvYODg1RWVvLzn/+cb33rWzz33HMUFxfjdp89VD0UCuH1ehkZGWFkZITR0VGGhoYMZ/bY2BgDAwOMjo4Si8Xo7u7mzTff5Oc//zl1dXXcf//9fOITn2Dy5MmYtfirkNrB2Ww247iMQ47EihVIuSwWC6FQiEAgYJCixWKhpKSEz3zmM9xzzz0Eg0H+8z//k3feeYe33nqLd999l9raWrZv386GDRtYv3497733Hlu2bGHLli1s3bqVd955h/3799PY2EhbWxvd3d28/vrrfPazn+Wb3/wmr776KrW1tYZczOqQdJ2krzVEo1FsNhsej8fouFwuF5mZmTgcDgKBAKOjo4yPj2NSDnybdg6LdCitra309vYa9SW+qXg8TmZmJpMnT2bSpElG/ZlUxxhUExM+n4/Tp0/z9a9/nY9//ON89atfpb293ZgAiGsz1jJ7arFYKC4upry8HIC8vDzD7eH1euns7KS3txeAZ555hs997nN8/OMf5//+3//LqVOniKmg4bjy48rERCQSITMzk6lTp2KxWHA6neTl5TF9+nQAY2JIyP+LX/wi99xzD3/xF3/Bjh07iEQitLS04PP5jHRcLhdut5tJkyZx4403kpeXh9vtNnY1DwaDpKamsmTJEtxuN6+//jp/+qd/ymOPPca6desYGhoiPT2dsIqBFIt9cHCQkZERnE4nq1atoqioCKvVisPhMEZsPT09eL1eAoEANpuN7OxsLNpEoclkIjU19ZzIkKsN5yVAIT+xQiIqJlCu9/T0sH37dn784x/z9ttvc+DAAU6cOMHJkyd5+eWX+dnPfsYvf/lLnn32WZ5++mmefvppfvnLX/LLX/6Sn/3sZ/z4xz/ml7/8Jb/5zW947rnn+PnPf85zzz1nmP8VFRWsXr2a+fPnGxaoTkpC0GKxXYqA9XLpjUCc7+K3kf8zMjKYPn06y5cvJy8vjxMnTvDGG29QW1uL1+tlbGyM0dHRc4h+dHSUsbEx/H4/Pp+P4eFhBgcH8fl8xONxhoeHOXHiBC0tLQwODhLWAmlRFmBUOyLzWoNJW0kg8hRrXa7pcjYnhBZFVSCxWA4iF6lvuV9GKbofL658q21tbWzbto0333wTt9ttjD6ysrIgYRbfqmZ7oyrG0KRN6okVq3fCoovz5s3j9ttv57777uOTn/wkf/3Xf83DDz+MTcU1Snux2WwG0UZU2FZUTVYE1KSh5CUejzNt2jRuvfVW1q5dy6OPPsr/+l//i8985jNkZWUZ5ZaOXPI+NjZmyFPKFlazsxUVFTz88MPcd999LF++nMmTJ3PixAk2bdrEgQMHjPJJuSX/4XCYoaEhwmqiU8jdbDYbPm7A8GmatNAguV/q92rE++ZKJwpRNMHY2BhdXV00NTURVFP1fr+frq4uampqOHLkCNXV1dTU1HDs2DGOHTtGbW0tJ06coLKykgMHDnDy5EkaGho4ceIER44coa6ujsHBQaxWK/n5+YbPIaItrxOFEmWXfF4qAVo0czym+TalB0tscNIopGIHBgZwu90UFxeTlZVFfn4+hYWF53yKioqYNGkSJSUl5OTk4HK5sFgspKenM2XKFJYtW8acOXMoLS01LCMpm96Yr0UIWUQ1309EBeGKdeh2u0lJSaGoqIhIJEJjYyNnzpzh1KlTnDp1it7eXioqKsjNzTX0UK/zSCSCV535LHUk7zMrf5r43YqLi1mzZg0333yz4Z4RnbaocBvx5eXk5DA2NmZ0UFVVVbS0tBh6lpKSQnp6Oi6Xi1mzZnHXXXfxx3/8x9x777088cQTrF69+pywD4vyh+fk5BCLxairq+PMmTOcPHmSEydO0N3dTTAYxGq1GrGAs2bNYvXq1Xz84x/nscce45FHHuGOO+6gqKiI3NxcotEop0+f5tSpUzQ0NHD06FHDxyfWphCQWJWTJ0/mpptu4q677mLNmjUMDAywb98+qqqqjHyK7NLT08nJycFkMrFlyxaOHj3KqVOnqK2tpbOzk9TUVCoqKgydttvtxuywtFGTWk0ihK/jUtrrlcT51yhpiKtocv371KlTKSsr4/HHH2fHjh384he/oL29nY9+9KPccMMNpKenEwqF8Hg8hFU8lE3Nukpv41AR+1G1bVUkEuHo0aO88847/OIXvyA9PZ14PM4dd9xxDhEHVbyVbh3oRHEh4QqxWFU4AYDdfvYcZLF0detEwlqeeeYZ9u/fz+TJk/mbv/kbli1bZsxISzmiyt8l3yNqBtSkXAZVVVUUFRVx44038uCDD2K323E6nec0GPMl+DOvJuhyF5nINZ3A5Jpd7c/4+OOP8+tf/5of/OAH9Pf309HRYTjjb7vtNiZPnkxzczNoIxGRrdS71Knowvj4uNGJhsNh9u/fz/Hjx2lpaeHUqVOsWrXKsLZCoZChSzk5Odx///28/vrrfO9736Ours6YtJKOUia5SkpKeOaZZ6ipqWH27Nls3LiRG264gbvuusvQWcmj3W7nnnvuwefzsW7dOoaHhxkfH6e+vp6hoSHMZjMej4eioiLuvvtuY1b8tttuo6OjA6vVyvz58/n85z/P4sWLqamp4aWXXsKhdkNvbW2lsbGRp556ivLyctxaIHNHRwe7du3i+eefJy8vj3nz5uF2u4lEIkYHLR2vtMWMjAxmz55NUVERP/7xjzl58iR5eXk0NTUxPj7OtGnTmDFjhtG2TZpxYNXiK/UO6WrE+06CCBIJRRTbqnwCWVlZTJ8+3QhRKSwsJCMjw6gEu92Ow+HA5XIZ/0vDt9vtxv8udSKbxA81NDTQ19dHeno6mZmZhlkuVppOfhPl8XwwaT2U/r80JrluUqS1b98+nnrqKU6fPs2yZcv4y7/8S5YsWUJ2drZBotJ7mtQEgEVZjpJPyXdKSgplZWVMnz6d3NxcHA7HOfdcLzAlDH9MKiwqGo2Snp7ObbfdRnFxMbFYjIyMDEpLSw1fb0ZGBosWLTKGa2632+ggb7nlFqZOnYrb7WZsbAyn08nMmTNZsGAB8Xgcr9drPF9eXm7s85iZmcmUKVOYO3cuCxcupLy8nJKSEvLz843OXerO5XKRk5NDYWEhHo+HhQsXsnjxYubMmcOUKVMoLS2lsLCQ2bNnU1JSQnZ2Ng6Hg7y8PG666SbmzZtHeno6FovlnEkgt9tNamoq6enpRqzpwoULmTVrFlOmTKGiooKysjJKSkrIzc0lLy/PsEjnzp3LkiVLKCkpISUlhZycHMrKysjJyTHSuu2227jppptISUnB5/MBsGbNGmbMmEFGRgZ5eXkUFhaSkpKC0+lk8eLF3HHHHSxevBiLOmaisLCQOXPmkJ+fT0FBATNmzGDy5Mnk5eWRmZnJzJkzueeee1i9ejVFRUXElL+wrKyMWbNmGTPSYbW6a/Xq1RQWFp7TwX+YuNAkyPvGASZCt7L079IzioO4qKiI9PR0rCrQVAhKSCKmLTQXopJ7AoEAvb291NfX89xzz9HV1cX06dN59NFHmT17Njk5OZiVb0InPj0tQeJ3gd4rRTW/puRLnhsaGmLfvn28/fbbvPrqq6xatYpHH32UBx980LBe42qoatF2kjZrweNyj1guupUS12avhTCvJ0SUP0/Ivb+/n/b2dnp6epg3bx75+fmEQiEsFgvj4+P09fXR0tKC2+0mNzeXgoICw8Lp7e2lpqaG6dOnU1BQgMViobm5mYGBATIyMpgzZw6hUIimpiYGBwcpKSkhKyuLUChEV1cX3d3d5ObmkpGRYczc5+bmUlpaClqniArNGRwcpL+/3xiGW61WRkZGsNvtRgcfDodpaWmhv78fv9rMY+rUqeTl5RnWZURN3jidTsLhMH19fbS1tTE2NkZBQQEej4eBgQEikQgFBQWUlpZiMpk4c+YMXV1djI2N4Xa7yc/PJy8vzzAaxsfH6e7uNkJ5hBQzMzPx+Xx0dnbS2trK3LlzKSgoIBQK0dPTw+DgIOPj48RiMYqKisjLyyMtLY2xsTHa2toIBAIUFhYa7woGg7S2ttLd3U04HCYzM5PS0lLjbO3x8XFqa2sxmUyUlZWRkZFh5K29vZ05c+YYaf0hcKE4wEsiQM5DguJviKsdVlwul2F+k+C30Ru//K4Th0lZDqFQiC1btvDKK6+wa9cuHnnkEe69917jnA+ZTNAtrYksqIlIMKROfrPb7UaQtgxbZYY5FAqxf/9+nn32WXbt2kVpaSl/8zd/w80330xGRgYmFQKEmijRyyIOYyG2mPLDhNWCcOkNhWx1wkyEyHui3652SIciRC/1LOQgQyTpTGJqGZXUZUztLuRQ66jDalJE0goGg0b9S92LfkW13VisavMDeVYsFJta7O/z+XCoaIKItutMNBrF5/MZm1qIVWPWJjDs2k7j8qzkxefzYVWrpkQOUo9+tamCxWIx/H/ym7xfyiHfI5EIY2NjeDwerBNspCF5lDKjVmuIrouuyb2i62h+cZG7RRvRoE3KSX4SdTaqJuysasMF1Pr6PzQuRIAXNQTWkdgQTcqy8/v9BAIBUtXhQqKAIiy9kuR/vZIjam2iVIhNbU4gvdPmzZvxqXW1hYWFxrAlFovhdDrPyddEeUz8LvmyaDtWyLWRkREqKyv5zne+w/Hjx5k9ezZf//rXWbx4MW61/hNNUQNqLXJiI0QjfYu2JEpXEFGkxOdI6GwSy3AtQOpYGhWazMQ61EkppLZeEuteCErkYrP9doMOSVvSiyVsHSbPBNW6c7da8iWkJn5XyR+af9FmsxkTB+LYl85KiCqqfGWSD1RHKOWyam6NeEIHIKQvcjGpobeUI6Q2VZCy6O3CpZZiitGh51v0WfIX12a4dbmgdEtvm5KGLmeRtd5+pQxSTpGd6LHco8tV9Fje/WHiQkPgSyZAJiiIfJcKiGjhBfL7+wlDhKvfK1aAW+3Q3N/fT1tbmxF5n5ube07PrL8jMf3E7/r7wmrBvCjs8PAwe/fu5Wc/+xknT55k8eLFPP7449x8880G0eq9tSiSXJvoo79TFEVXVvmIbOSvDj3/1wqkEZu1HV6kceiEIr/pMhEZSeeI6jDCyumuQxqqfNDkLXKTNEwaacq9id+lLvVGredHTz+mLf63aaE4EW27s7hGIkKAFi2Ex6oC6oXERF5iFKBkI2QmMhQCM2sTTHonIOno8pU8hFQcpF5ukb9FCzOT36WM+jslLf15QVTbyV3SMf0BdPhCBPi7Y8aLhF6YiDL9HQ7HOT2DrgC6oHSIctnUZIkQH6pCxbH82GOPkZubS3V1Na+88gpVVVXGxgKiSDre77vkR3pWqVCfz8fBgwd5++232blzJ1OnTuXee+/lzjvvxK2Cu00qaFeUBDWbqb8jscLlfdJw9V45EYn55homP73M0mDimstEiAct3CiuCMGiLHOxBknY7DOu+VLR9EjeLe+02+24XC7iqhHH43HDH5XYePX82NRGFwJJX3+3TniSjhCE6KSkJ3kXXRPZxFUHGtNChvQ2IPopeZO2po8edH3S0yRBVvo79Y9Ji/3T9VLKFlVDX5ErqpxWbUutxPRMWhRETPOrX224LAtQIAro9XpBCSWo1kuKSS/KIEKQz0SQipbGIkKWeCuHw0F7ezvr1q0jHA6TkZFxztY9ooR6+hO9K66GRmNjY8bMtDh7n3rqKdavX8/UqVP50pe+xG233UZmZiYBdWi6VLpA8ik9r95IBNIbivUiiqtDVyA0EhVZXEuQcggJWDWLyqQ299StGbMKFxFLXvRKHwpb1FBQ6gDNap/oo+uD1WrF6XQSVw1aGrrkS0hG3in1I3nWG7G8M6bWgAM4VISDXmeSB0k3GAwaumJTvjH5blYGgCXBKnQ4HDi13WVisRg+n8/Iv+iFvFdIzKLtfi3vMyn/dlw7IlYg+RVIGUJqRxlUGW1qaBxU247JM0LGUu9SLvF9yvc/BC5kAf5eBIgSlgheBGlVTueA2rpHYNGGGvIRSIOR3kTSlvvD4TBut5ucnBw8Hg/Hjh1jbGyMrKwsioqKfkfAohyJ/8t3qSCTycTY2BhVVVX8wz/8A42NjSxdupTPf/7zLF261DhnxKGWX0kFi5KglhtZtFlcaTBoZRa5WDSCT0RiuSe651qA5FsnErkmMhS5iFVi0sKHRAd0kjJprod4wqSZpKv/H1Wz+9L56LJPvFeuoZFqUO3HZ0lYdRRXFmxcEbNZWXNCnHrdyfuFdOU98rzojNwrz0e1Xar1oGbRIbRJB0lTrC2ReVzbJzOuNnkQ4hS9NWlDePmuy8esiNmq9ruUMko9xVVdigyCKshd8iD5lLz/IXDFCRCl6LGEqH9RKOl99IqJasuN5BPXVnagKkN6QxGmW+3Gm5GRQXt7O11dXfT19ZGVlYXH4zHWP8rzOvTvusLJYUivvPIKe/fuZfHixdx///3ccccdZGdnn5P/REgZmcDBrL9DL2diPuR+Pa2J7r0WoZdBr1shPP13+V/koMtNh5CjOcFqIUGeJq0xy/v0hpn4Xvlffpf8Cunq9SuQfOjXpS5Nmn9M3qHfp+clkTzld528hbj0Msl9Ma0TEZno+Ufly6YsTyFPgZRbJ1W97VkSLFMh55gWyib1ppdVL0ti+T8sfCgEiBKqDPFQghcLK7HwQoB672dKCJy1qF5YF7pFLSDPycnBbrfT2trKwYMHCQaDZGVlGcvJdJxP6DHVu1ZWVvKrX/2KN954g3nz5vGpT32KO++8k5ycHCyatSaVTYIvCs06RFNsXVl1JCrKRJhIZtca9DKYVGcm13UZiIzRGqbUNRMQZ1TbLEKHyErS1glL/yv1kihj/X/Jg7xDnkn8P6xCdkQ/dWKSMksZxTqTskkehOT0a1J2Sc+p9sicCCJPkzaTHFckrHfe8r+0PblHfjOr2NqoCtoW94NeXsm7pCPvkPsS5aDXrdzzYeNCBHjJcYDnQ2JDF2WaCHoDeL/rfr/fELJu+ofDYUZGRjh06BAbNmzg9ddf58477+Sxxx5j7dq1oIalUbVbtFSYroRjY2M0NDTwT//0T1RVVVFSUsLf//3fs3TpUnJzc4mpUAZRSlEyPZ+CxHIk8bvQ6zaxnie6J/FaIhKffT9MlO4HAV0n5LtgIp2Z6P3vl7e4RlKJuJA8z/c+Jshn4vWJ0rzQdx3v99uHjQ88DvB8MCX0+O+H892TeF1PT4hI/neqpXNubUv0rq4ubGpLe+k19edQvbbX6+XQoUN897vfNXx+n/70p1m5cqWxpU88YZhxvnxNVI4kfhe6rM4nt4muJ8p6onsuhMt55mKQmGZi/vTfE+8VvF/eLva3ie5L/K4jMZ+J1xP/v5jvOt7vtw8bF7IAf7druYogJnciTCoUpaCggCVLlvDoo49SVFREQ0MDL7/8MpWVlQwPDxtEFlI7UqB2sdm3bx+vvfYaW7dupby8nHvvvZe77rrL2GrdpPmCrpaKTCKJJD54fGAW4JVAYo+DMq9lVsxms5GWlsakSZMwmUy0t7ezefNmYrEYubm5TJo0ibgK0xGfxenTp/nRj37EG2+8QVlZGX/+53/ObbfdRnZ2NqFQyBgii09jouFHEkkkcW3gQhbgVU2AOmQYGlXbYYmTVqy1goICcnJyCIVCHDhwgJGREVJTUykvL8fhcBhnHHznO9+hrq6ORYsW8Y//+I/ceOONxpZJMmyOqYj6xKFvEkkkcW3huiJANMewXBOSkk0qMzIyaGtrM3a+yMjIwGq1Ul1dzXPPPce+fftYtGgRjz32GGvWrCEtLc2w9GzafoUy25UkwCSSuHZxzROgEJD+V4apiZMcHo/H2E6ovb2dkydPMjIyYhxo9Nprr1FSUsInP/lJ7r33XlJSUohrOwLLDDMJoS1JEkwiiWsTFyLADywM5g+NmBZ0Gg6HWb9+PS+++CI7duwwZnOLior42te+xvLly8nJySGszkuwqDitsbExHA4HDrU1ksRxJf2ASSRxbeJCYTDXTMvWh75oQbEyuRHV1htbLBaWLVvGY489xpIlS3A4HCxZssSI88vIyMCsFsqbtaU/Ho/HCKTWd8tIIokkrk9c1RagkJ4QlE5IQnioVSeyCkWGxGazmd7eXjZv3syxY8eYPn06Dz/8MGlpaZhUoKf4EOPajh6SflxbxJ9EEklcm7iQBXhVE2BM21JJ9/ehLadDrTeW3UQikcjv7A4jYTA2dRKZLPkR35+8KxgMYlbhL4lLra4UdNJNRNIHmUQSvx8umwA9rrNbf6PIRmZFP2zow179/YnXdWtRJ0q0tbtiGSZalZKeTjgfRlnjapskWU8q16Q8Eu8olmoSSVzLSGyzHwZ+LwKUIaYeEhJP2ADywyKL6w0is3DC+SECkbPINynjJK51XI0EeF6zQp9kSLSo9KGpXqg/JHQL8GI+f2hIPsTPqOdJ/k8c9ieRRBIfLM5rAVrNZxulRW1BhdZozdrZCLrV8ofEpZDa1UAoUbU7jWwZpkM6F6t2XkbiPUkkca1Bb6Mflj5fyAI8LwF6XGdJTx+CRdTJUbLVNVcRAV5r0DsTFCEGAgFs2slniafdJZHE1YZLMTx0fFh6fSECPO8QWFZaoPxUQnh6xuPa9t5JXBpMyu+nuxFkuKtPeog1mEQSSXzwOK8FmOo5ewpaVO1YK1ZgXAUdoznqk/Fylw6RZUQ7uEa24hJCFPmibW2eRBJXEy7X+Pmw+OJCFuB5CdDt/O1aWIvFQldXF2NjY/j9fgYHB42DpS3a8ZBJXDyE3MLhMDabjezsbCoqKkDzD5q0LeM/LIX5Q+BS9OdqkMOl5PdScDWU7VJxKaMTvXwfVll/LwIUhMNhXn75ZQ4fPkxHR4exuahFnVKVHAZfHoQE7XY7y5Yt44tf/KJh6cXULLy+Lf/1ikvRnatBDpeS30vF1VC+i0X8EiMqrjkClEwGAgG+9a1vsX79enp6eliwYIHB/DabzdibL4mLh0ntbdjf3093dzcrV67khRdewJZwfKLpv0Eg9KXozofVcN4Pl5LfS8XVUL6LxXVNgA7bb0+7CofDfOMb32Dr1q14PB6+9a1vGYcNOZ3Oq4YAL1aoV0NeLRYLfr+fbdu28cILL1BQUMAbb7xh5E3KEr2GdqSJv8+yvvfDpdTH5aR/qbhQOS4lv5eK93vv1YY/BAFeqG4ScdkEmOI+S3Cog76/9a1vsWXLFtLS0vjZz35GRkaG0TAvVRBXChcrmKshrwAjIyNs3LiRZ555hszMTF5//XXQyiFyNV3hlSDi0tAnWs73bj3+M5GsfT4fZrMZh8NhBNCLfpi0oxQT4xuF5E3aSWpRtdmFPsGm6+NE4VgxbeWMQGbRI5GIYV1HE5Z2xhNW3YyPj2Oz2YwYTV0+uu6Y1NZrJm1GX45VcDgc+P1+rOp4WMlLVC0ukLXmUbUHpexGHldn2IjxIZB17mZtL0xdHiLX88lOh5RXd62InOIJR2GiyhkIBEDtkxkKhUCLFAkGg5hMpnOOpI2qyVPZbi6m/N16+iK3eDxu+MJN2hG0ur6IbKPRKG63e8JyTYTLJsC0FI9R2eFwmKeeeootW7aQkZHBL3/5S7KzsxMfSeISEIvFGBoaYv369Tz99NOkp6fz2muvGY1Q7pH/L7bCLwXSEIR09HeJwklDlAbh9/uNBiCjAGlMQnp2u90gSklXGmUkEsHv92Oz2XA4HNjtdsbGxrBYLMakmp43IYVwOIzf78ftdhtkI+80qckiaVwmjbTk/SJLaXCSH/lYtfN9A4GA0Uhlll4gpCLy0Ru3kKxNHeMaDocNkgirM4QTyTai9qEUwpVOKK4ZFYlkJOUQOehlE9IwmUwGcUhZpcMQuZq0qA4pp7xL/x0tFM6kSF/kJfUcU3UbCARISUnB4XAYHZXFYmF0dJQNGzbgcrmYMmUK8+fPx6TpeSIBysesOpO4cglFo1Ecjt+65y6ECxHg1T+uSuKKQYhFSEOUThqfNOpgMMjw8DCnTp2isrKSffv2sXv3bo4dO0ZraytjY2NElVVjt9uNBiiNXZTX7/fT3d3N3r17aWlpwev14vV6OXr0KCdPnqS/v9/Il54Pv99Pa2srO3fupKOjg0Ag8Dv3SEOV5yNqdyBpRGJxibUUVYHnvb29HDp0iJaWFqMcDofDaNxyNrVJI3FUoxVrr6+vjyNHjnDo0CGGhoYMIhIijCurLq6sGZs6TNzv99PR0cHBgwfZs2cPdXV1jI6OgmZByYmGJnUImJCEXn6zsgqFUONqBZeQknzkGSEt/XskEjmnbLpMJT0pl0DSt6hztmtrazl8+DA9PT0GIYdCIcbHx2lra+PVV19lz549dHZ2GgQu6etkHle6J2Qu+bJarR/44oCL2hI/Fouxa9cumpqacDqdPPjgg7jdZ+MEk7g8xONxAoEAp06doqqqCqfTyRNPPIFJs8Sk4XGFLEBdgc3avojyLum9h4aGOHz4MP/yL//CT3/6U371q1/x9ttvs3v3bmKxGKWlpeTn55/TMMPqaAF5j81mo6Ojg82bN/PUU0+Rk5NDYWEhPT09fPnLX6a2tpb09HSmT59uNBoZQra3t/P222/zla98haKiIjIyMowzocVqkwYnZG5V0QlSHrPZjN/vx+fzEYlEcDqdRCIRqqur+fznP08wGCQzM9OwXsQSE0KU4XMgEMCkjmUVi/Xtt9/m29/+Nm+88QYlJSWUl5cbQz9dJvIdZWHV1dXxwgsv8JWvfIXXX38dv9/P1KlTcTqdxrnXMgwXQrIYFnKMaPQsuUuZUQQv34PBoPFeh8NxDlHKcNKkiFUstmAwaBAfSu+EyGKxmJGncDhMKBTC4/FgMpk4cOAATz/9NDt27GDSpElUVFTg8/mw2+309fVx8uRJent7efDBB7npppsMt4BJWe+WhCGvjA7MygrX6/FScKEt8S8ttSSuK5iVZSSNR5RLLB2n04nNZqOlpYWtW7fS1NTEzTffzBe+8AU+/elPk5aWxq5du3j11VcZHx83GmlU26lbyEgamsViYXBwkJGREeLxOKWlpfyv//W/+PjHP86sWbMMRXc6naSmphpDSbEWbTYbKSkpuFwu4z26lSNWhL7NmDRoh8OBy+XCooakYuGOjIwY98s5MYFAgHA4jMvlIhAI4PV6iUQiRnpiXYbDYZYuXcqXv/xlvvrVr7Js2TI8Hg9W7UhVIUyz2Uw4HDZI+MyZM7S1tVFQUMCf//mf88gjj1BQUEBKSorR8MPa6YdCfmdPRfxtxyX5ECtTnhNikXyMjY0Ze17a7XbDwjRpbgKpN50sRX5yn5TH6Ty7ZV40GqWsrIxHHnmEz372s8yePZt4PG6QZW5uLkuXLuUzn/kM8+fPx2634/f7CQQCRNSw1ufzGe8aHx835C3v0+s5GAwada2T9eUgaQH+gSCN7A9pAZpUjyqKF1NDDXmvDBsrKyvZtm0bfX193Hrrrdx6663MnTsXl8tFSkoKubm5LFy4EIvFQnd3N5WVlezfv5+amhra2trw+/2kpqYSiURobW1lw4YNLFmyhLlz55KRkcGpU6dwOBzk5+eTkZFBX18fdXV17N+/n+PHj9PT00NraysHDx5k7dq1zJw5E7vdTm1tLYcOHeLIkSOcOHGCwcFBrFYrHo/HsF6lfGazGZ/PR2trK3v37qWyspLu7m76+/t59913mT9/PvPnz6e4uJiRkRFOnDjBwYMHqa6uZmhoCJPJRGpq6jmkIBbU0NAQfX19RCIRysvLMZlM1NbWUl9fT1dXF62trcbQLxwO43A46O/vZ9OmTezbt49QKMTMmTOZPn06xcXF+P1+ampqOHToENXV1XR1dRGJRAyraHR0lJMnT7J3714GBgY4duwYTU1NOBwOdu3axZkzZxgbG+PkyZMcPXqU7u5uXC4XTU1NHD16lNraWnw+Hza1QTBAS0sLBw8eZP/+/Zw4cYLe3l4ikQgulwurcgf09PRw5MgRjhw5Qm1tLd3d3bjdbmw2m7FAIhQKkZ2dTXp6OgA9PT3U1tZSU1PD4OAgPp+PWCxm6MPp06c5evQoZ86cobu726jTgYEBzGazQaKir3HlTtDr9v3axoUswCQB/oFwNRAgWrrSw5q1IZVJ9bynTp2ipqaGkZERCgoKjEPnly9fzq233sqyZctwOByEw2H279/Pz3/+c37961+zceNGqqqqGBoaYvr06TgcDtra2njnnXdYtmwZs2fPJhwO85d/+Ze0trZSWlpKRUUFBw4c4Fe/+hU/+tGP2LZtG1Hlrzt69Ch33HEHFRUV+P1+nnvuOX7961/z2muvsWvXLtra2sjIyKCkpASHw2FYk2K1NTQ0sH79ev7t3/6N9evX09fXRzQa5eDBgyxYsIC5c+eSk5PD8ePHefPNN/n1r3/NK6+8YhB4fn6+MRxGxcc6HA7Wr1/Pd77zHTZv3sz8+fOJRCI8++yzvPPOO4bs/vVf/5Xa2lpsNhsVFRXU19fz1ltvsXfvXoaHh6mpqSErK4s5c+ZQU1PDiy++yEsvvcTGjRs5ffo04XCY1NRUcnJyGBwc5KWXXuJrX/sa/f39bNiwgRMnTlBaWsrXv/51Kisr8Xq9bNiwgeeff566ujpyc3Oprq7mxRdf5NVXX2VgYIBp06ZRWFjI+Pg469ev59lnn+X5559n69at1NTUEI/HKS4uJj09ndHRUfbt28d//ud/8vLLL7Nx40bq6+spLi4mNzeXpqYmXnjhBd5++22Ki4uZMmUKg4OD7Ny5k2effZaf/OQnbN++nba2NhwOBzNmzCAej/Pmm2/yX//1Xxw/fpwTJ07w3nvv8frrr9Pe3o7b7SY3N5esrCxjFBFTbhvd9fF+SBLgVYqrhQDReta45uyOa7tVu1wuzGYz7777LseOHWPHjh1s3ryZ8fFxYrEYDoeDjIwM2tvbOXjwIKdPn+Yv//IvWbVqFRaLhR07djB9+nSjIW3YsIGVK1eyePFiUlJSeOWVV3A6nZSXl5Obm8tPfvITWlpauP322/nzP/9znE4nx48fp6mpiYceeojS0lK6u7t58803ufnmm3niiSe44YYbePfddwEoKyujqKgIq5oFDQQCxGIxnn76aV577TWKior41Kc+xfTp02lra+PYsWOsWrWKefPmEYlE+Md//Eei0SgPPPAATz75JJ2dnZw8eZKenh7mzJmD2+02LGaz2czp06dpbGzEbrdz6623YjKZ2LZtG3V1dUyfPp0777yTm266iRMnTtDd3U1aWho33HADwWAQr9eL2WzmK1/5CnfccQc9PT089dRTZGZmsmbNGu6++26sViuHDx+mqqqKRYsWEY1GOXbsGIcOHeKGG27grrvuYu3atWRlZbFlyxYGBgbIzs7mySefxOPx0NrayubNm1mwYAELFy40Qq4mT55MTk4OgUCA119/ndLSUh577DE+9alPsXPnTqPDKy0t5aWXXmLr1q2kpqby2GOPMWPGDMxmM11dXZSUlDAyMkJNTQ1jY2OsWLGCvLw8du3axdNPP43D4eBTn/oUTzzxBF1dXdTW1tLX10dFRQVdXV0cO3aMqqoqbr75Zu644w7mzZvHpk2bsFqtTJo0iZKSknP036yOrTBfhD/wQgR44RSS+G8BUSodUTXjl52dzY033siXvvQl7r77biZNmsTg4CBvvvkmP/vZz3jllVcYGBjA7XazcOFC7r33XoqLi3G5XASDQdra2hgYGGB0dBS/349Z+a3E/xNVsV1Op5PTp09z+vRp0tPTefDBB1m1ahULFy6ktLTUUHibzcakSZN4+OGHWbRoEenp6YRVmEx3dzft7e2gOm5BZ2cnra2tmM1m1q5dy+23386qVauYO3eu0Zj8fj/Nzc00NTXR1dXF8PAwQ0NDjI6O0tDQwI4dOxgaGiKiQmxkYiSuhenI0NvhcJCamsrkyZNZunQpt99+OykpKYyOjuL1enG73WRlZZGdnU1qaiozZ87EbDZTVVVFfX095eXl3HrrraxYsYKPfexjZGRk0NTURG9vLz6fj7jaLm3y5MksWLDAGL7bbDYyMjKYOXMmixcvZtasWWRkZDA2NsaMGTNYuXIlc+bMYWBggMHBQYLBIOnp6dx5552sWLGCsrIy3G43gUCAgYEBBgYGiMVi1NbWcubMGSoqKlixYgX33nuvUT95eXmGf1eGzH19fWzbtg2TycTixYtZu3YtN954I8uXL8fj8bB582ba2tqIRCKkpaVRUFDAggULWLVqFcuWLSMSiRi+YpmwEZ+fbg3qdXw5SBJgEoYSiZNdtwZDoRDDw8MAPPHEE/zJn/wJf/RHf8SaNWuwWq0cPHiQDRs20NPTQygUIjU1laysLNra2uju7sbr9eLz+Qyi0536MrQNq0Bgh8NBV1cXXq+XvLw8li5dSlZWFqWlpYZvTdIwm82Gv+zMmTN0dHQQU5MBQkRCVBY1k+33+8nOzmblypWUlJQwefJkZsyYYfiYxsfHDT+dz+ejp6eHlpYWg6zMamIiooWaCJmHQiH8fj8xNePt8XjIycmhqKiI4uJiCgoKcKh4NmnIqI7HonYDGh0d5cyZMwQCASZNmsTUqVPJy8tj4cKFFBQUEA6HjQmbeDyO3W6noKCA7OxsPB6PESCcm5vLrFmzyMnJISsri7S0NDweD2VlZUyePJn8/HwsKm4ypmaJc3JyCAaDtLa20tzcTCAQIKpCcSKRCP39/fj9fiZNmkReXh5z587ltttu44477qC4uNiY5BEdGh4epra2lqKiIubPn8/UqVPJyMhg9uzZ5ObmGn7GYDCIy+Vi8uTJTJkyhdLSUnJycoyJIOmEdbKTTkfkKLK8HCQJMAlCoRBhFbYS15z7LpeLkZER9uzZw/PPP8+RI0coKyvj05/+NN/+9rf5zne+w0033YTX66W/v5+9e/fyr//6r3zxi19k69atRKNR8vLyjLQyMjJIS0sjrGZXZYYVFWAtAdFxNQvpcrkMpRfyA+jq6uKtt97if/yP/8F//ud/cvr0aTIyMozGlJ2dTTAYBG2PxZSUFGKxmGGBRqNRgsEgoVAIhwpnCYfDjI2NEQqFDH+cDDE/85nP8D//5/+koKDAyIvIymq14na7jbAcHdJQw2rWORAInDPjqc/EOp1OPB4PkUjEuOZ2uxkfH8fn8xnPy3BQfLYWtRqjo6ODoFqVIemLv3JkZAS/imm0qbAXi8WCz+ejpqaGz372s3zta1/j3XffJaDiLC3KxzY2NkZE27ZN6sSm4hITOwHRJbPZbEQSSPlCoZBhBQuRnZ3VPtsxCqllZGSQmpqKUwsHEnKVsqEFbF8u3pcARZDyQbMOJAO/D/teKcS0ANDEayJkvfeQa2KlXKhM+nMTpaHfF9VM90RIw5BnEuUs6U307AcByZ80WiEHcTCjlDgQCHDixAmeeuopnn76aTZs2MCOHTt48803qa+vx2KxkJ6eTnNzM83Nzbjdbu6//37KysoIqF2unc6zh2zJ8M2vVpQ4nU6sapLC5XKxYMECcnJyaGpq4rXXXjOCjPfv349NBVoPDw/T1NQEwNKlS1mxYgVpaWmYVZhJWM20ylBJyDQ1NZWhoSFefPFF2traqK6uZtOmTYTVcrbMzEzmzp1LSkoKFosFj8fDtGnTcDqd2O12srOzjZlYIQKpo5haaaGTqzxnVmEnFrV7kl0Fi8e18BaTstymTJmC1WqlpqaGI0eO0N/fz6FDh+jq6iIjI4O5c+eSmppq1J/ouMPhICUlBY/HY5C5PlR3qqV2ERVGIp3c0NAQ9fX1eL1ebrzxRh588EGmT59OSkqKIbv09HSKi4uJRqO899579PT0cPz4cV5++WW+853vUF9fT0Rbnmi328nMzGTOnDnU1tayY8cOI2heZq7vueceysvLSU9PNyas9LYiZCodGVrUAor4hHh/H7wvAV5LEGXUyWainkG/TyBEIJUoFaGndSnQK1JITQhNIIovjRSN9OQ+nRCvJESZ0N4ZU+TscrkoKytj2rRpjI6OsmPHDn7zm9/wm9/8hr1795KTk8Ntt91Gfn4+kyZNIjMzk0AgwOHDhw0fj8lkMnp9IfTx8XGDHKUhm81mCgoKWLFiBS6Xi3Xr1vH000+zd+9eBgcHiStfm9vtprCwEJfLRWdnJw0NDfT29mJT4Rj9/f0GGYrlkp6ezo033sjUqVPZsmULv/zlL9m6dSt9fX2EVOC12Wxm6tSp3HnnndhsNt577z3WrVvHO++8w4kTJwx5iaykbF6vl87OTvr7+wmqGLXx8XGGh4eNYXFULROMK4tH9CwQCBh+xczMTObNm8fdd9/N0NAQr7/+Os899xybNm0iJSWFNWvWUFRURFQNTW02GyEVoGzSVqoIeQiRyD2iX5KXqOr8MjMzKSgowOv10tjYSGdnJ2lpaUSjUVpbW7HZbKxatYrFixfT3d3Nyy+/zC9+8Qs2bNhgxBbKO4eHhxkeHiY1NZW77rqLiooKmpubee6553j22Wc5ceIEhYWFPProo0ZZRkdHz7FyUbGOXq+X8fFxwzoU3RRD5oNoG9cNAQqJ6cQjCiffxaoR6OQkyqH/n0iA8tv5vss7Rcn0SktMH0U8YqnEEwKI4wmLxq8EJL9oeRHyE0vB4/GwaNEiHnnkEe655x5MJhPHjh2jsrISgI9+9KN8+tOfJj8/n1WrVrFy5UrS0tJ46aWXaGxsJCcnh7KyMqORpKWlMXnyZDyes2vNdT+WWEx33303S5cupbm5mV//+tf09vZSUVFBaWkpVquVkpISbr75ZqZPn05DQwN79+5lZGSEiooKMjIyDNKRdwoB3nnnndx9990Eg0HeeustGhsbmTJlCsXFxTjUSon8/Hz+5E/+hOLiYrZt28bPf/5z1q9fz6lTpwyd0D96/chkis1mIzU11Rh+RpXfsqCggIKCAuO62+02VrWYzWY8Hg+zZs3ir/7qrygsLOTIkSO8/PLLNDQ0sHjxYv7oj/7IGCKnpKQY1qnoeSQSITs7m4yMDGxqUkLyIn4/wHg2LS2N/Px8li5dyqpVq+jr6+Pdd9+lrq6OadOmkZubS39/P/F4nNtvv52HH36Y8vJyNmzYYIQR3XLLLUaYSlpaGna7nUAggNvt/v+3993hcV3Xnb/pFTMAZga9EY0gilhAgiQoNkmUKNmWTBXLsuxVbH9Z18T22t7E9iZx4pZo13FkK4m18cqRZDuSLFqFpCiRFEmxV5AACYJEIXrHADOYXt/+wXuuL54BNokSCL7f980HzLz37rv1d88599xz8ZGPfASPPvooX51+7bXXoFarsWrVKtx7771wOBx8XNpsNt7vdDodMjIyeDlEAgSbeJKCPfC94LLBEAgxFgxh586dsNvtPBgCDewbNUCvBSIRib/RbCcSIkEli0Qif1b8Tez0lAalKf6lOhHJWCesFqrYNqRkMonJyUm89dZb+NWvfoXU1NQ/CYZAM516mhXa9xPUmSAYmIkATSYTwHzeJiYmuB0qFAohNTUVqamp3C1ExSKpeL1eJJlKmEgk4PF4kJOTA6vVing8jv7+fqSnp8Nut0OlUqGjowMmk4kbvycmJqYsnBA50TuJPMn5WMu2TgWFaDQWi4XbuSBEkAmFQnwXCqmzXq8XNpsNNpuN26ncbje8Xi/UzMZGKiZJRtSuVL6JiQlIkoSsrCyo1WqMjY1BpVJxuyeY7ZLIy2KxIBwOc0nY5XJxVRBsEYHskRaLhX9MbGXd6/XC5/PB5XJx9VqlUmFkZAQqZvMk8ggGg1PeEQ6H0d/fD7vdzlVmn8+HMFv4IOIk9bOwsBAJJq1S+wKA0WjkCyyxWAyTk5OIxWL8N4m5egWDQYRCIYCp41arFampqQCA0dFRuN1uaDQaZGVlQc92iXi9XmiYGYLupbGRvIYgIVcKhnBFAqTB8MMf/nAKATqdTn79SpkQcS33YgZimw4qYYVQxZxfRcKj90aYb5uG7T2kyiQCk6cJIQ/yv2IjUMNQeuKzakEdowGlVqsxOTn5J9FgKD2aDdVMClS/x5luOkiC/VLMM12jyYH+j7HVWjXbG0p1Ji8rkXWYbXXSsaAACWZmIOlEYioalRcAJ03Kk46pyFSvMbYCrGGG/4SwCCEx9TLOjhvVMj/AGIteIraxOIiofBDCfNE1SgtMkhPzYmDO3ypBko4KQQ+0Wi2ibIGJykxERe1LkxzZCiXWt9RCcACqA7C+EWN2TkmSYGb+uOIkRuWJRqN8Aoswm6Q4IcjbXCyz2Fcpv0mZvZPaCiy/VAfiuKL3ScL2QbF+6b30Hknoj9T/dGwRhZ6hNqBnLzc2rkSAMz85zYD/oHE976UKpEqkhqHKpUakhqNn4mzlLRqN8pnO4/FgfHwcbrcbY2Nj/EM+VB6PB36/HyG2rzEq+CtRo4odgDqR2FmojNTA1Mhi3i/XwO8VNKjB3inWHalqdF0tELlouAab2cEGD5EQPUPlorTFyYnqiq7HBS9/up/qjciC8kT3U56oDJR3iREBPSN/Ls6kwpgQeUTME+WdykjETu+gd1LexPTFfFL+qYxEBJQHsWxif1EzdVqSETLlRyULakDlpT5I76Y6onTpnWIZiaipf1IZVMLkRM9TXuT5pb/0bqo7yo/YfmKd0TihNtDK4i6KaYtlEz/Xi8tKgJRwbBoV+IOQAK+lYNQBJOGsXcyQP7IRmUwmSKxDEvFJTCoJBAIYHx/nUow4YMAGvNlshtVqhdVq5cv15NAr5oFmN7HjxONxjI6OYtu2bXjuuefgcDjw+uuv82c+CCSZwVyUPkQCl0seAHjIKofDgSizr4nqeTAY5I6+tPLr8/lgs9k4SRISgiuKkblLhEKhKSvDIjEl2Coj5UUtBAyIx+Mwm81TBqSoEoeZu42WhaMKBAKcAMLMZmUQAnqKCIVCUDGJj94dY6YAg8GASCSCSCTC7X5ULhMLvCAiyhYLVGyC1DFXkomJCeiYvQ5CkFoNW9Gl9waDQZjZ/ts4cxY2GAz8Nyon9b+kQL4ksZLkTDZXAPz91OZGoxEJmcQu9mEiUbGP0PsIElOBqc4jkQgMgs07wvwZ1UxrIDWZ7pGPW2pn6pvyup0OV5IAr5oA5Sqwy+UCrpGkcI1GS+r4VwNqHEkgPLHxaaZLJpPweDwYHh5GX18fLly4gK6uLu75T5IcDSxKl2YyyhN1YGpc6iB6vR4ZGRncAZb2t+bm5nJnWuqkwWAQ27Zt4zZAOQGKZbkRkNhsTXVDv9FMTWVXMylUYpOFSthfKw4EtbAApGKqmsTUOwiDxmw282s6wZ1EEmZ/+k0vcxkJsRBZREZ0b0KIQA2mftNvlDcxr1Q26hNEODTwKB16N01+ZKNKJBJISUmZkgc1k5ApHbGuqP4koT+L9ev3+5FkTsnUn+i9lCd6VhIkPS2Tlqn/JYRYf+FwmNsHJSGIAH0PBoPQaDQwm828zVTC5JJgk6GWmS+SjNwoT2oWYMIghAuTGLFR21H5qJ7pQ++j/NN1ejflg8pKZEd1QPVBBE33y/GeCVBinV4uAV4vAYqVfCXIO8zlQOlKbKBIrFNGo1GMjo6iv78fPT09GBoa4qrt0NAQhoaGEA6HoWHbePQszpvRaORSDHUijeAuEmcBPsnAS2ofSQZJtkfWZrPB5XLB4XDA6XQiNzcX2dnZyM7OhsFgwO7du3lI/M2bN/MOTO+5lvq6HsjrlzoidXjx/SJ5UOej+qbOnxQWfui6nkUipgmEJDKqIw3zT6OOTulLjBApn0lGVEQSlD+6Lj5PBKuSxZuj+gWTrrRC1GTKryjpQVD9Y8y/MCrExkvKTBpEgFQmSQgtRVAx9VnsTyHmtkKDn+6nMtLvREzTkTldo7zHWEgslUA+9E6a5GkyoX6QZDZTKhPllf6XGHEa2AISjR1Kl+qK2o6eSwoBZOm7WCbKM7UFlYvanNo7ITtqQbx3OtxwAhQ74dWAGutqQO+/WtAgCQaDCAQCmJycxPj4OFpbW9HY2MjD7qiYOqBWq2E2m5GTk4Pi4mIUFRXB6XQiLS0NaWlpfMXRZDLBYDBw0RzMqOz1ejExMQG32w2/349wOAyfz4f29vYp+0lpFU6v16OoqAg1NTUoKytDWloazp07h+3btyMvLw8vv/wyosyILnaqq62v6wXVM72X6pEGE3U0iZGZhkUbDgvqDfWTGLMjWSwW3klp4BHUbEU3KYSiF99B0gQNAHEAUbvR+2iAQ9gZIZImQSxHnJkzdMyxmt4RZ/ZLM9tSJsm0Caof+o0mCXon3Z8UyIaeo+sEcTGOyqJmREkkTWOFBr1IZpRWUlgMoPfRd7UgxSUFsoyzydvE9u1SG1GZiNRIEg0Gg9xEkUgk4Pf7uaAAYdxBcAWi3wmJRAKBQAAmk4n3F8of/U95o4lGLewwMbCArTEhHD/1A6qn6XDdBJhiubSqhhlsgLONAGPMjkdx0I4ePYojR46gqakJgUAAWq0W6enpKC0txdKlS1FTU4OCggK4XC5uq6HOrBNCj6tlCxbU0FTxEAZHOBzmdo4k23Y1OTmJgYEBdHd348KFCzh9+jQuXLiAyclJ6Nie0fHxcaxduxavv/76lAUEPVvJvNr6ei+gMlCnAmsrApWXBqc4cCRhgNOAo8FCg1fLIjTHWTRmSpPeSYNUyyQyCHuT5feKv4l5pOeoj5EERsRB708w1ZEGOIQzLyivVFZxQtKzSMga2eKWSiBXqr84k/Aof1RGyFaaaYBTnlWCeSHBFmiIaOjZKDuTRd43KP8Saz8iGPo/KUjhakao9B7q71TPVH4qO4QFLpPJxMkIwtkwNAHR/fS8CCpbLBaDntmeRdD7qSxEuCksFiP9TuWmvM6E6yZAneaP5yj4/X48++yz2LJlCzo7O7F8+XIUFRWhoKCAb7BOS0vjiwKUQapcCDPS5TI7E8TORRUWY35H4+PjmJiYQEtLC/di7+vrw+TkJNRqNbKzs1FWVsbDtqempiIzM5P7nJFrAFU6hLzKK5cah0AdlkADnuqNOnAwGITP5+OBM8fHx9HZ2Ynz589jYGAA58+fx+LFi/HSSy/xTk3vEmfUGwkqF72b/peD6ojyJL+X8k0DjuqQvhPJEei6+Jw8zauFvG3khEjvp/eI/VH8XSyL2H9pAMrbnUDX6H+x3WaqV4n1O/E3eo7yK04E05WLINYlXZf/Tx+VzGwhvoMgtgkE9ZQmKcoHEb28fPSd3ideo/qZrh7pOfo/LtgcxbSuBtdNgBrVpdUYMGP9oUOHcOjQITQ1NWGcRd41mUyw2WwoLi6G0+mEw+HgJJOSkgKz2Qw98xfSs/2T07H+TAgGg9xWEQqFEGIb5r1eL8bHxzE6Oorh4WG+qEGhcwwGA1wuF+bNm4fq6mpUVFQgJyeHG62p898IyBtvuv/BwjM1Nzejra2NR8349re/PUXFE2fvG5VfBQrmMq6bAI36S86rNOOQFON2u9HZ2clVzMbGRiTYknpqaipyc3NRWFiIwsJCHgaIDpsxGo2w2+1cQroSenp64PF4EI1GMTExgZ6eHnR0dKC1tRV9fX3weDyIsDMOFi9ejNtuuw3z58/HokWLUFJSAofDATWXPBJIJv84898oQpET3eVIkOrV4/FArVYjPz9/yn0q5p8Fpg4rUKDg2nDdBJhi+WPE54SwQiaxZW4KgTQ4OAifz8fPbWhvb+cqaJLZgshgqtfrp+yRvBKGhoYQYIftxJn/D22Zohhx+fn5yMjIQFZWFt+WRau3ctWBSO9aROhrhZzk5L+J5EaTC5WNDPJUz2J+b2SeFSiYq7huArSaLxk2wQataHcg3T3Ggk+G2T5RcjcZGRmB1+vlq7EU1SEsxDK7GuhY3DKTyQSLxYKUlBSkpqbC5XIhKysLGRkZcDqdPG4Y2ZakaewE9J3sLTdKAiTIiVD+nfIjGoqJ9Oga2T6ms88oUKDgyrhuArSYLu1mEIljOqMnfeg6DeYE84b3er18CxkFZaR0roSMjAykpaXBZrNxuyIRHUlFlEe5lDWd1CQJq3M3mgAxDemJ30WSE6U+WpmUBEdWcdFAgQIFV4/rJsAUyyVfqMtBJD/xLxGTSE70mW5pfCaoZPtpKS1SydVC8E5xwUDMN+Xnw4K8rPRdJOjp6g5spfuDWgVWoGAu4roJUK+95CVP0h6EgSqqw3JJiwYx/SaX9uT3Xy3ITkYfkViiLDgkEWWMeaKrmU8fWL7ILUXHopN8UJCTIAQnWp2waV90oaH8X299KVCg4MoEOKNoIRIYOY+KA1lOenRtOqmProkEdjUfIlsiC/EdJBnKn5HnR4R4zweJ6d4p5pUgCX5cycv4mylQoOD9wYwSoM1q4QQkeniLBnkaqNP5q4kkJEqR1wLac0lEQOmLKiG9Zzryo2dmC6YjZfpNEhw+qV7JO1+BAgXXhytJgJclQMgGrTgYiRyJfIhsppNs5OQ0HRFMh+kkIHlaomSokoW9F++Vp/NhgfJKEweRHKnnSbZTQiE/BQreO94zAc4EOZFNR1bT4WrJDzOojgRKR8wHkfDNACJuImxJWCAiIhfLdbm6UKBAwfS4EgFeN1sQ2dDngx6gRAqian6zkB8EOyZBxTbB08LTtUwUChQouD584IxBauvVfG5FEhCJ/cOaXBQouFVw3Srw9eJaSO1a7r0ZQcSmEJwCBTcGN0wFvl6QhHO1n7kMsl+StHu5jwIFCt5/fOASoIJLkBMb/T8T6d9M9k0FCmYLZp0EKJdsLveZy1DJ7Hz0IUjT7K9WoEDB+4tZLQHO5YE/k6QnL7M0Q2AHBQoUXBmKBDhLkRS2GNInKeybJtJTVoEVKLhx+MAlQPme4sthLtu94vH4lMNwiOho26BCfAoUvHdcSQL8QAlQkiRMTk7y06RuZSSFYyfJkVvDzqkVHbtpElDIUIGCa8cHRoAk1dFAJQO+KM3E43Hs2bMHjY2NGBwcnCLlkK2LnrsZQdIc5V/FIrvI60Ass8S2w6nVauj1eqxbtw6VlZXIyMiYcu1GgfInfidyTrLTwmjHSigUmnI2MrWv2OYQ+gBJ+0TkchKn98ivi31J3q8IlE+qG3qPeF18Vv48QbyP0qSAu9NBXJQS01UJZxhD1p/pfg07VS4ej0Ov1/9JvVM6YHVHzxCS7AhNMfTbTJC3K4S8q65yyyjVjXqak/rE79TuYluI75fXlySc8kh9gN4j9jfx/RA4RSscnSq2wXT4QAiQCihmmApGlR2LxTA+Po6f/exn2LdvH4aGhmA2Xzp3hJ7TsMCmRBKU7s0CajxqUOpwOnbQtyQc5k2NGmbHCcTjcTidTvz1X/81Nm7ciKKiohsevZryKHYi6pxkn6S8J9kBTnTSn0o4I5iepw5K7UadVCOELSOio3eLkYbEdChdkSApf2L6Yr7l5SCI75wO9D7qs1Q+6st0jd5HeaB3UfpJgZDpXnoO7EzchHDWLz0n5oGeJy1JnGzIbEIHmovvof/FviIvM/VLldAO8vqi75iBcKgvEMS6kF+Tv5+uJ1kf0Wq1iMViU8pKH+of4rM0KevYmdPUPmI9yvGBEKDY2HSKPDUQDabBwUEcOnQI//Iv/wKj0Yg1a9Zg3rx5/KwQtVoNi+VSCC4aFFRZNwvoDBO1Ws3PSkkkErDZbLzzUqQXOuVtYGAAW7duxcDAANatW4dvfOMbqKmp4UeSih3v/YbEQnCBdVYiIbpGv4fDYUSjUVitVk56JCWJEWzUbKKjYw9MJhMvh9/vh5YdpUoDgAYNhMEpn92pzkgqiMViULF90/Qc3U9lUTNpmtIgiPfSoJHXK+UrGo0iwU47pDoIh8P8gG66NxqNQs0C79I4mGkwQph04rLzXmjSl0t8lCb1JTrala6Hw2EeRDcUCsFsNnMCUQmHm1NZVcJBXOLkKv8OmUAjTnY0PilfBoMBGibdhtkxDpQneXsFg0EA4MIPtQldV8kkROqjohBBv0lMaBL7rRwfCAFSBcfjcfj9fphMJh7OKRKJIBqN4sSJE/jZz36GsbExrFu3Dg8//DCcTidisRivULVwmDZFSr6ZQGVQMWKgxhUbSK1WIxwO89lv27ZteOWVV6DX6/H3f//3uO2225Cenj5lkEE2kN9PiGQD9j4iNRrY1OGoo1Jb0yAmiSkmROKmzknp0vNimgTq1CpGAJQODVY5UdCzYn7EdAj0Phpc4nUaaGBtEolEIEkSP7ea+qGGSfTRaBTRaBQpKSlTSIIWsqhM4gCmtler1ZzgqH8kBTMDBO0hmUwiEAjAZDLxUwIjkQhUArFOp1FI7LRGukZpQhBCxLJFIpEp9RoKhaYQFz1HRJRkRCySK90jth2VieqOyiqxMZ2UCTVErEajkcf/pDqicomToNjWELSPmfCBECBYhqijUKNT4S9evIg333wT//Iv/4J7770XmzZtwtq1a6fcp2KDCqxDip32ZgTlm+qFykqdLxAIoLu7G08//TS6u7uxePFi/P3f/z2MRiPABi9JMbiBBEj5g/AOsePTgEomk4ixM0pUjOxIaqBBRJ2XBpE4S9P3ZDLJpUIamJSmSjCXiINMHMiUF/pfvEb3qgV1SexLECZreibJVCqRAOkeKiflR6PR8EEMQaUV8wFWDzQB6tjxC1QXNLCpv8vzLUkSgsEgdDodr0ciNkqH0hCJSd6OVEYVG4MxQe1OCloWvVO0LVJ/TQoS6HR1SemAjVmxnaleiDCp7alPx2Ix3k6UhjiZ0XP0frUw6VC9g5VPvCbHlQhw5ievEdS4ZvOlw5RoEAFAU1MTjh49Cp1Oh7vvvhvLli2DTqdDNBqFJJx9Qf9T4SE05s3woXoQG40ah36PRqPQ6/UYHR3F7t278e677yI/Px8bNmyA1WqFTqdDLBZDMBjk6VDa7zcoT7FYDNFolEt+Go0Ger0eGjYDUzsSGarYGcYWiwVqtZpLRxq2ik1tR52bnhHrQ8UGVZQd/C4SgEZYFdcJAWPpXolJcjQYY7EYV1HFAUkDmu5PynbVUNmSwvnVEAZwPB5HOBzmbWEwGJBkE1gkEkGC2bipLGK69D5Kn/JKv0EwmRDRUXuTmhuJRBBjKiTVn06QyCXZ2dHUPuJ4onyJAgW1nzjxiGqsnPCpXal9KJ1EIoFQKMTzRuUW+wG9T6VSIRgM8jGvYiQejUYxNjaG1tZWrhlR28eZlkF9UcxbQgggTHm6HryvEiA1CHXUZDKJvr4+PPnkkzhx4gTuvvtu/Nmf/RmKiop4w6jZzKFms4GGzY4xQdq42SDmmToiDaoEkwpeeeUV/O///b9hMBjw5S9/Gffffz8MBgMMBgNvXAC8o94IEAFRZ0wmkxgaGoKOSR+imiQSkobN9NRWBJVg9Kd7wNpYfA/dS/VCJEff6RkxDaoTjUbDicFisSASiQCCTUkSJiD6qxIWbKgMYMRJkgj9RoQdj8c5+ZDqSM8TKM8iidJvNIlRnlNSUhBnEjOZDCBIi1RvEiN2FZMQo8z2SoRC44II2mi8dHytiDiTtnSCtErji+pX1DSovSjvNI5FUN4kQbWluoYw2VF+aPKgZwHAZDIhzM4GN5vNCIfDOHbsGA4cOIALFy7gz//8z7F06VKYTJfOJKd3amRmEa1sUYbqcjpcSQJ8XwiQMgNhEEiSBLfbjV//+tfYuXMnUlJS8PWvfx233XYbbDYb75z0l2Y2yMj0coWbraDOQRAHiVqtxqlTp/Cb3/wGr732Gj73uc/hwQcfRE1NDe+4KjZoI5HIFAnh/YYkSYjHY1Cp1AgEArh48SL+67/+C4FAAGq2kKNipGWxWFBSUoI1a9agpKSEDy6NzMYFQWr3er0YHR3F2NgYKioqYLVaIclWxelD+ZG3Ow1QSjcYDELFJI5oNIo33ngDAwMDKC8vxx133IHU1FQ+GElqobQpDfqNJiRxMBH57Nq1C4cOHYLBYMDDDz+MkpISJBIJfp3aVEyf8k3nYff19eHQoUPw+/343Oc+h5SUFC7N0LOJRALBYBAGgwEqwY6+d+9enDt3DuFwGBUVFairq8P8+fP/pK5o3NDvYr1qBOlXfAYyFTM5jesPTcDqaVbgxf5N7xDTof+TySSGh4dx+PBhdHZ24oEHHkBmZiYsFgu0Wi2CwSC2bNmCY8eOoaysDBs2bMC8efN4GmJbySdQmtDk+ZbjSgT4vqjAVAFiBft8Ppw/fx7btm2DTqfDmjVrsHDhQlitVqjZjEsDgQaMSlCdqfOK126GDwTblyS4lBAikQj27duHCxcuoLi4GHfccQcKCgoAphJRfUoy08CNgkZzqZ7D4TC6u7vx6quv4u2338axY8dw7tw5NDU14eTJkzh16hRaW1vh8/kgMUmNCDvJJEkikwQzjHd3d+PgwYN466234Ha7kWQ2ozBb0UwKtjLqP/SX6k0cXCrWP1RswoxGozh+/Di2bduG/fv3w+v1AoIELqanEdQ4yqOKSRM0iGOxGFdtW1pa8MYbb+CNN97A8PCwrNb+KLlRW1Gexf/D4TBGRkYwODjIr4n5ojoEIxIiR5/Ph7fffhubN29GU1MTent7eb1rmR0wKSMbei/VmUpYyab8UHmpvUnyBCOYaDTK0xbrncYkfcRyyMsk/kZ5HR0dRVdXF/x+P88D5clqtWL+/Pn42Mc+hvz8fD45xJn0S9qkCPl73ws03/nud78v/xEADIIB/mpAFQVWmS0tLdi2bRt27tyJj33sY3j88cfhcrmmEBtkK6eSJCHMXC7IUH6zIZlMwu/38zLFmH1NzaSkrq4uPPPMMwgGg3j44Ydx++23c5uPmkkgNBAtlj8eTEUz4fsJkbgjkQiGh4fx9ttvY8WKFfhv/+2/4TOf+QzWrVuH9evX4/bbb8fChQtRXl4OvV6P8fFxaAQbHTlJx+Nx+Hw+aDQa7Nq1C1u3bsXZs2exdOlS5OTkQKvVYmRkhEsuHo+HS7k0aKnzx2Ix7lKlYtoCqaNxpqq2tLQgHA4jJycHixYt4nWm1+sRDAY52ZLamWRknRRWNakc4XAYQ0ND0Gg06OzsxPDwMEwmE9avX4+srCwkBAkwyWyBasH1J85UXIPBAKvVitTUVKxYsQJ333030tPTEQqFkBDOfo5EIkgmk7BarVyyiUajGBkZwZYtW2CxWPCd73wHmzZtQmFhIcDGSyAQ4HmhMadmJgMiSrVajYmJCd6+Yt4jkQhGR0d5+dVqNbxe75R6IQGF7qdPlNmwKS0ixEAgAK/XO0WwSSQSMJvNWLBgAdavX4+SkhJOfhqNBsFgEKWlpVi5ciVSU1OhYTZBqtfJyUmEw2FYLBbEhQUjajOVoHHMhEj08rvO3jcVmNhfo9FgaGgIL7/8Mn7961+juLgYn/3sZ7Fhwwbo9foporVKWBFLMvWQKpQGyM2IBJttJTYjk4TR2tqKX/7ylzh27Bjq6urwta99Dfn5+dCzlcckm9Xl/+MKjfxeQHmcmJjAyZMn8dWvfhUf/ehH8ZnPfAbl5eUIBoOQmOShZT6Mra2t2LlzJ0wmE8xmM/x+P06cOIHKykqsWLECNTU1aG9vxzPPPIO3334bkiTh9ttvxwMPPICysjI888wzKCkpQSwWQ3NzM7761a/Cbrejp6cHDQ0NGBoaglqtRmFhIe666y7MmzcPVqsV4XAYW7ZswdmzZxGJRFBdXY13330XbrcbixYtwhe+8AVotVo0NTVhx44dcLvdMJvNKC0tRX19PcrLy5Geno6koFJLbNV1+/btOHLkCEZHR7Fw4UL09fWhtbUVkiThf/2v/4UlS5ZgdHQU27dvx7lz5xCJRJCXl4c77rgDZWVlSEtLAwTJMBAIoK2tDdu3b0cgEMAPfvADDA8P48iRI2hoaMCyZcvQ29uLnp4eSJKEe+65B5WVlQiFQvjlL3+Jt956C6FQCHV1dfjc5z6HhQsXIplM4sCBA2hoaIDf74fL5cKiRYtQXV2NnJwcJJNJ/Pa3v4Xb7YbBYEBPTw9WrlwJp9OJgYEBJBIJRCIRvuiwYMEClJaWwmaz4eDBg/D5fCgtLcVDDz2EtLQ0xONx9PT0YMeOHWhvb0c0GkVWVhbWrFmDiooKuFwuaDQanDlzBocPH0ZDQwMMBgOqqqqwbNky1NbWYmhoCFu2bMGZM2fwrW99CxkZGQgGg+jo6MD+/fvR2dmJRCKBkpIS3H777SgvL4fVakV3dze2bduGwcFBLF26FD09PRgZGYHRaMTGjRtRUlICh8PBTQcz4Uoq8IwSoJ7NUpS42GnkiAs+TpIkYd++fXj77bfR0dGBT33qU6irq4PT6eREQPfSX4KaSYM0G073rtkMyq9I3FTOgYEBHDp0CM8//zwqKyuxceNGrFy5kks0NBipDqheVIJq/X5DYqpEkjmwDw4OYseOHdAy1aW3txfNzc1oamrCxYsXYbFYYDab0d3djS1btuD06dOIx+Mwm83w+Xw4d+4c4vE4SktLkUwmcfr0aXR1dcFsNuO2225DcXExQqEQnn32WYSZ87vdbsfixYsxODiIpqYmjI2NwWAwwOv1oq2tDSaTCZmZmUgkEtizZw927NgBj8cDh8MBjUaDpqYmeL1e5OfnY+nSpRgeHsapU6fQ09MDu92OQCCAlpYWJJNJZGVlITMzExDq1efz4dixY3jllVfQ3t6OwsJC2Gw2XLx4EZ2dnbDZbFizZg1CoRB27NiBxsZGaLVamM1mjI+Po62tDTqdjks3VK/RaBTnz5/H9u3b0dPTg0996lNwu91499138frrr3OpLxAIoKmpCX6/HzabDenp6Th//jza29uh0+mwePFiLFiwAOPj4zh27Bjeffdd6HQ6mM1mBINBNDQ0QKvVwuFwwGw241e/+hWOHz8Ov9+PnJwclJeXI5FI4OTJkzhw4AB3lp6YmEBbWxsnRq1WiwsXLqC3txdOpxMZGRnweDw4ffo0jh07BgNzoent7cXFixdhs9mQkZGBjo4OvPbaa+jo6IDNZkMkEsH4+DiSySTmz5+PQCCAnTt3Yt++fbjzzjuh0+nQ3NyMl19+GT6fj/f1kZER9Pf3Q5IkZGVlYXh4GFu3bsWpU6fgcrmg0+nQ19eHM2fOwO/3Iy8vD1lZWVMkwelwJQlwRr2KBjH9JSlPDhpAYJLPxMQEdu/ejY6ODlRWVmLNmjXIzs7mUpFer+ciNInRciIUQddvhg9YfSSYTUvFJNxIJIKmpibs27cPXq8Xa9euxapVq7iKQeWk+vigQQRMUvjp06fxwgsv4Gc/+xmefvpp/PSnP8XPf/5zHD16FJOTk5AkCRMTEzh79iwSiQTq6urw6U9/Gl6vFydPnsTg4CAKCgqwYMECzJ8/HyUlJXjkkUdQW1uLcDjMA2JUV1fja1/7GsrLywHWx2pqavDxj38ct912GwYHB9HY2Ijh4WF0dXXhueeew8WLF1FeXo4HH3wQZWVlANtlkmQmGLIzrVq1Cp/4xCdw2223oaenB8eOHcPg4OCU/ipJEsbHx7F161Y0NjbC4XDgiSeeQH19PQwGA9xuN1fnGhsb8fzzz8Pj8WDFihW49957kZKSgj/84Q/YtWsXJicnkWRSu9FohNls5vZNsW8Hg0GMjo4iEAhg8eLF2LhxI3Jzc3H06FGcO3cO6enp2LBhA/Lz81FWVoZPf/rTKCsrQ3NzM1599VWMjY1h/fr1+PSnP436+no0NjbiwIED6OjogF6vx8jICAYGBqDRaPDJT34Sa9euRW5uLsLhMM6ePQuDwYD169fjox/9KMbHx3H27FmEw2F85CMfQWFhIQYGBnD48GEEAgEEg0FMTEzA5XLhvvvuw4YNG6BWq7lZw+v1YteuXdi1axcA4PHHH8emTZuQnZ0Nn8+HUCjE6znG/EZHR0dx9OhRvPLKK8jNzcUnPvEJPP744ygqKsKePXvw9ttvY3x8HGq2CBcIBGCxWLBmzRosW7YMarUa27ZtQ19fH1TCqvX1YnrWkS0vJ5nBNjmDzw3dOzk5iSNHjuDs2bPIzs7G5z73OWRnZ8NsNt+0Nr1rAREfGbPpN4/Hg3fffRfHjh3DY489hpqaGqSkpMgf/8ChEuyOWmYLikQiSE1NRUlJCebPn4+amhqsXLkS9fX1cLlcULNFBLPZjPLycixduhR1dXWorKzkq7zUX4xGI7fJ2e12WCwWPhgWL16MNWvWID8/H3a7HfX19fjEJz6BhQsXIhKJYGhoCD6fD2G2V7qnpwfnzp1DWVkZFi5ciJKSEtxxxx2oqKiA0+mExWKBwWBAXV0dNm3ahIqKCnR2duLChQuIs8UGiUnYGrZyHYvFMDo6imPHjqGoqAh33nknqqqqUFtbi6VLl6K8vBwajQYejwd9fX3o6OjA2NgY9u/fj23btqG7uxvxeBwejwednZ3cpkd1CzY2EokExsbGEGMuLKmpqVi5ciVqampQWVmJtWvXIhQKYXR0FJIkwWazQcfcjYxGI2KxGDo6OuDxePDFL34Ry5Ytw/z587Fq1Sp89KMfRSQSQUNDA6Jsp0p5eTmWLVuGwsJCXucAUFJSgoULF2LRokWorKyEzWZDUVER7rrrLpSWliIzMxMmkwmBQADRaBTFxcXYtGkTHn/8cej1erS2tmJwcBDBYBAajQahUAjvvvsuCgsLsXz5cpSWlmLt2rX4i7/4C/z3//7f4XA4EA6HEQqFoNFokJqaiv7+fvT39yMzMxN33HEH6urqsHDhQnzqU59Camoq3G43vF4v54zU1FTU1NTA4XBgwYIFWL58OYaGhjAyMsLTfS9Cw4wEKDKrJHjP09+4sEqjVqsRDAZx7tw5/OpXvwIALFu2DCtWrOCrvu8lkzcTqM4SzG8tFAph9+7daGlpgd1ux7333ovi4mKYTCb5ox8aSHoie+XChQvxiU98Al/+8pfxxS9+EV/84hfxmc98BkuWLIHNZuP9ISUlBRaLBTrm0KthvoS0iEWSvk6n4wREZhCr1Qqr1QqwPnXgwAH87Gc/w89//nOcOXMGALgdimb6sbExmM1mpKWlISUlBWazGRaLBSaTiRPVO++8g6effhpPPfUUuru7YbFYuN1PTk5Udp/PB51OB5PJhBjzCzQajdDr9YgIzsgpKSnIy8tDdnY25s2bh1WrVuGxxx7DHXfcgaysLOiYa1BC2KWQFJybJbZdLcH2h5PPHJlBtFotDAYD339MxE328BjbzWEwGGAymfh2uYSwA4v2XGdkZEDDVlQTzK4eEvZop6Wl8YnAaDRytdpgMCDCdsV0dnbi1VdfxT//8z/j3XffRTAYRHZ2NvdLhLBAZzQaYbVaYTabYbfbYbfbeX2ATQShUIgvcNhstimaINUXSfF+vx+SJMFoNMJutyM1NZXzDO0xV7G9yPSO68GMBEiVBqGQaibKiwMmwVTb/v5+HD58GHv27EFxcTHq6+uRk5PDV98orbkMFVOFqax+vx8XLlzA22+/jUgkghUrVvC9vtToHyYkwW0CAjFYLBZkZWVh3rx5yM/PR25uLjd40z1JIfKISohpSOUniZKu02QJWYSTZDKJ0dFRHD58GDt27EBvby/AXIJizE3DYDDAbrfD6XTC7XZjdHQUfr8fAwMDGB8fR4TtlQ2FQjhy5Ai2bNmCoaEh2O12bis0sx1KUbbKTKqp2WxGTk4OQqEQhoeH4ff7MTExgdHRUXg8HqjYLgmLxQKr1Qq9Xo/CwkIsXLgQ1dXVuPPOO7F06dIp0jGRHn3ULNCHStgxQuYPSVDJIYw1+l9i2/PS0tJgNBpx4cIFjIyMwO12Y2BgAJ2dnQAAh8PB368S/GopfTkpUz1IgnCjZaurEeZcfv78eb6AIUkSHA4HbDYbbz+9Xo+CggL4fD4MDg7C5/NheHgY586dQ0tLC/x+PzRshV1iHh60cEY257GxMbjdbpw7dw5+v59PRJQ/yjNpkBHmG0uTxnvllRkJkCqHPlQ5NGiIIOn7qVOnsHv3biQSCaxbtw51dXW88cV05jLUTL1KMKPy6Ogo3nzzTRw8eBBFRUV45JFHYLfbeUf9sJFk0TtokJlMJsTjcbS2tmLv3r14++23sXXrVmzduhVvvfUW9u3bh7GxMT6I6FmaxUna07NVbYkNvghzDCbbn5FtfA+znQKtra0YGRlBZmYmPvGJT2DJkiXQarXo7u7mBJibm4t169bh/PnzOHz4MM6dO4cDBw6gubkZo6OjAKt/kuY++9nPYvny5bBYLPB4PEhPT4darYbf70eY+cCpVCo4nU6sW7eOG/xHR0fR0dGB5uZmdHZ2wmQyweFwwOl0wmw2o7+/H0ajka+6Wq1WWCwW3u6SsPWL+j9NDGrm/0pCgYb5JqqYu1QgEIDf70ecufiI9Tpv3jzk5eVhz549OH78OE6ePIlDhw7h8OHDMJvN3EmapLMwW2Qioo3FYnA4HLBarYhGo+jt7UUkEuFSIJEgtZckSejr68PFixdx991345577kF5eTm3DUajUdhsNqxYsQJjY2NoaGhAY2MjDh06hBdffBGbN2/G0NAQ9MzmT2SWk5ODtLQ0DA4OoqGhAWfPnkVzczN27twJt9sNh8OB4uJirjVEmTuUJEkwMPcisieq1WqYTCY+YVwPZhRDxFk6IWxRI1AjxmIxNDY2Ys+ePRgaGsKXv/xlVFdX86021BEgqIdiOnMVsVgMZ8+exQsvvID8/HzU19ejsrISWua8OhsmA+pAYDMrLSY0NDSgo6MDJpMJCea3ZrFYuOpJBE4DIcp812gGTzLpsLCwEFlZWXj11Vfx13/91/jYxz6GBQsWQBIWigwGAxYuXIi6ujp0d3dzFxmz2Yxly5ahoaEBXV1dqKqqwuOPPw6VSoXDhw/j6NGjmD9/PoxGI0wmE7xeLyRJQm1tLYaHh/Hkk08iNzeXq62HDh3C8uXLudoYY9vgTCYT7rvvPvT19eHo0aP4whe+gIqKCng8HhQUFGBsbAyRSATLli3Dl7/8Zfz+97/HL37xCySZnXPVqlXcz4+kzATb3UGDN8b2KtMYijB/uijzeYuwLYekdkdlux4sFgvq6+uh0Wiwe/duPPvss5icnITZbMbGjRvxkY98BLW1tVAz3zkVm6ACgQB0zJZItsBQKIRgMMjbPplMwuv1IpFIIBAIwOfzcdNERUUFFi1ahFdeeQV79uxBTk4O7HY7NGz1WpIkrFq1Cq2trTh+/Dj+5//8nwgGg9w+m5qait7eXoRCIRiNRkiSBKfTiTvvvBMqlQqHDh3C1q1bodFo4HK58JnPfAZr1qzhEyT1D5I6Y7EY/H4/9w+US7DXgxndYAyC6hpn24og2AM1zN7jdrvx7LPPorGxETk5OfjzP/9zlJSUwMT288kzKBLiXASV79SpU9i2bRsOHDiAhx56CHfeeScKCws5OYiz7ocFlUxC1zCje3V1NRYvXoyFCxeitLQU5eXlfDV3yZIlcLlcsFqtqK6uxqJFi5CRkcHTq6ysxG233Qan0wmj0YiUlBSkp6ejvLwcS5YsQXl5OXQ6HffLS0lJ4XYtcr8oKytDZWUllixZgsLCQm7QdzgcSE1NRVZWFvLy8lBbW4uKigpUV1ejvLwcxcXFcLlcyMrKgtVqRVVVFTf65+TkYNmyZcjPz59Sfi1blEhJSUFGRgacTicWLVqEmpoavthSU1ODjIwM/v6MjAzk5OSgoqKC1xG5akiCSqvT6WC321FeXo6FCxdyaSgnJwerVq3ivoMajQbZ2dlYtmwZiouLYWCO4ZS+2WzmtjCXy4X09HTk5eWhqqoK99xzD6qqqpCeng6wALtVVVVYvHgxdxNJMrtfXl4eqqurkZuby+1oCxYsQGVlJQ9NR76FlZWVSEtLg8vlgs1mQ1lZGaqrq1FbW4uSkhIsW7YMRUVFcDqdsNvtvO5KS0uxfPlyLF26FAUFBVCr1TAYDCgsLMTSpUvhdDqRlpaGnJwcWCwWZGRkcJNZfX09ysrKuESt1Wp5n6MFNp1Oh/z8fKxevRq5ubm8D880lq7kBnNFR+gEM7CSDk4DJcFcXs6cOYOvfOUrSEtLw6OPPoovfelLU6Qcup+khvcirs520GQRCATwy1/+Em+++SZ8Ph/+8R//EcuXL4fNZkOUedLPpnogdVClUk2xe5lMJvh8Pj4bS5LEPfZpVifodDqEQiHeSXVCwIFgMAg9M3gn2Ipoeno6l0okYeEoEAggKewD1bMVdbWgSpIJRsM2yceFfchUt4FAAGazGWohWo2R7SqJy4J/0rPRaBTBYBApLOgpSRxaZv7RMhU/xHZ9GNkiBuVVzXaoSILNnFZUTSxGJql1ZrMZCeaYHBN2vFA5/X4/wKS/BFvIoHYJhUK8zcxmM69DNTMBaFngWTVb6Y4L2xaNRiOXxkhapHoiqUrHXH80TAIlswJJkzEhahBpEDG244k0Bmo3SdjdRROAWO9BFjDCarVyNVnD7MkejweRSARWq5VrI1R2K4ucRO+biQCv5Ah9RQKUmLpCpJdkUSaCwSCamprw6quv4je/+Q0efvhh/MVf/AUKCwu5uBpi26OoMuY6aFI4deoU/vmf/xlerxef/vSn8cADDyArKwtgM7RBOFdjNiDKFidIgqEOrhX8NMHMIUQcEpPsaWDRgBfvTzCbGA0EGuxms5n3B0pHDlIPSRoCS4/yFBeC7+qFMFZERtOlSZKZeJ36NwSJWHyWyJmQEPZ2GwwGvgqpZiuhKqZ+imOGJgVSbWl8aJh0RmqnOGlQnRE5im0QFaJQ071atmsozKKtkBBC9UxanIqp6DHmkkPXoyzoKPVLGutg5jD6X6PRcHWeiEeso4TsCAMiarCgq0SO1IfkIJOAlXmPUP+g9yTZThuVEBOR3jUdrkSAMz5Jg4BeJDZAIpHA8PAwTpw4gZ07d2LNmjVYvXo1MjIyoGUzLFiIIrIVTlfYuYZEIoHBwUE8//zzGB8fx6JFi3DvvfciNTWV19tsmwyIoGhwqJnxnWZ7sZPR4KDBEGWx3WggUUek69TuEeYfp2PuMiQpEETCUbHV3EQiARNzb6HfKX0aFGYWAisSiXCjPxEH5Y0GD4S+qxLscGCESNeIECVhEYfeSYObpCEwiZOkWyorkZKKERHVLdUphGgsAJCSksInH5Juk4xU9czNhfJBvxH5UL1TXuma2Kb0HE1WGhZ4QcskTkpTrGuqR5FsVMzmT++mNqQ6lti2QqqDIIvcQ/3IyNxt6N4YcxSn56k9SHql+0LC8RLT5fW9YEYChLAMT6CMxmIxnD59GsePH0cgEMBdd92FxYsXc7sfWIXrhPDclJaY3s0AcWDIf6fy0P9DQ0M4ceIEDhw4gNzcXH7uCamKKsHmNpsgkheE1WzqhITpOhuVaaZr4u8aQWoQP3JQmtR/6D7xPSpZnL4rpQkZiYogEhDTng6UNg1osDKJkpM8r+I7xfdQ/aoFP0AxffpfJDHxOt0vz7datuoszw/lg8hP/k6CmJb4bvH902G6/NBzRMzy94j/a2TxEqe7h+pNfNf14rIqsDjAqcDRaBQTExP48Y9/jMOHD6O4uBg/+MEPUFpaKk9iWlBl3CwgSVgcjDR7UUegWXvXrl144YUXsHv3bnzve9/Do48+ylVfFVON4oL96WaqBwUKbkZctwoMNmgTzDBNXtxutxvvvPMOzp8/j8zMTDzxxBNwOp1TJLzLfSCTBmf7R8sO/ZETFhE5zVo9PT3Yv38/Tp06hQceeADLli1Deno6J0dSF0QiVaBAwYeLGQkwGAwizpwNDSwSRCwWw+DgIF577TXE43EsXLgQtbW13GB5NR+ROG6GD4H+J5WYkGA+X8eOHUN7ezvS09Px0Y9+lEcHIbuL+FGgQMHswIwqMJIJvoKrYqtuFy9exI4dO/DDH/4Qa9aswUMPPYSNGzfKn7wiRGKZ7RBJi6RCCJJcKBTC4OAgnn76afT19aGyshLf/va3kZ6ezutNtHuQVKmewYaiQIGC9w9XUoFnJECr+ZKXuErwSP/P//xPPPnkk2hra8P3vvc9bNy4kQ/sayG1a7n3w4bEVuaCwSASwq4Im82GRCKBgYEBnDhxAs8++yzq6+vxzW9+E5WVlVxK1LOzXYnwyB9KIUAFCm48rpsAVdKlbSi0PH/kyBH853/+Jz80Z/78+XC5XHwZe65CJC6JuYyQVEyLGvF4HDabDQ899BAee+wxGFhkFJL8qI7UMr8mBQoU3FhcNwFq1X88LwEAdu/ejf3796O5uRkS25hMKt5cBqmrERZxhFZwY0Jof51Oh5UrV2LVqlWoqqpCkjkRE3nGhT2L5C6hQIGCG4/rJkCr+dLWExq4Fy5cgJ9F25UkiTupEhFcC24m6YeILBQKTVnIIQfRBDv9q7q6msd8I6kZgvtLlG0nI6/+m6kOFCi4WXHdBKhRXbJfSZIEv9/P1ToC2Qfnui2LiAyMzCQhkomGbWXy+/2wWCx8PycRI4SDtEOhEKIsaKW4w0GBAgU3DtdNgCbDH/frxdkGaSIAkl5uBUlGEkK8kzQosdVg+p+29GjZFjKy+dGHVpLjwkZ43Q067FyBAgV/xJUIcEbxjdw8NGwPnziQRUO+KCHNRUxXTqoXkoDFfZUQ9qqK0jEtnlzOBUasXwUKFNx4zCgBys8FpsUOleAWQ9IR2cWuBnN9cF9tPciRFPYc0wqyAgUK3huuJAFeNQEScYnqH0lG1zvob2XQ5CGXLuk7SYMkbc4kNSpQoGBmvG8ESBAH7nTqoYKrhzipkOpLtkGRAK9FwlagQMEfcd0EaDFdsvuJdi0C/S8OSoUErx00gdACSSJxafvhdHWuEKACBdeO6yZAcoQmtw65My9JfqQOK7g2JFiEGFpdJxugWLdkEyQ1WIECBdeG6yZAs/GPkghJKCq2ACLuZiASVCTAawOpuORrSd9FVxu5qUGBAgXXhisR4IyimyiVJIQ4//KBKP+u4OpAkwn9rxKi5xIZTmdqUKBAwfuHGSVAg+6PJ7tpWChzkkzkUAbo9WE6gpOEcyGIJGnyUaBAwbXhShLgjASo01w6N4AcflVse5foD0gDl+xWCq4eVJcSW/klaZBODqPvRIRKEAUFCq4d102AFA5Lw47B6+joQF9fH8bHx6Fmh6pIwtkYV0uA00mQcwVXWwcQHJ9Fm2okEoFGo0FeXh5KSkqQlZXF60shQAUKrh3viQDJJy0UCuH111/HoUOH0Nvby0+cJylGxVYtw+EwJiYmYLFY+H5XWiAhG9dcJkDISJBMCFqtFqFQCH6/H5FIBA6Hg58UR9JzLBaDz+dDJBLBihUr8LGPfQxVVVVTpOxbCaJ5YKb/IRzBOZ3rEPW76e4V76PrkuwAMImtwMvfIcdM+ZO/Q573K4HGzkz5pXsobTGf9Jv8XsJ0v4vpUL3NlNdrLcuHhesmQKvZhGAwCEmSYDQa8eSTT2Lz5s0YGBjAAw88wE9Ls1gsULFzVnt6erBnzx5UVVWhtLQULpeL27PU7OBoaqS5CHlniMViiMViSEtLQ1tbGxobG9Hf34/77rsP8+bN4x08Ho8jEonA5/Nh//79uO+++/Ctb30LZWVlPM25ToDyAUUSslY4Z1qn003xRgCTmsEOKafnaODTvTSRU1Bbg8Ew7dZOClZhNBoRZ2e5GI1G/g49O4CdiILIKcGiA1H+wNorITtwXczbTGQKIdIS9Q0SJOh3keDEe8PsUHSdTgctO8yc7gUzp0DIDwSSpd+TySTC4TA3f02n3dF7JTa5z2a8JwIUK+yf/umf8NZbbyGZTOJv/uZvkJqaCi07MS0ej2N4eBjHjh3DM888g0cffRRr165FcXExb8Qkc/GQV+ZcAnXEaDTKF42og+7cuRM7duzA4OAgvv3tb2PRokV8gAPA5OQkLl68iKeeegq1tbX4y7/8S8yfP59fn8v1RoNQJZPWiGDouobFn6QBTAOV+lUwGOR9EoL9VCQ4idlc6RBuGuR0Tc0WnMR3EqlpNBoe0kzDDg4X24XaXyyPxMiF7hfvhUAm4neRnKge6BnKH12PC2fOJIUD6cEIX7QvUzoS8zGl+qb0RIIWPwQqF0F+fTbiugnQbLwU8VnFFj9+/OMfY/fu3UhJScG///u/IyMjg88S8Xgcvb292LlzJ/7mb/4G3/72t/HAAw+gtLSUP0+NfDNU2nuBJBAgdbxoNIrNmzdzCfrJJ5/EypUrEY/HeXh9j8eDs2fP4q/+6q9QXl6Or3zlK6iqqpoSlWeuIhaL8YFNfUMkEfG7SBCRSISTX0JwLCfpBzLpKyE4llPaRB402WuYaYf6KZEQpSPavJMsJiTlkd5J7yIfT8jUbpFE5N/pPWL5KW9i/RASTLui/NB9ErPP0xiFLNpQcpp95nRNw+JcinmHQMj0PnleZiOuRIAzyuFiBYDNniSxWCwWvmWLOgGFyPd4PABTAcQKo45JFT4XP9Qp9Hr9lE4nDiaShuk3mhyorqPRKMLhMMLhMKLRKKLRKJdA5iIkIcAsDSiqC/kAi7NjWukesqNGo1FEIhEYDAZOfnGm/hIxEPkRMWjY4hO1i0aQ6uheCKQGlh860IreQfdRX4/H4zw+pCRIlOI99KFn6bpKZien8tOYEctD+aLfxXqkupS7rlH+qG5E8qO06P4Es++LdTEXMSMBkgRDFWw2m2G1WjnRSWwwh8NhPvOaTCaANVyCnZdLtkKCvBPMpU9CcBpPJpOIRCIIBoMAAIvFgtTUVD5owSYJGrzUKXU6HaxWK1JTU/lCkthJ5xqIVEjVB5MIaQKAIP0RYYVCIXg8Hi4Z0aSsZhJalJ28ByYhxWIxSII/q04I7kttlhQkRqpzIgkaByIx0fMEupfSoneIUDOJS0xTfI9K2BdOZabxQ3VC16mcNKFCUOcpTZE06bper4der/+TfiUfl2omtIh1QfmHIOXe7LjsyKLKppkgFovxwZoUZhmw2TnGzgeJxWKIM9uEfJaB0IHm2oc6iPidpN4kOxckHA5DktlZNEwaIRJICrYYTKMyzTXQAKNJIxKJTBlc1PeIXLRaLcxm85QBTs/SdZVMKqJ7aaBTunJJkfowTfBU9zQW6DsRBBEGWL/Wsqjg1A+IuCKRyBRhgN5JeRSlRrH9iXCoL0TY4VzUX8Q6kBMe5VUkt8v1JcoL1b2YR3qOfhPfczPjsgRIBacKJGmFKpI6ATV0JBKZ0nHEjkCQV+Bc+qgFdUclEJuKrUjSQKDOTZ2KiFMtqB/UCcU05zKo3HFhwUGlUsHr9aKnpwcXLlzAuXPncObMGfT29nLJmuqMCIQmHSIaqj9JktDX14eWlhb09PQgHA5Pebf8f8oLkZIIIhMtM/PQh8iU8k6/03iJs1VmkUghEBTdL76D+hYJEzG2CEQTq/iupKCFyMmU0qTf5e9XsTEq9me6Jn6mu+dmxowjiypZx2x3asHuQQ1CA1PDFkLIXQCs44kzsVjhcxliJ6EZGUL0F7qWZNKG2CHFWZrSoU4+lyEJ2/80Gg0sFgtMpkteCBcuXMDevXvxhz/8Ab/73e/w//7f/8Orr76KpqYmriJTXRqNxj9ZASY1LhQKYd++ffjd736H3bt3Y2JigvdvkTxpUUokE0lQn1Vssqd3U/6TySRCoRBPSxQCzGYzjEYjEokEQqEQQqHQlPFAaVN/oTyFw2HEmbZFk6R8PNH3RCLBpedwOMwlWSqD/Dkau/SbWEYxLxDIOCmzh85pAqTKFwcmfWhGFStFp9PBaDTyD6nGECp5rkNeThpEEvM9S0lJQUpKCp88RPU4zkwNENQdCL6EcxnUp3Q6HSegSCSC3t5e/Pa3v8WWLVtw6tQp9PT04Ny5c3jjjTfwH//xHzh27BgnMiI+0lJoUqY61el06Ovr4xJkmNnTiPioziVJQiAQgMQWWYiMRHskEWc0GoWa+QFGIhFOwGK7JgUJzGQyTTkRkJ7z+/08L6Tiqpk90+PxTOlXJpMJOuYXSH0LjNAMBgMff7RYQ3kR8031GwgEEAwGEWX+kSJEIiXyBeuP0WgUiTlg/8PlCJA6BQ1O+o1mIXGQilIhEaIkrHhCNqjnOsQOO91MSx8NU5GpTiFb8btVIK+rBFtAGxkZwfHjxxEMBlFRUYF7770XmzZtQm1tLUwmE7xeL6LRKAKBALq7u9Ha2oqRkREuhV28eBEtLS0YHBxEJBLhNthwOIz+/n60tLSgubkZo6OjiDDbts/nw7lz59De3o6BgQFcvHgR58+fR1dXF3w+H5LMFDQyMoLGxkb09PSgpaUFJ0+exMTEBAKBALxeL/r6+nD27Fk0Njaira2Nq+xaZucl1b61tRVtbW0YGRnh330+H0KhEEZHR3H+/Hn09vbi/PnzOHfuHGKxGPx+P/r7+9HU1ISGhgY0NTWhu7ubE5PH40FXVxfa2trQ3d2N9vZ2nDp1CkNDQ/B4PBgZGcHZs2fR3NyM/v5+xNgiUTgcxvDwMJqamtDY2IiWlhb09vYiFApxIqcJZq4QoOY73/3u9+U/AoBJOAkuHo/j8OHD6OrqgsFgwIMPPgiTycSJMB6PIxAIoKOjA1u3bsXatWsxf/582Gw2qIWVLknmODrXQPVBA1r8TvYrt9uNu+66C0VFRbxe1Go1otEo3G43du7cCZfLhRUrViAjI2PKPXMVYr8glS0UCqG/vx9/+MMfeH2sXbsWixYtQl5eHhwOB7Kzs+FwODA2NoaDBw+it7cXZrMZLpcLiUQCO3bsQHt7OzQaDex2OxobG9Hd3c3dZfr6+tDW1ga3242UlBQYjUZ4vV5s3boVnZ2dGB8fx+DgINrb2zE0NIRgMAiHw4FgMIiWlhZs374dXq+X75PPy8uD3+/HxYsXceLECXR2dqKzs5MTsMlkgl6vRygUQlNTE86cOYP29naMjY3B6/Xi3LlzaG1tRW5uLmKxGDo6OrB37154vV5cvHgR4+PjKCwsRGdnJ5qamnD69Gn09vaira0No6OjSE1NhU6nQ1dXFw4fPozm5mZMTEygt7cXp0+fxsTEBNxuNwYHBzmhBoNBOJ1OpKSkYHBwEI2NjTh06BCGhobQ29uLwcFB6PV6mEwmaNmuHEkI0jvbx3MkenntaUYCNBouqSI08Pbt24f29nYYjUZs2rQJZrOZF16tVsPn86G1tRVvvfUW1q9fj6qqKrhcrinklxSMunMZYhnp7/nz53H+/Hl4vV7cc889KCws5Pcnmf3I7XZj27ZtcDqdWLlyJVwuF7e/zuU6U8sWf9RMdYtEIjh06BCamppw/PhxtLS0YGJiAtnZ2VixYgUKCwuh0+lw6tQpvPDCC/D5fCgpKUFxcTECgQD+7d/+DefPn0d+fj6KiorQ0NCAQ4cOobGxEWq1GhMTEzh37hyee+45OBwO5OfnQ5Ik/OhHP8L27dvR3t4Os9mM9vZ2vPPOO3jrrbewfPlyJBIJHD58GP/0T/+ECxcuIBqNori4GEuWLEFTUxNefPFF/OpXv0J2djYmJiZw5MgR/OY3v0FeXh4yMjLgdrvxk5/8BHv27OEEs3PnTmzfvh1tbW2oq6uDRqPB4cOH8X/+z/9BY2MjkskkioqKMG/ePDz33HPYtm0b+vr6kJaWhj179uDo0aOw2WwoLi7GyZMn8cwzz2DLli0IhUJ8bP72t7/FkSNHMDIygpSUFGzevBnnz5+HzWZDSUkJ3n77bfzXf/0XTp06BYfDgZMnT+L3v/89JicnkZmZiaysLFgslil2VlKNZyuuRIBXJVZcafDJSU2UgG5lXE/5ST2+lUDqlIYZ4cl25nK58K1vfQsPP/wwsrKy0NHRgT/84Q/4yU9+gh//+Mdob29HLBbjUYtCoRCiLJyYxBYgtELUIkmSkJaWhqVLl+L+++/Ho48+io0bN8Jms6G5uRnNzc0wGAwIh8NwuVxYtWoVHnjgATz00EOorq7GxMQELly4ALfbjWg0Cr/fj5qaGtxzzz1Ys2YN9Ho9Dhw4gL6+PjzyyCPYuHEjHn30Udx9990YHBzE2bNnudTX2tqKqqoqPPHEE7j//vuxYsUKpKWlIRAIwGazQavVIsbcZlasWIG77roLS5cuhd1ux5o1a/DYY4/hU5/6FNavX4/q6mqYzWa0tbUhFAoBbFJJS0tDfX09Nm7ciNraWkiShOzsbKxZswZ33nknCgsLEY1G0dPTg1gshgULFmDTpk34whe+gPvvvx8rV65ETk4Ompub4fV6oWZ2SRJkSJ2/mXFVBKhAwQcBUqsIFosFK1euxKZNm/Dggw/i9ttvR3Z2NgYHB7Fz5068+eab6O3tnUJ2JC1rNBoYjUbuuA82IaWkpKC8vBxLlizBypUrsXz5cpSUlMDr9WJgYIDfm5eXh6VLl2LJkiVYtWoV5s+fDwDo7e1FIBDgK6U1NTVYunQp5s2bh3A4jPb2doTDYaxfvx6LFi1CXV0damtrkZqais7OTpw9exZ9fX2YmJhAaWkp1q1bh5qaGixZsgQ5OTmQ2GIFScR6vR7Lli3j+dTpdFySjMViGBoagt/v5/bLGNvlYrVakZGRgQULFqC2thaLFi2C2WxGQUEB6urqUF1djdzcXGg0GoyPjyORSMDlciE3Nxd6vR4jIyOYnJyEWq3G5OQkXwcgW+Bc0UoUAlTwoYMWfghEZCSdVFRU4Etf+hK+//3v4zvf+Q4efPBBWK1WvPjii2hqakIgEEAyeSl+Ja1yapkvIEmXemF7Ii3WabVapKSkICcnByaTCTFhtwXt3FGpVLBYLLBYLh0T6/F4kGRnuahUKjgcDqSkpCCRSPBFGa1Wy+19KpUKBoMBRUVFGBsbQ1dXFycUWpVNJBKw2+2wWCxIJpN8EYSkrczMTDgcDuh0OgQCAVy8eBE7d+7E//2//xfPPPMMdu3ahb6+PhgMBm5P1ev1nPxNJhMPYWe1WuF0OqFnO0LAwt0lEgmMjIzgyJEj+NWvfoWnnnoKmzdvRnt7O19RJuKj/+eCpqIQoIIPHfKBpNFo4PV6cfDgQXzjG9/Av/3bv+H06dN8MSMtLQ02mw16vZ5vGyQj/sTEBBKJBCYnJzEwMIDx8XFOiMFgEG63G+Pj4wiHw/D5fOjv78eZM2e4GwupymNjY+jr64MkSfB6vRgbG0MwGITL5YKRhcuSJIm7kRgMBhQUFMBqtcLv93O1MhwOY2RkBG1tbUhPT0dBQQHfthcIBBAIBGAwGHDx4kWMjY3xtIkcqT5oQhgeHsbvfvc7dHV14YknnsAPfvADPPbYYygrK+NSmlar5ZOBlm23pLTJVOD3+2E0GmG1WqFWq+HxePDaa6/hnXfewbp16/B3f/d3+NKXvoQFCxZw1xwD2//vdrv5ivjNDoUAFXzoUAneBmRfIr9Js9mMU6dO4T/+4z/wgx/8AE8//TR27dqFQCCA+vp65OXlwW63IycnB0NDQ9i1axeef/55vPjii+js7ESE7VwieL1eNDY24s0338SLL76IN954A4ODg8jPz0dFRQWMRiPUajWGh4dx9OhRbN68Gc8++yyOHTsGh8OBmpoapKamIsZ8M8l9RqvVwmg0YsWKFcjNzcWbb76J3/72t3juueewY8cOaDQa1NXVYfXq1aioqEBlZSUaGxvxy1/+Ei+//DLeeecddHZ2QmI+oyRhkSRL3+PxOCYmJtDX14fW1lacPXsW/f39mJyc5KQUi8V4LE8IjswQtqzqWOxCqh+DwYCJiQl0dnbyHTPt7e0YHh6G2+1GTIjYYzKZOBne7Lj5S6DgpkeC7YUlAoyxXR2lpaW4//774XK5cP78ebz55pvYt28fhoeHkZubi3vvvRcFBQVIT09HVVUVcnJyMDg4iIMHD6K1tRVOpxNFRUVc4srIyEBeXh7UajXa29vR0NCAzs5OVFRUYPny5SgvL4dKWNDz+/1oaGjAkSNHEI1GsXbtWlRWVnKJc/78+TwuJmHt2rVYtWoVJicncfToURw4cACDg4NYs2YNVq9ejcWLF6OyshIbNmxALBbDoUOHcOrUKUxMTCDKtsmRy4nNZkNpaSmMLIAGqbDkYdHT04Pm5mYEg0GkpKTAwILCGo1GOJ1OZGVlwcBcfux2O3Jzc2G326FhQRHsdjucTidcLhd/V0FBAUZHR9HU1AS32w2Hw8FD35HUa7VauRvczY4Z4wHarJdsHmDe3z/60Y+wc+dO2O12PP/883A4HFAJPm/9/f3Ytm0bvva1r+H73/8+Hn74YZSWlvI0JOYGM1eMp1cLKverr76KzZs3o7OzE08++SRWr1495brH40Frayv+8i//EpWVlfgf/+N/oLKykqtBc7XOJEmC3++HJGzFCgaDXNKQJAmtra3o6upCIBCASqXig7msrAx6vR6xWAxerxf9/f3o7e1FPB7HggULMDg4CADIyMhAUVERLly4gK6uLqhUKthsNkTYvuxFixYhPT0diUQCbW1teOKJJ1BbW4tPfvKTsFgsnAgqKiqg1+vh9/vR19eH8+fPo66uDllZWXzBJRqNwuPxYHBwEB0dHYhGo8jMzMSKFSu4RKdSqdDX18cXTAoLCzExMYEXXngBJ06cwEsvvQSbzYbu7m40Nzejvr4e+fn5SElJQTKZREdHB3p7e+Hz+ZCXl8dV3MHBQdx5551IJpPo7u7G5OQkFi9ejOzsbPh8PuzYsQM5OTmorq6G3W7H8ePH4Xa7kZqaiqVLl/I+2NzcjJKSEhQUFECv1+PIkSOorq5GUVER9Ho9J2QIzuuzFVeKBzijH6CBGUjBROj9+/fj4sWL0/oBAoDP50NbWxveeustrFu3DpWVlUhPT+fXITi8ztXBPBMkScL58+fR0tICj8eDDRs2TPEDlJgXvtvtxvbt2+FyubgfIBnu52qdqZivKdmrNGzvM31XsUWIzMxMFBQUoLCwENnZ2VNCi6nY/lmbzYbMzEzk5OQgNTUV6enpcDqdsNvtXG1zuVwoKipCbm4uMjIykJmZyRcFyM72+9//Hi6XC7W1tSgvL0d6ejoyMzORnp4ODYt9mZKSgoyMDGRkZHDJC8Lebb1ej5ycHBQWFiIvLw82mw0ajQaBQADnzp3DT3/6U3R2diIej2N8fJw7TttsNqxevRoOhwNOpxP5+flwuVzcPUjNjpZwOBzIysriixq5ubkoLCxESkoKr6+cnBxYLBZoNBqYTCZYLBbk5OQgPT2dLwBlZ2cjKysLeubs7HA4UFBQgNzcXF53qamp/F1adr4NbpLTIN8XP0AFCm401MwFJslWZ9XM50ySJFgsFmRkZCA7O5uviKakpEzRQGhAE6lZrVZOIikpKVwNzMrKgsvl4uof7baR2Aqn2WyG0+nke3bT09ORnZ0Nu92OJAv+azQakZqayqUynSzsPKmv5DyclpYGCGRPhBSLxdDX14cTJ07A7XajvLwcGzduRGpqKidZkXiIbIxGI+x2OxwOBycop9OJ7OxsmM1mmM1mpKWl8e9qFuQhLy8PTqcTOraXODU1lRM7TSLp6emYN28eMjIyYGL7jnNzc/liiUYWnPVmx2UJUBKWuuV/5aB7qWLEzimmc6uByj5d+el3MnLPlU51LZCEPeOS4LCcZHtuIUi/9DsNViJK+T1gwQ+0LGaejvns6VkgUFoIAJPYaAeKxMjrtttuQ3FxMSwWC3Qs0K9Go+GrodRWeuZaI76D8mdkB4AlhGjXkiTBZDJh/vz5+OpXv4rVq1fDZDLB5/NhwYIF+PjHP45PfvKTKCwshIEd3ER1oGOBIqi8cRbowWw2Q8vscxEhKjaVh9xdVCyosZ6F6Sd7HtWXvO8R4SZYsGNJOEeE0pkLuCwBxliMvyRbRaLGJIiDljoVdQgIYfRjLKKJ5ibYO/heIRIa/U8DXPzQoIuwEEYSk3SoY1Fnm+tQsRVfIjNy1dCyoKdin1EJcfEIcqmEvosQ65GIUHyn+L/NZsM3v/lNfPazn8WCBQsAZgIiqY3SIyIi0G+i6i6SNJGghqnQ8+bNw3333Yevfe1r+MlPfoLHH38cixcv5r6HdJ/JZIJa5ndHeaZrVCZSdzVC6C66LoLupzpTCaH+RVAe6H6dEOFpruCyBEiVSUQHGemJHUvLQhKp2T5Orez8D3mnnMsgAgTrbDQgxN+p7nQ6HQxsKxetAsrvE+t5LoIGIoR6ocErL7v8O/023e8zQZ62+LxGo0FWVhZXg+XPXA6UznTpilAzAiMVlII7EOGLz073zumuqYRArDO9V4T8Hvl38berTfNmxJ/WrgAiwATboE4VTuI1QRKiQ5DUA6FjExHKn5vLEGds6pgk+RGIHGniCLMoxVRv00ndChQoeP9wWQKEYKMhApRYTDAiMyI8UnUjLNBiRIgOrWL2j2g0OkU9nIsfFdt1IDF7lhg7TcVsKjG2xUmUQiRWj3q2GqdjW6RizD9OgQIF7z+uigBpYJMhltS1MIsYq2I2BLJJ6FlUXImRXpwFTKXfRFvYXPpI00i3KsE2ZDKZ+Koc1W0wGITf7+fReYPBII/GDWZaIJuqghsLubo30+daIX/+/fooeO+YkQCnk2hEchPte0RqEovKQc9D1viixDMXQWWjspNZAEKgTzKK0/10D00ukuycXKpnBbMHc7kP32qYcWQRoRHpiVIOxV0jFc/n82F8fByTk5PQMkfJyclJBINBRNjZAoFAAH6/n0s5c/FDZfR6vfD5fAiy8vt8Pl4fVH9+vx9+v3/KwgctlhCBEnlOJ1kquDlwLWR5LfcqeH8w41Y4o/6PS/ixWAw//OEP8dZbbwEAvvOd7yCVhd/W6/UIBoPo7e3F0aNH8fzzz+ORRx7B+vXrUVpayqXIBAtzLkpAcw1EXuFwmEvOWhbYct++fTh06BB8Ph8effRRLFiwYIokHQqF0NfXh5/+9KdYsmQJvvGNb6CmpoaTH7nHKFCg4Opxpa1wMxKg1XxpszMN6B/96EfYunUrBgcHsWTJEq76qpmPUygUwtjYGFpbW1FcXMzDZ8ull+QtsKJJNk8yEeh0OgwMDGBwcBCxWAylpaWw2WxczaWPJEloaGjAHXfcga985StYunQp9+ciaVCBAgVXj+smQJvVwm1R8Xgcr7zyCk6ePImhoSG+QklkRuqbWq1GPB6fYvcSQWQ5lyEJtlNSaYwsxhstbMjdhZLJJHQ6HSwWCwKBAJYsWYK7774bZWVlXC1WCFCBgmvHeyLAcDgMiW3fCbIIHTp2TqqO7X+UJAkRdg7r5TzFkyzMkY5tGZqrkJjb0OUWL2jlnFZ3aVuSTqdDJBLh9SwxVxooKrACBdeF6yZAq/lSKCJRzRVVNbnBVpR4poOY1tVCrj5/GLhcmWbCdPUjgupC/hvVLWQryqoZdgQoUKDg8rgSAV52VIkDTz3NdiWCeG0m3EqD+GrqQn6PWLfiNfl3BQoUvH+4NRhJgQIFCqaBQoAKFCi4ZTEjAZLqdTUfBdcHeT3O9FGgQMGNwYwEqODGQiE2BQo+fCgEqECBglsWMxKgXA273EfB9UFej5f7KFCg4P3HjASoQIECBXMdCgEqUKDgloVCgAoUKLhlMeNWOJvVIv/pQ0GShdtXCVvwtOzYP0yzC0ViQQYCgQAmJycRCASgYadbWSwWGI1Gvh9ZtLFR0AeNcBBULBaDWghqqtjibi5QVB55IAlqa7pGO5Tk2xBnC2Zrvm4GXGkr3KwmwBg7I1bNQm8R5HuKtVotJicnMTo6ioGBAfT392NkZATj4+Pw+/0ACyZgsVhgs9ngcDiQnZ2NwsJCZGdn84CvYJFa6H3TDSClE948oHNr1ELkcvrQ3nbxmogPq51pkhePRBD34Su4NtzUBBgKhQAABoNhihQYjUb5wdGhUAihUAhtbW1obm5GU1MTWlpa4Ha7EQ6HuQRJA8FisSArKwulpaVYvHgxlixZgszMTFgsFqSlpU0hOyJFeceTf1cwOyGSHbWrnEymm2AJH3Q7Ux5UKhXv+yaTiff9W2Uv/fuJm5oAqQNTRxSJLBKJwOPxoKOjA9u2bcPevXvR19cHi8WCoqIilJSUoLCwEC6XC2BkSipxd3c32tvb0dHRgezsbKxfvx4PPPAA6uvrYTAY+PvFwKZyfNCDQ8H1IcmOctAIB6wT6JyWy4Vxkz/zQSEQuDRwLZZL41AkR/F/BZfHTU2ARHgQgogS2tvbsWvXLuzatQtDQ0MoKChAcXExCgsLkZeXB6fTiZSUFOh0l0L7J5NJfmSn1+vFwMAAWlpa0NbWhsnJSaSnp2PDhg1YtWoVcnNzIUnSlBPcME2Hk39XMLsgBuQlCZAmVQgSvngN07Sr/PsHAYoDSXEhKa+UR7JhXw2u9r65iJueAJPsICbqpOFwGGNjY9i2bRt27dqFtrY2LFiwAB/96EexbNkyZGdnw2KxQKPRcGM3HTwuCed1hEIhDA4OoqGhAfv378eZM2eQnp6Oe++9F/X19SguLobBYPiTM0zknUn+XcHsgbhQJmoSRCgqYRFMnFyna9Ppfnu/QdKqSqZ1UDko32S3nE4zmQkfRP5nI25qAoSgpoCppH19fdi/fz9+8YtfQKVS4c4778SnPvUpfs6GxI6VJLsJLWpQJyepUpQCmpub8eabb+K5555Dfn4+Pv7xj+OLX/wiwuEw9Hr9FLUY03Qm+XcFswsSW9GnFX6wfkVEQ9KVHPJ2lX9/vxGNRhGNRqHVarmnQiKRQDwe5304Ho/zaOzXghud99mKKxGg5jvf/e735T8CgGEWhGAXz9BIJBIIBoM4efIknnrqKRgMBnz84x/H5z//eRQUFMBkMiGZTCIajfJZkqQ3Ij8iQPqN7rXZbFx1bmtrQ1dXF9RqNQoKCpCSksLzI3ai6TrUdL8p+PBA57CQJqCSbS8kyVBUlXEV7XyjoGYuV2SzhHDeDvVlmtAhqMNXApX3VkQkesmUMBOuXob+ECCX3N599128/vrrmJycxJ133okNGzZg3rx5U2x1NMuT0ZtmUFKBKE1KX6fTwWg0IjMzE3fddRduv/12qFQqvPTSSzhz5gw8Hg/Pj9jhput80/2m4MMFtTnZgf1+PwYHBzE0NITBwUGMjo5ydyvCTP/faKiYxkJ+ruIiXDQaRSgUmtJ/Fbx3zGoJkGauWCyG8fFxPPvss3j33XdRW1uLJ554ArfddhufMSHMoER+osoLwccPrGPT91gshmQyiczMTFitVoyOjmLXrl1IT09HVlYWsrKy/iRf0/0/3XcFswNarRYTExNob29HQ0MDOjo60NHRgYGBAYC5m4imjsu18Y2C2E9JO6ETGEdHRzExMQGLxXLNJEjj6FbElSTAWU2AYI0XCoVw4MAB7NixA3q9Ht/85jdRVVXFXQTUgkE4yRZNaOYkkiNCpI5A10OhEDQaDSwWC5LJJOx2O1QqFfr7+9He3o68vDzU1NT8SZ5m+i6/puDDg4rZzMiudvToUbz00kv413/9V7zxxhvYtm0bDh48iNHRURQVFSEnJ2fKs3JM99v7CZL6NBoNXwXWarVwu904e/YsOjs74XA4+OLc1UIhwJkx6wmQFj5+/vOfw+v1Yvny5XjwwQeRkpICLTszF0Ijix+C+F38X2I+hWRfkSQJWq2WS5H79++H1WpFUVERHA4HJ1IVU60pHTrKkkhYwewAkUgsFsPJkyfx0ksvoaWlBatXr8a6detw2223wWq14uTJk4jFYjCbzSgqKoKKaR2hUAjBYJAfD6vT6ZBkjvXhcBiTk5O8D8XjcQwPD0PDjoeliRhsUg4EAlzVJgmPNJRIJIJkMsnfp9fruSociUSwY8cOHDx4EG63G1VVVbBarVzzIbKMRqNIJBLQyM6cDgaDiMVi0Gq18Hg83AZOwsBcJ8abmgAlSUIwGER7ezueeeYZ5ObmYsOGDVi+fPmUhhZVgss1qvx3UQ2ma0R+arUae/fuhcFgQH5+PoqKiqbcRx0JjKR1Ot2fpK/gw4XEFr68Xi9ee+01HD9+HHa7HZ///OexbNkyVFRUICMjAxMTE8jPz0d+fj6ys7MRjUbR2dmJEydOYN++fbhw4QI8Hg90Oh13qerp6cGrr76KaDSKgYEBnD59GgcPHkQwGIRGo4HZbIZKpcL4+DjOnz+Pffv2oaGhAX19fUgmk3wCTyQS8Hq9OH36NI4ePYqTJ0+it7eX98ORkRG89NJLOHr0KIaGhiBJElwuF/R6PdxuNxoaGnD06FE0Njaiv7+fE7BKpUIkEsHevXtx+vRpTE5OYt++ffD5fLBarTCbzUgkEohGo1NWmedaH77pCXB8fBznzp3Dtm3bsGzZMmzYsIE7KsfjcSQSiSmS4LVAPgvS/xLbbnfmzBkkk0mkpqaiurqaqx00s5PUJydRBbMDambf7e/vx7PPPguVSoW1a9fiscceQ2pqKrKzs1FaWoqqqirU19ejoKCA+4fu3bsXmzdvxiuvvILTp09jaGgIKpUKWVlZMJvNOHHiBL761a8iHo/j3Llz2LVrF3bs2IHh4WHodDrMmzcPKpUKp06dwuuvv46XXnoJO3bsQEtLC6LRKBYsWICUlBS+jfM3v/kNXnvtNezduxcnTpyAzWaD0WjE0NAQNm/ejJaWFgwMDODChQuorKyETqdDY2Mjnn/+ebz++uvYv38/2tvbodFoYLPZYLPZ4PF48I//+I945ZVXMD4+jtdffx0qlQrz5s1DZmYmwuEwQqEQNxFoptktc7PjpifAvr4+HDt2DIcPH8bdd9+Nu+66CyaTibs3qFh0mGtpOJIMSIKTP0sk2NnZiaGhISQSCaxcufJPpDxx1pSnoeDDRzweRyQSwdDQEH79618jKysLq1atQlVVFR/sarUaKSkpsFqtMBqNiEaj+PnPf46jR48iMzMTf/VXf4XFixdjaGgI27ZtQ25uLpxOJ3fGJ7X00UcfRX5+Pk6fPo2xsTFUV1djcnISW7duxalTp/DII4/g4YcfhtVqxcGDB6HX62G329HR0YHvfe97sFgs2LBhAx588EGYzWbodDqYzWaUlpZy6XPBggX4+te/jtLSUuzduxe/+MUvUFpaik2bNuG+++6DzWbDtm3bEAgEUFJSwtXnsbExVFRU4PHHH8d9992HgoICBINBGI1GHiGJ6mOu9eMrEeCsNlqpVCr4fD4MDAzAarXC4XAgJSUFScFj/lrJjyA2NhFiQnCgNhqNyMnJQSwWQ29vLxLMV4yeIZKkfFAaCmYXqJ3J5qYR/OtIi/B4PPD5fPD7/fB6vWhqaoLRaMTq1atRV1eHdevWoaqqColEAocPH+ZqbCgUQnp6OsrKyrB48WLU1tbCbDbD4/FgZGQEp0+fRnNzM7q7uzE0NISOjg60tbWhvb0dhw4dQltbG9+SmZWVhdraWqxZswYPPvgg6uvrUVJSAqfTiZycHKSmpiI9PR0rVqyATqfjLjy1tbW4/fbbUV9fj9WrVyORSKCrqwtdXV2QmE3b5XJh2bJlWLZsGfLz82EymWAymaDX67m2oxJCwt1KmPUEGAgEMDo6CpvNNsVuAmavu5bVsOlApCUSoMQM3unp6UgkEnC73dyoLH9WfF7B7AJNTnq9HmlpaYjFYvB6vXzCSiQSGB8fxzvvvIPDhw+jtbUVIyMjGBkZgdPp5Isk+fn5KCkpgcvlQnd3N7xeLyRJQigUQm5uLvLy8pCWlobs7GxYrVaALYz19PRgZGQEwWAQbrcbHR0dCAQCyM3NBQB4vV5MTEwgFoshIyMDWVlZyMzM5GRaVlYGs9kMvV4PFZNW7XY7QqEQAoEADAYD5s+fj7y8PGRkZKCsrAx2ux3BYBAjIyNQswW+9PR0VFRUID09nWsxBoMBamGniSgM3EqY1QQI1pH8fj8sFgufsZLMO55m8/cDcilSNGSHWVgt6hzUGSHrMLda55ntIAO/2WxGRUUFwuEwOjs7ASHOXnt7O/7u7/4OTz31FLfhhUIhbl+mD1hYttTUVO4vSH2A7jGZTHw11m6389Xc1NRUrFy5EmvXrsXjjz+O73znO/j0pz+N7Oxs+P1+3o9JGpuYmABYDEuJ7V+nPASDQfj9fkQiES7dEuh/8a8o2RHRqZn7Vzweh8FggN1u57bs9ypQ3GyY9QSo0Wig1+sRDoe5W4O8YUVyuhqIs53YiagDaNgKM6WpZvtFSToU0xHtiPS/gtkBsnGlpaXhjjvugMViwZ49e/C3f/u3ePrpp/HMM8/g5ZdfxuTkJCorK3H77bejuroapaWl6O7uxp49e6DRaNDX18dV2Xnz5sFmsyGZTMJisXAHatozrmEuLj6fDyUlJcjIyIBGo0FaWhrKysrgcDgQDAYxf/58LFy4EOXl5cjIyMDFixfR1dWFsbEx7NixA7/5zW+wc+dOhEIh3s8jkQii0SgKCwuRk5ODQCCAAwcOoKWlBV1dXTh8+DBGR0f5uyS2BzrJPCX0ej0nOOrTRIyRSITfeythVi+CAOArX+3t7airq+NOyUQ2pObIZ8OrgfgsGCHSwkYsFsOZM2fQ3NwMrVaL+++/HyaTCVpZdBjI7IkKZheSzF5MquHY2Bg6OjowODiIzs5OuN1uzJ8/Hx/5yEewdOlSOBwOhMNhhMNhDA8Po6+vD4cPH0Zvby8yMjJw3333oaSkBENDQ9iyZQsqKipQU1ODoqIiBAIBbN++HZFIBKtXr8a8efMQjUYRCAQQDofR3d2Nzs5OeDwelJaWwuFwQMt8/Wj1uaWlBadOnUI0GkVGRgZKSkowMDCA7u5ujIyMQKVScVU2Ho/D5/Ohu7ubh3azWq2or69HbW0tJEnCjh07EIlEsGbNGh79nCZ+6usEmtzfT83qw8aVFkFmPQFOTEygp6cHx48fR21tLWpqaqCWhTifrjGvBjQz0nOkZoCF3Tp8+DB6enqQnp6OjRs3wmQy8dUyCDZAuSSpYHYgkUhwqSYnJwcOhwMmk2nK/t/c3FzuF+h0OqHValFSUgKDwYDOzk5s3rwZnZ2dKCwsxKOPPor6+no4HA4MDg7i6NGjWLhwIaqqqrg6e/r0aVgsFqxfvx5lZWVwOp0AgHfffRcNDQ0YGRmB3W5HdnY27HY7nE4nysvLMTo6yn369Ho9ampqsHDhQuTm5iIWi8HtdnPSLi0tRU1NDaqrq/nWvtbWVuj1emzatAmrV6+G0+mESqXCyZMnodPpUFdXh8zMTOhY8Fed7FwckfRuJQKc9eGw2tvbsX37dvzkJz/B5z//eXzuc5+Dy+WCmgUyIFvOtRKgxFYAaRU5mUwiHA4DjBg9Hg/+/d//HRcuXEBxcTH+9m//lhMggdSHZDLJ1R8FswdyM0aUBRSgRQK9Xs89C8AGvo7t4qDAuR6PB2q1GmazGXa7HSaTCSqVCn6/H/39/Xz/uFarnWK/I7KlILzhcBg+nw86nQ52ux1arZYf0CVJEjweDzweDyKRCOx2O1JSUmAymaDT6RCLxRAIBOD3++H3+5GTkwOLxYJ4PI5AIACfz8fteWlpadytBQC6uroQj8eRmZkJvV4/RQ0Os9iYer0eceYMfa3jaLbjSuGwZj0BDg8P48CBA/j617+Oe+65B0888QRWrFgBFduORuRDECUxIjmNEASB1F66nmA7OtRsRQwsfH5XVxe++93vwmw2Y+PGjXjkkUdgMpkgMUM1rcxRmkSkCmYPiPzkkNgKroadFghB+ifikNhiGy0ciP2KricSCeiZpkT3Q7AHqwT3KDVzylYJpxpSmtT3yMYs9zcV+1k0GuXSG12jcaCa5gAvcv8RbX/0LJVNw7bVycs4F3AlApz1VvuUlBQUFBQgJycHAwMDaG5uhopJbNTwSbYIQp1wuu/0GwS7kFqmRtMCSDAYRGdnJzo6OmAymVBWVsZV38Q04bUUyW/2gtpX/IBFfyF7mDTNyXFgZKHX67mmoRFCrWm1WhgMhikkpmVx+6ivQLY4RumAEa1Ikmqm0YgTK0Hso+S+Il6jd8v7ocTIlIInaGX2a/EZysuthllPgGazGfn5+Vi+fDlGR0dx8OBBTE5OYnJyEslkEkajEXHmvEkERWRHnUoSwmKp2cZ1sgGJnYDuGxoawokTJxAMBuFwOJCXlwej0cgHCT1DA4bSUqBAwc2FWU2ARC56vR6PPPIICgoK0NLSgs2bNyMQCCDJbHU0s5EUJ85m4sxMs62OhRQPhULcSJ5knv0TExNoamrCli1bUFdXh9tvvx1ZWVlc6qR3iLOlKDUoUKDg5sGsJkAiLK1WiwULFmDZsmWwWq14+eWX0djYiMnJSa7GiBIeiflESnSd7DxqIXBqNBrlthmNRoMjR45g586dGB4exooVK1BZWQmj0TglPbmKI1ctFChQcHNgVo9aidk9dDodrFYrVq1ahSVLluD06dPYs2cPLly4wIlNVH2JDEUCjLPAmHSPitlmksyw7PP50N/fj+3bt+P06dOorKxEXV0d37ZE6dFzhOkkQgWzByphAeNW/SiYGbPaD5BWqbRaLUKhEFwuF2w2G/r6+tDQ0ACPxwOn04mCggJuPE6wYJUS2/iuElbZaEWMvnu9XlgsFkQiETQ1NeFf//VfsX//fpSVleEf/uEfpkSdTrLgk6ReJ4UVPwUKZjtu1X56U/sB0morWFRfjUYDt9uN48eP4+WXX0ZPTw9cLhc2bdqEuro65OfnT1nZUzG1lggrIRyVCbbPuL+/Hzt27MAbb7yB8+fPY+3atfjYxz6Gu+++m9sKSWWmTiTJXB4ofSJbBQoUzA5cyQ1mVkuARGSk0mo0GphMJuTk5ECtVsPr9aKzsxNdXV0YHx/H5OQk95MSCQsCUcXjcUxOTqK3txeNjY3YvXs3du/ejc7OTlRVVWHTpk1YtWoV0tPTOfkSAYpp0TWRFOleBQoUzA7c1BIgmBQYZRE2tOzAaK1Wi2AwiNOnT2Pbtm144YUXEI/HUVhYiPr6eqxZswbFxcWw2+2A4NyaZB7+vb29OH78OLZu3Yr+/n44nU6sXr0aX/jCF5CVlcU96cmFhshXDromSn+3qqqhQMFsxJUkwFlPgEQypNLSJ8YOrRkZGUFDQwP27t2LM2fO8DhoOp2OS4JiGkSowWAQwWAQf/Znf4Y77rgDCxYsQFpaGkwmE18cIfUXMqmPvov5o3wpUKBg9uCmJ8CZQFJXPB7H+Pg4Wltb0d7eju7ubgwODsLtdlTUNUcAAACmSURBVGNychKhUAhgsdVMJhOMRiPy8vJ4JI41a9agvLwc6enpnPRUzKYnl+jkaq8CBQpmN+YsAcohSRIikQg8Hg8GBwcxMDCAkZERvpndZDLxw2LKysqQnZ3N1Vay8dH/ChQomBu4ZQiQnJxF1TQhhEMiktOyjei0IiySIEl8ioSnQMHcwC1DgKJ9TlycEBco6EPO0AQ54Ynf5dcUKFBw8+BKBPj/AUlcY8C0jpsMAAAAAElFTkSuQmCC;" vertex="1" parent="1">
          <mxGeometry x="1135" y="120" width="211.99" height="210" as="geometry" />
        </mxCell>
        <mxCell id="_scKJNY9XlPBV2yreblt-4" style="edgeStyle=orthogonalEdgeStyle;rounded=0;orthogonalLoop=1;jettySize=auto;html=1;entryX=0.5;entryY=0;entryDx=0;entryDy=0;" edge="1" parent="1" source="_scKJNY9XlPBV2yreblt-5" target="_scKJNY9XlPBV2yreblt-8">
          <mxGeometry relative="1" as="geometry" />
        </mxCell>
        <mxCell id="_scKJNY9XlPBV2yreblt-5" value="Usuario envia una selfie al chatbot wsp" style="shape=parallelogram;html=1;strokeWidth=2;perimeter=parallelogramPerimeter;whiteSpace=wrap;rounded=1;arcSize=12;size=0.23;" vertex="1" parent="1">
          <mxGeometry x="220" y="40" width="305" height="30" as="geometry" />
        </mxCell>
        <mxCell id="_scKJNY9XlPBV2yreblt-6" style="edgeStyle=orthogonalEdgeStyle;rounded=0;orthogonalLoop=1;jettySize=auto;html=1;entryX=0.471;entryY=0;entryDx=0;entryDy=0;entryPerimeter=0;" edge="1" parent="1" source="_scKJNY9XlPBV2yreblt-2" target="_scKJNY9XlPBV2yreblt-5">
          <mxGeometry relative="1" as="geometry" />
        </mxCell>
        <mxCell id="_scKJNY9XlPBV2yreblt-7" style="edgeStyle=orthogonalEdgeStyle;rounded=0;orthogonalLoop=1;jettySize=auto;html=1;" edge="1" parent="1" source="_scKJNY9XlPBV2yreblt-8" target="_scKJNY9XlPBV2yreblt-41">
          <mxGeometry relative="1" as="geometry" />
        </mxCell>
        <mxCell id="_scKJNY9XlPBV2yreblt-8" value="Chatbot genera y carga el link de la imagen" style="rounded=1;whiteSpace=wrap;html=1;absoluteArcSize=1;arcSize=14;strokeWidth=2;" vertex="1" parent="1">
          <mxGeometry x="230" y="120" width="285" height="30" as="geometry" />
        </mxCell>
        <mxCell id="_scKJNY9XlPBV2yreblt-9" style="edgeStyle=orthogonalEdgeStyle;rounded=0;orthogonalLoop=1;jettySize=auto;html=1;" edge="1" parent="1" source="_scKJNY9XlPBV2yreblt-10" target="_scKJNY9XlPBV2yreblt-15">
          <mxGeometry relative="1" as="geometry" />
        </mxCell>
        <mxCell id="_scKJNY9XlPBV2yreblt-10" value="Configurar conexion MySQL" style="rounded=1;whiteSpace=wrap;html=1;absoluteArcSize=1;arcSize=14;strokeWidth=2;" vertex="1" parent="1">
          <mxGeometry x="317.5" y="1020" width="175" height="30" as="geometry" />
        </mxCell>
        <mxCell id="_scKJNY9XlPBV2yreblt-11" style="edgeStyle=orthogonalEdgeStyle;rounded=0;orthogonalLoop=1;jettySize=auto;html=1;entryX=0;entryY=0.5;entryDx=0;entryDy=0;" edge="1" parent="1" source="_scKJNY9XlPBV2yreblt-12" target="_scKJNY9XlPBV2yreblt-25">
          <mxGeometry relative="1" as="geometry">
            <Array as="points">
              <mxPoint x="250" y="1525" />
            </Array>
          </mxGeometry>
        </mxCell>
        <mxCell id="_scKJNY9XlPBV2yreblt-12" value="Muestra en el chatbot wsp un mensaje de error de conexion&amp;nbsp;" style="strokeWidth=2;html=1;shape=mxgraph.flowchart.document2;whiteSpace=wrap;size=0.25;" vertex="1" parent="1">
          <mxGeometry x="130" y="1170" width="210" height="110" as="geometry" />
        </mxCell>
        <mxCell id="_scKJNY9XlPBV2yreblt-13" style="edgeStyle=orthogonalEdgeStyle;rounded=0;orthogonalLoop=1;jettySize=auto;html=1;entryX=0.5;entryY=0;entryDx=0;entryDy=0;" edge="1" parent="1" source="_scKJNY9XlPBV2yreblt-15" target="_scKJNY9XlPBV2yreblt-20">
          <mxGeometry relative="1" as="geometry" />
        </mxCell>
        <mxCell id="_scKJNY9XlPBV2yreblt-14" value="no" style="edgeLabel;html=1;align=center;verticalAlign=middle;resizable=0;points=[];" vertex="1" connectable="0" parent="_scKJNY9XlPBV2yreblt-13">
          <mxGeometry x="-0.5016" relative="1" as="geometry">
            <mxPoint as="offset" />
          </mxGeometry>
        </mxCell>
        <mxCell id="_scKJNY9XlPBV2yreblt-15" value="Error de conexion?" style="strokeWidth=2;html=1;shape=mxgraph.flowchart.decision;whiteSpace=wrap;" vertex="1" parent="1">
          <mxGeometry x="355" y="1090" width="100" height="100" as="geometry" />
        </mxCell>
        <mxCell id="_scKJNY9XlPBV2yreblt-16" style="edgeStyle=orthogonalEdgeStyle;rounded=0;orthogonalLoop=1;jettySize=auto;html=1;entryX=0.5;entryY=0;entryDx=0;entryDy=0;entryPerimeter=0;" edge="1" parent="1" source="_scKJNY9XlPBV2yreblt-15" target="_scKJNY9XlPBV2yreblt-12">
          <mxGeometry relative="1" as="geometry" />
        </mxCell>
        <mxCell id="_scKJNY9XlPBV2yreblt-17" value="si" style="edgeLabel;html=1;align=center;verticalAlign=middle;resizable=0;points=[];" vertex="1" connectable="0" parent="_scKJNY9XlPBV2yreblt-16">
          <mxGeometry x="-0.104" y="1" relative="1" as="geometry">
            <mxPoint as="offset" />
          </mxGeometry>
        </mxCell>
        <mxCell id="_scKJNY9XlPBV2yreblt-60" value="si - Gateway Timeout (504)" style="edgeLabel;html=1;align=center;verticalAlign=middle;resizable=0;points=[];" vertex="1" connectable="0" parent="_scKJNY9XlPBV2yreblt-16">
          <mxGeometry x="-0.1562" y="-1" relative="1" as="geometry">
            <mxPoint x="-11" y="-19" as="offset" />
          </mxGeometry>
        </mxCell>
        <mxCell id="_scKJNY9XlPBV2yreblt-18" value="Guardado ok?" style="strokeWidth=2;html=1;shape=mxgraph.flowchart.decision;whiteSpace=wrap;" vertex="1" parent="1">
          <mxGeometry x="540" y="1240" width="100" height="100" as="geometry" />
        </mxCell>
        <mxCell id="_scKJNY9XlPBV2yreblt-19" style="edgeStyle=orthogonalEdgeStyle;rounded=0;orthogonalLoop=1;jettySize=auto;html=1;" edge="1" parent="1" source="_scKJNY9XlPBV2yreblt-20" target="_scKJNY9XlPBV2yreblt-18">
          <mxGeometry relative="1" as="geometry" />
        </mxCell>
        <mxCell id="_scKJNY9XlPBV2yreblt-20" value="Guardar URL en base de datos" style="rounded=1;whiteSpace=wrap;html=1;absoluteArcSize=1;arcSize=14;strokeWidth=2;" vertex="1" parent="1">
          <mxGeometry x="460" y="1170" width="260" height="30" as="geometry" />
        </mxCell>
        <mxCell id="_scKJNY9XlPBV2yreblt-21" style="edgeStyle=orthogonalEdgeStyle;rounded=0;orthogonalLoop=1;jettySize=auto;html=1;" edge="1" parent="1" source="_scKJNY9XlPBV2yreblt-22" target="_scKJNY9XlPBV2yreblt-25">
          <mxGeometry relative="1" as="geometry">
            <Array as="points">
              <mxPoint x="720" y="1525" />
            </Array>
          </mxGeometry>
        </mxCell>
        <mxCell id="_scKJNY9XlPBV2yreblt-22" value="Muestra un Mensaje de guardado en el chatbot wsp" style="strokeWidth=2;html=1;shape=mxgraph.flowchart.document2;whiteSpace=wrap;size=0.25;" vertex="1" parent="1">
          <mxGeometry x="670" y="1360" width="210" height="80" as="geometry" />
        </mxCell>
        <mxCell id="_scKJNY9XlPBV2yreblt-23" style="edgeStyle=orthogonalEdgeStyle;rounded=0;orthogonalLoop=1;jettySize=auto;html=1;entryX=0.5;entryY=0;entryDx=0;entryDy=0;entryPerimeter=0;" edge="1" parent="1" source="_scKJNY9XlPBV2yreblt-18" target="_scKJNY9XlPBV2yreblt-22">
          <mxGeometry relative="1" as="geometry" />
        </mxCell>
        <mxCell id="_scKJNY9XlPBV2yreblt-24" value="si" style="edgeLabel;html=1;align=center;verticalAlign=middle;resizable=0;points=[];" vertex="1" connectable="0" parent="_scKJNY9XlPBV2yreblt-23">
          <mxGeometry x="-0.21" relative="1" as="geometry">
            <mxPoint as="offset" />
          </mxGeometry>
        </mxCell>
        <mxCell id="_scKJNY9XlPBV2yreblt-25" value="Fin" style="shape=rect;html=1;rounded=1;whiteSpace=wrap;align=center;strokeWidth=2;" vertex="1" parent="1">
          <mxGeometry x="460" y="1510" width="100" height="30" as="geometry" />
        </mxCell>
        <mxCell id="_scKJNY9XlPBV2yreblt-26" style="edgeStyle=orthogonalEdgeStyle;rounded=0;orthogonalLoop=1;jettySize=auto;html=1;" edge="1" parent="1" source="_scKJNY9XlPBV2yreblt-27" target="_scKJNY9XlPBV2yreblt-25">
          <mxGeometry relative="1" as="geometry" />
        </mxCell>
        <mxCell id="_scKJNY9XlPBV2yreblt-27" value="Muestra un mensaje de no guardado en el chatbot wsp" style="strokeWidth=2;html=1;shape=mxgraph.flowchart.document2;whiteSpace=wrap;size=0.25;" vertex="1" parent="1">
          <mxGeometry x="410" y="1360" width="180" height="100" as="geometry" />
        </mxCell>
        <mxCell id="_scKJNY9XlPBV2yreblt-28" style="edgeStyle=orthogonalEdgeStyle;rounded=0;orthogonalLoop=1;jettySize=auto;html=1;entryX=0.164;entryY=0.04;entryDx=0;entryDy=0;entryPerimeter=0;" edge="1" parent="1" source="_scKJNY9XlPBV2yreblt-18" target="_scKJNY9XlPBV2yreblt-27">
          <mxGeometry relative="1" as="geometry">
            <Array as="points">
              <mxPoint x="440" y="1290" />
            </Array>
          </mxGeometry>
        </mxCell>
        <mxCell id="_scKJNY9XlPBV2yreblt-29" value="no" style="edgeLabel;html=1;align=center;verticalAlign=middle;resizable=0;points=[];" vertex="1" connectable="0" parent="_scKJNY9XlPBV2yreblt-28">
          <mxGeometry x="-0.4426" y="5" relative="1" as="geometry">
            <mxPoint as="offset" />
          </mxGeometry>
        </mxCell>
        <mxCell id="_scKJNY9XlPBV2yreblt-30" style="edgeStyle=orthogonalEdgeStyle;rounded=0;orthogonalLoop=1;jettySize=auto;html=1;" edge="1" parent="1" source="_scKJNY9XlPBV2yreblt-34" target="_scKJNY9XlPBV2yreblt-35">
          <mxGeometry relative="1" as="geometry" />
        </mxCell>
        <mxCell id="_scKJNY9XlPBV2yreblt-31" value="no - Internal Server Error (500)" style="edgeLabel;html=1;align=center;verticalAlign=middle;resizable=0;points=[];" vertex="1" connectable="0" parent="_scKJNY9XlPBV2yreblt-30">
          <mxGeometry x="-0.4844" y="4" relative="1" as="geometry">
            <mxPoint x="26" y="-11" as="offset" />
          </mxGeometry>
        </mxCell>
        <mxCell id="_scKJNY9XlPBV2yreblt-32" style="edgeStyle=orthogonalEdgeStyle;rounded=0;orthogonalLoop=1;jettySize=auto;html=1;entryX=0.5;entryY=0;entryDx=0;entryDy=0;" edge="1" parent="1" source="_scKJNY9XlPBV2yreblt-34" target="_scKJNY9XlPBV2yreblt-50">
          <mxGeometry relative="1" as="geometry">
            <mxPoint x="365.30999999999995" y="770" as="targetPoint" />
          </mxGeometry>
        </mxCell>
        <mxCell id="_scKJNY9XlPBV2yreblt-33" value="si - created (201)" style="edgeLabel;html=1;align=center;verticalAlign=middle;resizable=0;points=[];" vertex="1" connectable="0" parent="_scKJNY9XlPBV2yreblt-32">
          <mxGeometry x="0.072" y="-2" relative="1" as="geometry">
            <mxPoint as="offset" />
          </mxGeometry>
        </mxCell>
        <mxCell id="_scKJNY9XlPBV2yreblt-34" value="Link generado?" style="strokeWidth=2;html=1;shape=mxgraph.flowchart.decision;whiteSpace=wrap;" vertex="1" parent="1">
          <mxGeometry x="218.44" y="610" width="291.88" height="90" as="geometry" />
        </mxCell>
        <mxCell id="_scKJNY9XlPBV2yreblt-35" value="Muestra mensaje de link no generado" style="strokeWidth=2;html=1;shape=mxgraph.flowchart.document2;whiteSpace=wrap;size=0.25;" vertex="1" parent="1">
          <mxGeometry x="680" y="592.5" width="210" height="125" as="geometry" />
        </mxCell>
        <mxCell id="_scKJNY9XlPBV2yreblt-36" style="edgeStyle=orthogonalEdgeStyle;rounded=0;orthogonalLoop=1;jettySize=auto;html=1;entryX=0.5;entryY=0;entryDx=0;entryDy=0;entryPerimeter=0;exitX=-0.007;exitY=0.625;exitDx=0;exitDy=0;exitPerimeter=0;" edge="1" parent="1" source="_scKJNY9XlPBV2yreblt-49" target="_scKJNY9XlPBV2yreblt-34">
          <mxGeometry relative="1" as="geometry">
            <mxPoint x="255" y="490.0000000000001" as="sourcePoint" />
            <Array as="points">
              <mxPoint x="190" y="478" />
              <mxPoint x="190" y="555" />
              <mxPoint x="364" y="555" />
            </Array>
          </mxGeometry>
        </mxCell>
        <mxCell id="_scKJNY9XlPBV2yreblt-37" style="edgeStyle=orthogonalEdgeStyle;rounded=0;orthogonalLoop=1;jettySize=auto;html=1;" edge="1" parent="1" source="_scKJNY9XlPBV2yreblt-41" target="_scKJNY9XlPBV2yreblt-42">
          <mxGeometry relative="1" as="geometry" />
        </mxCell>
        <mxCell id="_scKJNY9XlPBV2yreblt-38" value="no" style="edgeLabel;html=1;align=center;verticalAlign=middle;resizable=0;points=[];" vertex="1" connectable="0" parent="_scKJNY9XlPBV2yreblt-37">
          <mxGeometry x="0.0253" y="-1" relative="1" as="geometry">
            <mxPoint x="-1" as="offset" />
          </mxGeometry>
        </mxCell>
        <mxCell id="_scKJNY9XlPBV2yreblt-53" style="edgeStyle=orthogonalEdgeStyle;rounded=0;orthogonalLoop=1;jettySize=auto;html=1;" edge="1" parent="1" source="_scKJNY9XlPBV2yreblt-41" target="_scKJNY9XlPBV2yreblt-52">
          <mxGeometry relative="1" as="geometry" />
        </mxCell>
        <mxCell id="_scKJNY9XlPBV2yreblt-54" value="si" style="edgeLabel;html=1;align=center;verticalAlign=middle;resizable=0;points=[];" vertex="1" connectable="0" parent="_scKJNY9XlPBV2yreblt-53">
          <mxGeometry x="-0.0983" y="2" relative="1" as="geometry">
            <mxPoint as="offset" />
          </mxGeometry>
        </mxCell>
        <mxCell id="_scKJNY9XlPBV2yreblt-41" value="Imagen generada y cargada?" style="strokeWidth=2;html=1;shape=mxgraph.flowchart.decision;whiteSpace=wrap;" vertex="1" parent="1">
          <mxGeometry x="272.19" y="180" width="200.62" height="60" as="geometry" />
        </mxCell>
        <mxCell id="_scKJNY9XlPBV2yreblt-42" value="Muestra mensaje de formato no soportado en el chatbot wsp (error 415)" style="strokeWidth=2;html=1;shape=mxgraph.flowchart.document2;whiteSpace=wrap;size=0.25;" vertex="1" parent="1">
          <mxGeometry x="570" y="180" width="230" height="60" as="geometry" />
        </mxCell>
        <mxCell id="_scKJNY9XlPBV2yreblt-43" style="edgeStyle=orthogonalEdgeStyle;rounded=0;orthogonalLoop=1;jettySize=auto;html=1;entryX=0.5;entryY=0;entryDx=0;entryDy=0;" edge="1" parent="1" source="_scKJNY9XlPBV2yreblt-45" target="_scKJNY9XlPBV2yreblt-10">
          <mxGeometry relative="1" as="geometry" />
        </mxCell>
        <mxCell id="_scKJNY9XlPBV2yreblt-44" value="si - created (201)" style="edgeLabel;html=1;align=center;verticalAlign=middle;resizable=0;points=[];" vertex="1" connectable="0" parent="_scKJNY9XlPBV2yreblt-43">
          <mxGeometry x="-0.1461" y="-2" relative="1" as="geometry">
            <mxPoint x="16" y="-8" as="offset" />
          </mxGeometry>
        </mxCell>
        <mxCell id="_scKJNY9XlPBV2yreblt-45" value="API genero la imagen?" style="strokeWidth=2;html=1;shape=mxgraph.flowchart.decision;whiteSpace=wrap;" vertex="1" parent="1">
          <mxGeometry x="525" y="910" width="210" height="80" as="geometry" />
        </mxCell>
        <mxCell id="_scKJNY9XlPBV2yreblt-46" style="edgeStyle=orthogonalEdgeStyle;rounded=0;orthogonalLoop=1;jettySize=auto;html=1;entryX=0.5;entryY=0;entryDx=0;entryDy=0;entryPerimeter=0;exitX=1;exitY=0.5;exitDx=0;exitDy=0;" edge="1" parent="1" source="_scKJNY9XlPBV2yreblt-50" target="_scKJNY9XlPBV2yreblt-45">
          <mxGeometry relative="1" as="geometry">
            <mxPoint x="472.80999999999995" y="799.9565217391305" as="sourcePoint" />
          </mxGeometry>
        </mxCell>
        <mxCell id="_scKJNY9XlPBV2yreblt-47" style="edgeStyle=orthogonalEdgeStyle;rounded=0;orthogonalLoop=1;jettySize=auto;html=1;entryX=0.999;entryY=0.4;entryDx=0;entryDy=0;entryPerimeter=0;exitX=0.964;exitY=0.429;exitDx=0;exitDy=0;exitPerimeter=0;" edge="1" parent="1" source="_scKJNY9XlPBV2yreblt-45" target="_scKJNY9XlPBV2yreblt-35">
          <mxGeometry relative="1" as="geometry">
            <Array as="points">
              <mxPoint x="727" y="950" />
              <mxPoint x="940" y="950" />
              <mxPoint x="940" y="642" />
            </Array>
          </mxGeometry>
        </mxCell>
        <mxCell id="_scKJNY9XlPBV2yreblt-49" value="El servidor de la empresa genera link de la imagen personalizada" style="rounded=1;whiteSpace=wrap;html=1;absoluteArcSize=1;arcSize=14;strokeWidth=2;" vertex="1" parent="1">
          <mxGeometry x="220" y="440" width="305" height="60" as="geometry" />
        </mxCell>
        <mxCell id="_scKJNY9XlPBV2yreblt-50" value="Envia la url de la imagen generada a la API interna" style="rounded=1;whiteSpace=wrap;html=1;absoluteArcSize=1;arcSize=14;strokeWidth=2;" vertex="1" parent="1">
          <mxGeometry x="167.81" y="770" width="305" height="60" as="geometry" />
        </mxCell>
        <mxCell id="_scKJNY9XlPBV2yreblt-55" style="edgeStyle=orthogonalEdgeStyle;rounded=0;orthogonalLoop=1;jettySize=auto;html=1;" edge="1" parent="1" source="_scKJNY9XlPBV2yreblt-52" target="_scKJNY9XlPBV2yreblt-49">
          <mxGeometry relative="1" as="geometry" />
        </mxCell>
        <mxCell id="_scKJNY9XlPBV2yreblt-52" value="(OK 200)" style="strokeWidth=2;html=1;shape=mxgraph.flowchart.document2;whiteSpace=wrap;size=0.25;" vertex="1" parent="1">
          <mxGeometry x="321.25" y="280" width="102.5" height="60" as="geometry" />
        </mxCell>
        <mxCell id="_scKJNY9XlPBV2yreblt-58" value="no - Internal Server Error (500)" style="edgeLabel;html=1;align=center;verticalAlign=middle;resizable=0;points=[];" vertex="1" connectable="0" parent="1">
          <mxGeometry x="800" y="930" as="geometry" />
        </mxCell>
        <mxCell id="_scKJNY9XlPBV2yreblt-61" value="ok (200)" style="edgeLabel;html=1;align=center;verticalAlign=middle;resizable=0;points=[];" vertex="1" connectable="0" parent="1">
          <mxGeometry x="515" y="1120" as="geometry">
            <mxPoint x="5" y="-2" as="offset" />
          </mxGeometry>
        </mxCell>
        <mxCell id="_scKJNY9XlPBV2yreblt-62" value="created (201)" style="edgeLabel;html=1;align=center;verticalAlign=middle;resizable=0;points=[];" vertex="1" connectable="0" parent="1">
          <mxGeometry x="720" y="1270" as="geometry">
            <mxPoint x="5" y="-2" as="offset" />
          </mxGeometry>
        </mxCell>
        <mxCell id="_scKJNY9XlPBV2yreblt-63" value="internal server error (500)" style="edgeLabel;html=1;align=center;verticalAlign=middle;resizable=0;points=[];" vertex="1" connectable="0" parent="1">
          <mxGeometry x="455" y="1280" as="geometry">
            <mxPoint x="5" y="-2" as="offset" />
          </mxGeometry>
        </mxCell>
        <mxCell id="_scKJNY9XlPBV2yreblt-65" value="&lt;b&gt;Codigos de estado http&lt;/b&gt;&lt;div&gt;&lt;ol&gt;&lt;li&gt;200 (OK): Peticion exitosa&amp;nbsp;&lt;/li&gt;&lt;li&gt;201 (Created): Se creo el recurso&lt;/li&gt;&lt;li&gt;415 (Unsopported Media Type): Servidor rechaza el formato del contenido&lt;/li&gt;&lt;li&gt;500 (Internal server error): Error interno en el servidorr&lt;/li&gt;&lt;li&gt;504: El servidor no recibio una respuesta a tiempo.&lt;/li&gt;&lt;/ol&gt;&lt;/div&gt;" style="shape=note2;boundedLbl=1;whiteSpace=wrap;html=1;size=25;verticalAlign=top;align=left;" vertex="1" parent="1">
          <mxGeometry x="1135" y="380" width="245" height="210" as="geometry" />
        </mxCell>
        <mxCell id="_scKJNY9XlPBV2yreblt-66" value="" style="verticalLabelPosition=bottom;verticalAlign=top;html=1;shape=process;whiteSpace=wrap;rounded=1;size=0.14;arcSize=6;strokeWidth=2;" vertex="1" parent="1">
          <mxGeometry x="1135" y="615" width="120" height="85" as="geometry" />
        </mxCell>
        <mxCell id="_scKJNY9XlPBV2yreblt-69" style="edgeStyle=orthogonalEdgeStyle;rounded=0;orthogonalLoop=1;jettySize=auto;html=1;entryX=1;entryY=0.5;entryDx=0;entryDy=0;" edge="1" parent="1" source="_scKJNY9XlPBV2yreblt-67" target="_scKJNY9XlPBV2yreblt-66">
          <mxGeometry relative="1" as="geometry" />
        </mxCell>
        <mxCell id="_scKJNY9XlPBV2yreblt-67" value="El subprograma es la caja negra de la api del chatbot" style="shape=note2;boundedLbl=1;whiteSpace=wrap;html=1;size=25;verticalAlign=top;align=left;" vertex="1" parent="1">
          <mxGeometry x="1300" y="612.5" width="245" height="90" as="geometry" />
        </mxCell>
      </root>
    </mxGraphModel>
  </diagram>
</mxfile>
